<?xml version="1.0" encoding="UTF-8" standalone="no"?>
<!-- Created with Inkscape (http://www.inkscape.org/) -->

<svg
   width="7.9118042mm"
   height="11.867828mm"
   viewBox="0 0 7.9118042 11.867828"
   version="1.1"
   id="svg5"
   xml:space="preserve"
   inkscape:version="1.2.1 (9c6d41e410, 2022-07-14)"
   sodipodi:docname="Plantilla.svg"
   xmlns:inkscape="http://www.inkscape.org/namespaces/inkscape"
   xmlns:sodipodi="http://sodipodi.sourceforge.net/DTD/sodipodi-0.dtd"
   xmlns:xlink="http://www.w3.org/1999/xlink"
   xmlns="http://www.w3.org/2000/svg"
   xmlns:svg="http://www.w3.org/2000/svg"><sodipodi:namedview
     id="namedview7"
     pagecolor="#ffffff"
     bordercolor="#000000"
     borderopacity="0.25"
     inkscape:showpageshadow="2"
     inkscape:pageopacity="0.0"
     inkscape:pagecheckerboard="0"
     inkscape:deskcolor="#d1d1d1"
     inkscape:document-units="mm"
     showgrid="false"
     inkscape:zoom="0.21859623"
     inkscape:cx="2721.9134"
     inkscape:cy="1967.0971"
     inkscape:window-width="1920"
     inkscape:window-height="1017"
     inkscape:window-x="-8"
     inkscape:window-y="-8"
     inkscape:window-maximized="1"
     inkscape:current-layer="layer1"
     showguides="false" /><defs
     id="defs2"><linearGradient
       inkscape:collect="always"
       id="linearGradient10953"><stop
         style="stop-color:#fffefb;stop-opacity:1;"
         offset="0"
         id="stop10949" /><stop
         style="stop-color:#deddda;stop-opacity:0;"
         offset="1"
         id="stop10951" /></linearGradient><linearGradient
       inkscape:collect="always"
       xlink:href="#linearGradient10953"
       id="linearGradient22635"
       gradientUnits="userSpaceOnUse"
       x1="350.58063"
       y1="167.56787"
       x2="858.58063"
       y2="167.56787"
       gradientTransform="matrix(1.3175067,0,0,1.3175067,-232.45969,-271.48495)" /><style
       id="style6405">.a,.c{fill:#c21325;}.a,.b{stroke:#fff;stroke-width:20px;}.b{fill:none;}</style></defs><g
     inkscape:label="Capa 1"
     inkscape:groupmode="layer"
     id="layer1"
     transform="translate(-629.65816,428.9345)"><g
       id="g94813"><path
         id="path1_fill-4"
         style="fill:#deddda;stroke-width:0.0395591"
         class="st1"
         d="m 631.63593,-428.9344 c -1.09183,0 -1.97776,0.88593 -1.97776,1.97776 0,1.09183 0.88593,1.97805 1.97776,1.97805 -1.09183,0 -1.97776,0.88622 -1.97776,1.97805 0,1.09183 0.88593,1.97776 1.97776,1.97776 -1.09183,0 -1.97776,0.88622 -1.97776,1.97805 0,1.09183 0.88593,1.97805 1.97776,1.97805 1.09183,0 1.97805,-0.88622 1.97805,-1.97805 v -1.97805 -3.95581 -3.95581 z" /><path
         id="path0_fill-1"
         class="st0"
         d="m 631.63607,-417.06678 c 1.09184,0 1.97796,-0.88612 1.97796,-1.97795 v -1.97796 h -1.97796 c -1.09183,0 -1.97795,0.88612 -1.97795,1.97796 0,1.09183 0.88612,1.97795 1.97795,1.97795 z"
         style="fill:#f6f5f4;fill-opacity:1;stroke-width:0.0395591" /><path
         id="path2_fill-5"
         style="fill:#deddda;stroke-width:0.0395591"
         class="st3"
         d="m 631.63593,-428.9344 c -1.09183,0 -1.97776,0.88593 -1.97776,1.97776 0,1.09183 0.88593,1.97805 1.97776,1.97805 h 1.97805 1.97806 c 1.09183,0 1.97776,-0.88622 1.97776,-1.97805 0,-1.09183 -0.88593,-1.97776 -1.97776,-1.97776 h -1.97806 z" /><path
         id="path1_fill_1_-3"
         class="st2"
         d="m 629.65812,-426.95655 c 0,-1.09184 0.88612,-1.97796 1.97795,-1.97796 h 1.97796 v 3.95591 h -1.97796 c -1.09183,0 -1.97795,-0.88612 -1.97795,-1.97795 z"
         style="fill:#f6f5f4;fill-opacity:1;stroke-width:0.0395591" /><path
         id="path3_fill-1"
         class="st4"
         d="m 637.56994,-423.00064 c 0,1.09183 -0.88612,1.97795 -1.97795,1.97795 -1.09184,0 -1.97796,-0.88612 -1.97796,-1.97795 0,-1.09184 0.88612,-1.97796 1.97796,-1.97796 1.09183,0 1.97795,0.88612 1.97795,1.97796 z"
         style="fill:#f6f5f4;fill-opacity:1;stroke-width:0.0395591" /></g></g><style
     type="text/css"
     id="style56646">.st0{fill:#0acf83}.st1{fill:#a259ff}.st2{fill:#f24e1e}.st3{fill:#ff7262}.st4{fill:#1abcfe}</style></svg>
