<?xml version="1.0" encoding="UTF-8" standalone="no"?>
<!-- Created with Inkscape (http://www.inkscape.org/) -->

<svg
   width="11.867706mm"
   height="11.867462mm"
   viewBox="0 0 11.867706 11.867462"
   version="1.1"
   id="svg5"
   xml:space="preserve"
   inkscape:version="1.2.1 (9c6d41e410, 2022-07-14)"
   sodipodi:docname="Plantilla.svg"
   xmlns:inkscape="http://www.inkscape.org/namespaces/inkscape"
   xmlns:sodipodi="http://sodipodi.sourceforge.net/DTD/sodipodi-0.dtd"
   xmlns:xlink="http://www.w3.org/1999/xlink"
   xmlns="http://www.w3.org/2000/svg"
   xmlns:svg="http://www.w3.org/2000/svg"><sodipodi:namedview
     id="namedview7"
     pagecolor="#ffffff"
     bordercolor="#000000"
     borderopacity="0.25"
     inkscape:showpageshadow="2"
     inkscape:pageopacity="0.0"
     inkscape:pagecheckerboard="0"
     inkscape:deskcolor="#d1d1d1"
     inkscape:document-units="mm"
     showgrid="false"
     inkscape:zoom="0.21859623"
     inkscape:cx="2721.9134"
     inkscape:cy="1967.0971"
     inkscape:window-width="1920"
     inkscape:window-height="1017"
     inkscape:window-x="-8"
     inkscape:window-y="-8"
     inkscape:window-maximized="1"
     inkscape:current-layer="layer1"
     showguides="false" /><defs
     id="defs2"><linearGradient
       inkscape:collect="always"
       id="linearGradient10953"><stop
         style="stop-color:#fffefb;stop-opacity:1;"
         offset="0"
         id="stop10949" /><stop
         style="stop-color:#deddda;stop-opacity:0;"
         offset="1"
         id="stop10951" /></linearGradient><linearGradient
       inkscape:collect="always"
       xlink:href="#linearGradient10953"
       id="linearGradient22635"
       gradientUnits="userSpaceOnUse"
       x1="350.58063"
       y1="167.56787"
       x2="858.58063"
       y2="167.56787"
       gradientTransform="matrix(1.3175067,0,0,1.3175067,-232.45969,-271.48495)" /><style
       id="style6405">.a,.c{fill:#c21325;}.a,.b{stroke:#fff;stroke-width:20px;}.b{fill:none;}</style></defs><g
     inkscape:label="Capa 1"
     inkscape:groupmode="layer"
     id="layer1"
     transform="translate(-442.13499,428.93438)"><path
       fill="#f05133"
       d="m 453.77886,-423.52926 -5.18151,-5.18126 c -0.29835,-0.29847 -0.78228,-0.29847 -1.08089,0 l -1.07585,1.07611 1.36476,1.36476 c 0.31721,-0.1072 0.6809,-0.0353 0.93365,0.21762 0.25431,0.25444 0.3256,0.62124 0.2157,0.9396 l 1.31555,1.31543 c 0.31836,-0.10978 0.68542,-0.0387 0.9396,0.21581 0.35517,0.35517 0.35517,0.93068 0,1.28612 -0.35544,0.35529 -0.93094,0.35529 -1.2865,0 -0.26709,-0.26735 -0.33322,-0.65999 -0.19773,-0.98907 l -1.22697,-1.22683 v 3.22846 c 0.0865,0.0428 0.16829,0.1 0.24035,0.17203 0.35518,0.35517 0.35518,0.93068 0,1.28624 -0.35516,0.35505 -0.93106,0.35505 -1.28597,0 -0.35518,-0.35568 -0.35518,-0.9312 0,-1.28624 0.0878,-0.0877 0.18946,-0.15408 0.29795,-0.19851 v -3.25855 c -0.10849,-0.0444 -0.20987,-0.11017 -0.29795,-0.1985 -0.26903,-0.2689 -0.33374,-0.66385 -0.1958,-0.99423 l -1.34539,-1.34565 -3.55302,3.55262 c -0.29847,0.29874 -0.29847,0.78268 0,1.08115 l 5.18177,5.18139 c 0.29834,0.29847 0.78215,0.29847 1.08088,0 l 5.15737,-5.15737 c 0.29847,-0.29847 0.29847,-0.78266 0,-1.08113 z"
       id="path54453-0"
       style="fill:#f6f5f4;fill-opacity:1;stroke-width:0.129153" /></g><style
     type="text/css"
     id="style56646">.st0{fill:#0acf83}.st1{fill:#a259ff}.st2{fill:#f24e1e}.st3{fill:#ff7262}.st4{fill:#1abcfe}</style></svg>
