<?xml version="1.0" encoding="UTF-8" standalone="no"?>
<!-- Created with Inkscape (http://www.inkscape.org/) -->

<svg
   width="11.868927mm"
   height="11.574982mm"
   viewBox="0 0 11.868927 11.574982"
   version="1.1"
   id="svg5"
   xml:space="preserve"
   inkscape:version="1.2.1 (9c6d41e410, 2022-07-14)"
   sodipodi:docname="Plantilla.svg"
   xmlns:inkscape="http://www.inkscape.org/namespaces/inkscape"
   xmlns:sodipodi="http://sodipodi.sourceforge.net/DTD/sodipodi-0.dtd"
   xmlns:xlink="http://www.w3.org/1999/xlink"
   xmlns="http://www.w3.org/2000/svg"
   xmlns:svg="http://www.w3.org/2000/svg"><sodipodi:namedview
     id="namedview7"
     pagecolor="#ffffff"
     bordercolor="#000000"
     borderopacity="0.25"
     inkscape:showpageshadow="2"
     inkscape:pageopacity="0.0"
     inkscape:pagecheckerboard="0"
     inkscape:deskcolor="#d1d1d1"
     inkscape:document-units="mm"
     showgrid="false"
     inkscape:zoom="0.21859623"
     inkscape:cx="2721.9134"
     inkscape:cy="1967.0971"
     inkscape:window-width="1920"
     inkscape:window-height="1017"
     inkscape:window-x="-8"
     inkscape:window-y="-8"
     inkscape:window-maximized="1"
     inkscape:current-layer="layer1"
     showguides="false" /><defs
     id="defs2"><linearGradient
       inkscape:collect="always"
       id="linearGradient10953"><stop
         style="stop-color:#fffefb;stop-opacity:1;"
         offset="0"
         id="stop10949" /><stop
         style="stop-color:#deddda;stop-opacity:0;"
         offset="1"
         id="stop10951" /></linearGradient><linearGradient
       inkscape:collect="always"
       xlink:href="#linearGradient10953"
       id="linearGradient22635"
       gradientUnits="userSpaceOnUse"
       x1="350.58063"
       y1="167.56787"
       x2="858.58063"
       y2="167.56787"
       gradientTransform="matrix(1.3175067,0,0,1.3175067,-232.45969,-271.48495)" /><style
       id="style6405">.a,.c{fill:#c21325;}.a,.b{stroke:#fff;stroke-width:20px;}.b{fill:none;}</style></defs><g
     inkscape:label="Capa 1"
     inkscape:groupmode="layer"
     id="layer1"
     transform="translate(-488.52128,428.78813)"><path
       fill-rule="evenodd"
       clip-rule="evenodd"
       d="m 494.45515,-428.78812 c -3.27846,0 -5.93386,2.6554 -5.93386,5.93386 0,2.62574 1.69857,4.84352 4.05728,5.62976 0.29669,0.0519 0.40795,-0.1261 0.40795,-0.28186 0,-0.14093 -0.007,-0.60822 -0.007,-1.10518 -1.49089,0.27444 -1.87659,-0.36345 -1.99527,-0.69723 -0.0668,-0.1706 -0.35603,-0.69723 -0.60822,-0.83816 -0.20768,-0.11126 -0.50438,-0.3857 -0.007,-0.39312 0.46729,-0.007 0.80107,0.43021 0.91233,0.60822 0.53405,0.8975 1.38704,0.64531 1.72824,0.48955 0.0519,-0.3857 0.20768,-0.64531 0.37828,-0.79366 -1.32029,-0.14834 -2.69991,-0.66014 -2.69991,-2.92984 0,-0.64531 0.22994,-1.17936 0.60822,-1.59473 -0.0593,-0.14835 -0.26702,-0.75657 0.0593,-1.57247 0,0 0.49696,-0.15577 1.63181,0.60822 0.47471,-0.13351 0.97909,-0.20027 1.48347,-0.20027 0.50438,0 1.00876,0.0668 1.48347,0.20027 1.13485,-0.7714 1.63181,-0.60822 1.63181,-0.60822 0.32636,0.8159 0.11868,1.42412 0.0593,1.57247 0.37828,0.41537 0.60822,0.942 0.60822,1.59473 0,2.27712 -1.38704,2.7815 -2.70733,2.92984 0.21511,0.18544 0.40054,0.54147 0.40054,1.09777 0,0.79365 -0.007,1.43154 -0.007,1.63181 0,0.15576 0.11126,0.3412 0.40795,0.28186 2.34388,-0.78624 4.04245,-3.01144 4.04245,-5.62976 0,-3.27846 -2.6554,-5.93386 -5.93387,-5.93386 z"
       fill="#1b1f23"
       id="path54746-3"
       style="fill:#f6f5f4;fill-opacity:1;stroke-width:0.741733" /></g><style
     type="text/css"
     id="style56646">.st0{fill:#0acf83}.st1{fill:#a259ff}.st2{fill:#f24e1e}.st3{fill:#ff7262}.st4{fill:#1abcfe}</style></svg>
