<?xml version="1.0" encoding="UTF-8" standalone="no"?>
<!-- Created with Inkscape (http://www.inkscape.org/) -->

<svg
   width="9.4994202mm"
   height="10.582947mm"
   viewBox="0 0 9.4994202 10.582947"
   version="1.1"
   id="svg5"
   xml:space="preserve"
   inkscape:version="1.2.1 (9c6d41e410, 2022-07-14)"
   sodipodi:docname="Plantilla.svg"
   xmlns:inkscape="http://www.inkscape.org/namespaces/inkscape"
   xmlns:sodipodi="http://sodipodi.sourceforge.net/DTD/sodipodi-0.dtd"
   xmlns:xlink="http://www.w3.org/1999/xlink"
   xmlns="http://www.w3.org/2000/svg"
   xmlns:svg="http://www.w3.org/2000/svg"><sodipodi:namedview
     id="namedview7"
     pagecolor="#ffffff"
     bordercolor="#000000"
     borderopacity="0.25"
     inkscape:showpageshadow="2"
     inkscape:pageopacity="0.0"
     inkscape:pagecheckerboard="0"
     inkscape:deskcolor="#d1d1d1"
     inkscape:document-units="mm"
     showgrid="false"
     inkscape:zoom="0.21859623"
     inkscape:cx="2721.9134"
     inkscape:cy="1967.0971"
     inkscape:window-width="1920"
     inkscape:window-height="1017"
     inkscape:window-x="-8"
     inkscape:window-y="-8"
     inkscape:window-maximized="1"
     inkscape:current-layer="layer1"
     showguides="false" /><defs
     id="defs2"><linearGradient
       inkscape:collect="always"
       id="linearGradient10953"><stop
         style="stop-color:#fffefb;stop-opacity:1;"
         offset="0"
         id="stop10949" /><stop
         style="stop-color:#deddda;stop-opacity:0;"
         offset="1"
         id="stop10951" /></linearGradient><linearGradient
       inkscape:collect="always"
       xlink:href="#linearGradient10953"
       id="linearGradient22635"
       gradientUnits="userSpaceOnUse"
       x1="350.58063"
       y1="167.56787"
       x2="858.58063"
       y2="167.56787"
       gradientTransform="matrix(1.3175067,0,0,1.3175067,-232.45969,-271.48495)" /><style
       id="style6405">.a,.c{fill:#c21325;}.a,.b{stroke:#fff;stroke-width:20px;}.b{fill:none;}</style></defs><g
     inkscape:label="Capa 1"
     inkscape:groupmode="layer"
     id="layer1"
     transform="translate(-489.70546,398.08336)"><path
       id="path6411-4"
       style="fill:#f6f5f4;fill-opacity:1;stroke:none;stroke-width:0.516404px"
       class="a"
       d="m 493.55903,-398.08335 1.36117,4.01718 1.36695,-2.76404 1.35806,2.77003 1.36428,-4.02317 z m 1.02554,4.27651 c -0.44441,0 -0.79905,0.35486 -0.79905,0.79926 0,0.37593 0.25375,0.68751 0.60095,0.77465 4.3e-4,1.1e-4 8.6e-4,1.1e-4 0.001,2.3e-4 0.0304,0.008 0.0616,0.0135 0.0934,0.0175 0.002,2.3e-4 0.003,4.3e-4 0.005,8.6e-4 0.0323,0.004 0.0653,0.006 0.0987,0.006 0.44441,0 0.79927,-0.35464 0.79927,-0.79905 0,-0.44441 -0.35486,-0.79926 -0.79927,-0.79926 z m 3.44397,0 c -0.44441,0 -0.79927,0.35486 -0.79927,0.79926 0,0.44441 0.35486,0.79905 0.79927,0.79905 0.0322,0 0.0638,-0.002 0.0949,-0.006 0.002,-2.2e-4 0.004,-4.2e-4 0.007,-8.5e-4 0.029,-0.003 0.0575,-0.009 0.0854,-0.0155 0.003,-8.6e-4 0.005,-10e-4 0.008,-0.002 0.34867,-0.0861 0.60383,-0.39835 0.60383,-0.77531 0,-0.44441 -0.35464,-0.79927 -0.79904,-0.79927 z m -6.90103,0.008 c -0.44426,0 -0.79882,0.35456 -0.79882,0.79882 0,0.25151 0.11383,0.47407 0.29304,0.62002 0.034,0.0277 0.0703,0.0527 0.1087,0.0745 8.6e-4,4.3e-4 10e-4,8.6e-4 0.002,10e-4 0.0385,0.0217 0.0789,0.0405 0.12112,0.0557 0.0194,0.007 0.0393,0.0131 0.0594,0.0186 0.003,8.6e-4 0.006,0.002 0.009,0.003 0.0191,0.005 0.0386,0.009 0.0583,0.0129 0.003,8.6e-4 0.007,10e-4 0.0109,0.002 0.0206,0.003 0.0415,0.006 0.0626,0.008 0.002,2.3e-4 0.005,2.3e-4 0.007,4.3e-4 0.022,0.002 0.0442,0.003 0.0668,0.003 0.032,0 0.0633,-0.002 0.0943,-0.006 7e-5,-1e-5 1.1e-4,10e-6 2.2e-4,0 1.2e-4,-2e-5 3.5e-4,2e-5 4.3e-4,0 0.0301,-0.003 0.0598,-0.009 0.0887,-0.0158 8.6e-4,-1.1e-4 0.001,-7e-5 0.002,-2.2e-4 4.2e-4,-1.1e-4 8.5e-4,-3.4e-4 0.002,-4.3e-4 0.0292,-0.007 0.0578,-0.0153 0.0856,-0.0253 0.0283,-0.0102 0.0558,-0.0219 0.0825,-0.0351 0.26372,-0.12982 0.44345,-0.40033 0.44345,-0.71652 0,-0.44426 -0.35456,-0.79882 -0.79883,-0.79882 z m 5.18426,0.69922 a 11.556832,11.556832 0 0 0 -0.41439,0.0131 c 0.002,0.0261 0.003,0.0523 0.003,0.0788 0,0.72349 -0.59198,1.31547 -1.31547,1.31547 -0.16237,0 -0.31795,-0.0299 -0.46186,-0.0843 -0.19923,0.30167 -0.43165,0.57855 -0.69035,0.823 a 4.2316614,4.2316614 0 0 1 -1.48118,0.91906 c -0.62595,-0.32149 -0.93002,-1.02459 -0.69723,-1.65644 -0.0416,0.004 -0.0838,0.006 -0.12644,0.006 -0.26347,0 -0.50929,-0.0788 -0.71564,-0.21363 -0.2497,0.5249 -0.55293,1.07772 -0.65707,1.70568 -0.14356,0.866 -9e-5,1.78543 0.74869,2.30441 1.7444,1.20915 3.63814,-0.74869 5.6348,-1.2416 0.72296,-0.17868 1.51762,-0.14964 2.15511,-0.51887 a 1.8053436,1.8053436 0 0 0 0.88379,-1.25292 c 0.0727,-0.41966 -0.002,-0.8375 -0.1961,-1.20167 -0.2401,0.25268 -0.57864,0.41106 -0.95256,0.41106 -0.72349,0 -1.31547,-0.59199 -1.31547,-1.31548 0,-0.0265 0.001,-0.0528 0.003,-0.079 a 11.556832,11.556832 0 0 0 -0.40395,-0.0129 z" /></g><style
     type="text/css"
     id="style56646">.st0{fill:#0acf83}.st1{fill:#a259ff}.st2{fill:#f24e1e}.st3{fill:#ff7262}.st4{fill:#1abcfe}</style></svg>
