<?xml version="1.0" encoding="UTF-8" standalone="no"?>
<!-- Created with Inkscape (http://www.inkscape.org/) -->

<svg
   width="11.358948mm"
   height="11.867706mm"
   viewBox="0 0 11.358948 11.867706"
   version="1.1"
   id="svg5"
   xml:space="preserve"
   inkscape:version="1.2.1 (9c6d41e410, 2022-07-14)"
   sodipodi:docname="Plantilla.svg"
   xmlns:inkscape="http://www.inkscape.org/namespaces/inkscape"
   xmlns:sodipodi="http://sodipodi.sourceforge.net/DTD/sodipodi-0.dtd"
   xmlns:xlink="http://www.w3.org/1999/xlink"
   xmlns="http://www.w3.org/2000/svg"
   xmlns:svg="http://www.w3.org/2000/svg"><sodipodi:namedview
     id="namedview7"
     pagecolor="#ffffff"
     bordercolor="#000000"
     borderopacity="0.25"
     inkscape:showpageshadow="2"
     inkscape:pageopacity="0.0"
     inkscape:pagecheckerboard="0"
     inkscape:deskcolor="#d1d1d1"
     inkscape:document-units="mm"
     showgrid="false"
     inkscape:zoom="0.21859623"
     inkscape:cx="2721.9134"
     inkscape:cy="1967.0971"
     inkscape:window-width="1920"
     inkscape:window-height="1017"
     inkscape:window-x="-8"
     inkscape:window-y="-8"
     inkscape:window-maximized="1"
     inkscape:current-layer="layer1"
     showguides="false" /><defs
     id="defs2"><linearGradient
       inkscape:collect="always"
       id="linearGradient10953"><stop
         style="stop-color:#fffefb;stop-opacity:1;"
         offset="0"
         id="stop10949" /><stop
         style="stop-color:#deddda;stop-opacity:0;"
         offset="1"
         id="stop10951" /></linearGradient><linearGradient
       inkscape:collect="always"
       xlink:href="#linearGradient10953"
       id="linearGradient22635"
       gradientUnits="userSpaceOnUse"
       x1="350.58063"
       y1="167.56787"
       x2="858.58063"
       y2="167.56787"
       gradientTransform="matrix(1.3175067,0,0,1.3175067,-232.45969,-271.48495)" /><style
       id="style6405">.a,.c{fill:#c21325;}.a,.b{stroke:#fff;stroke-width:20px;}.b{fill:none;}</style></defs><g
     inkscape:label="Capa 1"
     inkscape:groupmode="layer"
     id="layer1"
     transform="translate(-581.54829,428.9345)"><path
       fill-rule="evenodd"
       clip-rule="evenodd"
       d="m 588.82904,-428.90743 -6.5667,0.48503 c -0.52976,0.0458 -0.71407,0.39198 -0.71407,0.80688 v 7.19888 c 0,0.32315 0.11476,0.59967 0.39163,0.96922 l 1.54362,2.00716 c 0.2536,0.32316 0.4842,0.39247 0.96839,0.36944 l 7.62576,-0.46165 c 0.64476,-0.0459 0.82954,-0.34617 0.82954,-0.85363 v -8.0988 c 0,-0.26227 -0.1036,-0.33787 -0.4086,-0.56169 l -2.14851,-1.51478 c -0.5071,-0.36873 -0.71443,-0.41537 -1.52106,-0.34617 z m -4.20469,2.28997 c -0.6227,0.0419 -0.76392,0.0514 -1.11757,-0.23617 l -0.89909,-0.71513 c -0.0914,-0.0926 -0.0455,-0.20804 0.18478,-0.23107 l 6.31272,-0.46129 c 0.53013,-0.0463 0.80617,0.13849 1.01349,0.29989 l 1.08268,0.78445 c 0.0463,0.0234 0.1614,0.1614 0.0229,0.1614 l -6.51922,0.39246 -0.0807,0.006 z m -0.72595,8.16217 v -6.87525 c 0,-0.30025 0.0922,-0.43874 0.36826,-0.46201 l 7.48774,-0.43838 c 0.25396,-0.0229 0.36872,0.13849 0.36872,0.43827 v 6.82943 c 0,0.30026 -0.0463,0.55423 -0.46082,0.57713 l -7.16529,0.41536 c -0.41454,0.0229 -0.59848,-0.11511 -0.59848,-0.48455 z m 7.07309,-6.50664 c 0.0459,0.20768 0,0.41536 -0.20769,0.4391 l -0.34534,0.0685 v 5.07611 c -0.29989,0.16141 -0.57593,0.25362 -0.80664,0.25362 -0.36873,0 -0.46082,-0.11548 -0.73698,-0.4613 l -2.2584,-3.55315 v 3.43768 l 0.71443,0.16176 c 0,0 0,0.41537 -0.57641,0.41537 l -1.58907,0.0922 c -0.0463,-0.0926 0,-0.32316 0.16104,-0.36908 l 0.41501,-0.11512 v -4.54529 l -0.57593,-0.0466 c -0.0463,-0.20768 0.0688,-0.50757 0.39163,-0.53083 l 1.70501,-0.11476 2.34979,3.59908 v -3.18408 l -0.59896,-0.0688 c -0.0463,-0.25433 0.13802,-0.43911 0.36825,-0.46166 l 1.59026,-0.0926 z"
       fill="#000000"
       id="path55296-98"
       style="fill:#f6f5f4;fill-opacity:1;stroke-width:0.118676" /></g><style
     type="text/css"
     id="style56646">.st0{fill:#0acf83}.st1{fill:#a259ff}.st2{fill:#f24e1e}.st3{fill:#ff7262}.st4{fill:#1abcfe}</style></svg>
