<?xml version="1.0" encoding="UTF-8" standalone="no"?>
<!-- Created with Inkscape (http://www.inkscape.org/) -->

<svg
   width="8.2880859mm"
   height="12.120941mm"
   viewBox="0 0 8.2880859 12.120941"
   version="1.1"
   id="svg5"
   xml:space="preserve"
   inkscape:version="1.2.1 (9c6d41e410, 2022-07-14)"
   sodipodi:docname="Plantilla.svg"
   xmlns:inkscape="http://www.inkscape.org/namespaces/inkscape"
   xmlns:sodipodi="http://sodipodi.sourceforge.net/DTD/sodipodi-0.dtd"
   xmlns:xlink="http://www.w3.org/1999/xlink"
   xmlns="http://www.w3.org/2000/svg"
   xmlns:svg="http://www.w3.org/2000/svg"><sodipodi:namedview
     id="namedview7"
     pagecolor="#ffffff"
     bordercolor="#000000"
     borderopacity="0.25"
     inkscape:showpageshadow="2"
     inkscape:pageopacity="0.0"
     inkscape:pagecheckerboard="0"
     inkscape:deskcolor="#d1d1d1"
     inkscape:document-units="mm"
     showgrid="false"
     inkscape:zoom="0.21859623"
     inkscape:cx="2721.9134"
     inkscape:cy="1967.0971"
     inkscape:window-width="1920"
     inkscape:window-height="1017"
     inkscape:window-x="-8"
     inkscape:window-y="-8"
     inkscape:window-maximized="1"
     inkscape:current-layer="layer1"
     showguides="false" /><defs
     id="defs2"><linearGradient
       inkscape:collect="always"
       id="linearGradient10953"><stop
         style="stop-color:#fffefb;stop-opacity:1;"
         offset="0"
         id="stop10949" /><stop
         style="stop-color:#deddda;stop-opacity:0;"
         offset="1"
         id="stop10951" /></linearGradient><linearGradient
       inkscape:collect="always"
       xlink:href="#linearGradient10953"
       id="linearGradient22635"
       gradientUnits="userSpaceOnUse"
       x1="350.58063"
       y1="167.56787"
       x2="858.58063"
       y2="167.56787"
       gradientTransform="matrix(1.3175067,0,0,1.3175067,-232.45969,-271.48495)" /><style
       id="style6405">.a,.c{fill:#c21325;}.a,.b{stroke:#fff;stroke-width:20px;}.b{fill:none;}</style></defs><g
     inkscape:label="Capa 1"
     inkscape:groupmode="layer"
     id="layer1"
     transform="translate(-583.08375,398.85234)"><path
       id="path5687-7"
       style="fill:#ffffff;fill-opacity:1;fill-rule:evenodd;stroke-width:0.0249269"
       d="m 587.75001,-398.85226 c -0.34485,10e-4 -1.41106,1.2754 -1.5844,2.68717 -0.0399,0.32462 -0.0603,0.62311 -0.0589,0.89452 0.0149,-0.004 0.0301,-0.009 0.045,-0.0129 0.0297,-0.008 0.0595,-0.0156 0.0894,-0.0227 0.0299,-0.007 0.0597,-0.0135 0.0899,-0.0196 0.0302,-0.006 0.0606,-0.0119 0.091,-0.0171 0.0304,-0.005 0.0608,-0.01 0.0915,-0.014 0.0306,-0.004 0.0616,-0.008 0.0925,-0.0109 0.0309,-0.003 0.0615,-0.006 0.0925,-0.008 0.0311,-0.002 0.0622,-0.004 0.0935,-0.005 0.0313,-0.001 0.0631,-0.002 0.0946,-0.002 0.0315,0 0.0628,1.1e-4 0.0941,0.002 0.0313,10e-4 0.0625,0.003 0.0935,0.005 0.0311,0.002 0.0616,0.005 0.0925,0.008 0.0309,0.003 0.0618,0.007 0.0925,0.0109 0.0306,0.004 0.0611,0.009 0.0915,0.014 0.0304,0.005 0.0607,0.0109 0.0909,0.0171 0.0302,0.006 0.06,0.0125 0.0899,0.0196 0.0299,0.007 0.0597,0.0146 0.0894,0.0227 0.0297,0.008 0.0595,0.0167 0.0889,0.0258 0.0294,0.009 0.0587,0.0185 0.0879,0.0284 0.0291,0.01 0.0579,0.0206 0.0868,0.0315 0.0288,0.0109 0.0577,0.0223 0.0863,0.0341 0.0571,0.0236 0.11365,0.0488 0.1695,0.076 0.0558,0.0272 0.11083,0.0566 0.16536,0.0873 0.0545,0.0307 0.10862,0.063 0.16175,0.0971 l 5.2e-4,5.2e-4 c 0.0742,-0.28131 0.1305,-0.60258 0.17415,-0.95808 0.176,-1.43347 -0.54903,-2.94895 -0.87592,-2.99052 h -5.2e-4 c -0.005,-5.9e-4 -0.0102,-10e-4 -0.0155,-10e-4 z m -3.76411,1.58853 c -0.12245,0.001 -0.21587,0.0271 -0.26717,0.076 -0.26751,0.25486 -0.33095,2.04151 0.34727,3.19463 0.51282,-0.57296 1.14301,-0.96827 1.83554,-1.11104 0.002,-0.25377 0.0212,-0.52909 0.0579,-0.82786 0.009,-0.0758 0.0215,-0.15102 0.0357,-0.22582 -0.61116,-0.75138 -1.53191,-1.11113 -2.00918,-1.10588 z m 6.64404,0.83509 c -0.50665,0.008 -1.19585,0.1786 -1.77095,0.60255 -0.004,0.0756 -0.0109,0.15097 -0.0202,0.22634 -0.0399,0.3248 -0.0901,0.62086 -0.15503,0.88419 0.57804,0.33666 1.08027,0.8602 1.46245,1.51308 0.97359,-0.9423 1.37648,-2.72216 1.17512,-3.03961 -0.0759,-0.11968 -0.33945,-0.1921 -0.69143,-0.18655 z m -3.79564,1.3963 c -0.0324,0 -0.0644,6.4e-4 -0.0966,0.002 -0.0322,0.001 -0.0642,0.003 -0.0961,0.005 -0.032,0.002 -0.0638,0.005 -0.0956,0.008 -0.0318,0.003 -0.0636,0.007 -0.0951,0.0109 -0.0315,0.004 -0.0627,0.009 -0.094,0.0145 -0.0313,0.005 -0.0625,0.0113 -0.0935,0.0176 -0.031,0.006 -0.0617,0.0134 -0.0925,0.0207 -0.0308,0.007 -0.0614,0.0149 -0.092,0.0233 -0.0154,0.004 -0.0311,0.009 -0.0465,0.0134 v 5.1e-4 c -1.68617,0.48949 -2.94866,2.48733 -2.94866,4.85397 0,2.72947 1.67932,3.33106 3.75119,3.33106 2.07187,0 3.75171,-0.60159 3.75171,-3.33106 0,-1.96113 -0.86704,-3.66983 -2.1239,-4.47621 -4.7e-4,-2.8e-4 -8.9e-4,-2.4e-4 -0.001,-5.2e-4 -0.0547,-0.0351 -0.11028,-0.0686 -0.16639,-0.10025 -0.0561,-0.0316 -0.11307,-0.0614 -0.17054,-0.0894 -0.0575,-0.028 -0.11541,-0.0543 -0.17414,-0.0786 -0.0294,-0.0122 -0.0587,-0.0238 -0.0884,-0.0351 -0.0297,-0.0112 -0.0599,-0.0217 -0.0899,-0.032 -0.03,-0.0103 -0.0601,-0.0202 -0.0904,-0.0294 -0.0303,-0.009 -0.0604,-0.0181 -0.091,-0.0264 -0.0305,-0.008 -0.0612,-0.0164 -0.092,-0.0238 -0.0308,-0.007 -0.0615,-0.0138 -0.0925,-0.0202 -0.031,-0.006 -0.0622,-0.0123 -0.0935,-0.0176 -0.0313,-0.005 -0.0631,-0.0102 -0.0946,-0.0145 -0.0315,-0.004 -0.0629,-0.008 -0.0946,-0.0109 -0.0317,-0.003 -0.0636,-0.006 -0.0956,-0.008 -0.032,-0.002 -0.064,-0.004 -0.0961,-0.005 -0.0322,-10e-4 -0.0648,-0.002 -0.0972,-0.002 z" /></g><style
     type="text/css"
     id="style56646">.st0{fill:#0acf83}.st1{fill:#a259ff}.st2{fill:#f24e1e}.st3{fill:#ff7262}.st4{fill:#1abcfe}</style></svg>
