<?xml version="1.0" encoding="UTF-8" standalone="no"?>
<!-- Created with Inkscape (http://www.inkscape.org/) -->

<svg
   width="10.583313mm"
   height="10.047333mm"
   viewBox="0 0 10.583313 10.047333"
   version="1.1"
   id="svg5"
   xml:space="preserve"
   inkscape:version="1.2.1 (9c6d41e410, 2022-07-14)"
   sodipodi:docname="Plantilla.svg"
   xmlns:inkscape="http://www.inkscape.org/namespaces/inkscape"
   xmlns:sodipodi="http://sodipodi.sourceforge.net/DTD/sodipodi-0.dtd"
   xmlns:xlink="http://www.w3.org/1999/xlink"
   xmlns="http://www.w3.org/2000/svg"
   xmlns:svg="http://www.w3.org/2000/svg"><sodipodi:namedview
     id="namedview7"
     pagecolor="#ffffff"
     bordercolor="#000000"
     borderopacity="0.25"
     inkscape:showpageshadow="2"
     inkscape:pageopacity="0.0"
     inkscape:pagecheckerboard="0"
     inkscape:deskcolor="#d1d1d1"
     inkscape:document-units="mm"
     showgrid="false"
     inkscape:zoom="0.21859623"
     inkscape:cx="2721.9134"
     inkscape:cy="1967.0971"
     inkscape:window-width="1920"
     inkscape:window-height="1017"
     inkscape:window-x="-8"
     inkscape:window-y="-8"
     inkscape:window-maximized="1"
     inkscape:current-layer="layer1"
     showguides="false" /><defs
     id="defs2"><linearGradient
       inkscape:collect="always"
       id="linearGradient10953"><stop
         style="stop-color:#fffefb;stop-opacity:1;"
         offset="0"
         id="stop10949" /><stop
         style="stop-color:#deddda;stop-opacity:0;"
         offset="1"
         id="stop10951" /></linearGradient><linearGradient
       inkscape:collect="always"
       xlink:href="#linearGradient10953"
       id="linearGradient22635"
       gradientUnits="userSpaceOnUse"
       x1="350.58063"
       y1="167.56787"
       x2="858.58063"
       y2="167.56787"
       gradientTransform="matrix(1.3175067,0,0,1.3175067,-232.45969,-271.48495)" /><style
       id="style6405">.a,.c{fill:#c21325;}.a,.b{stroke:#fff;stroke-width:20px;}.b{fill:none;}</style></defs><g
     inkscape:label="Capa 1"
     inkscape:groupmode="layer"
     id="layer1"
     transform="translate(-535.54976,397.81554)"><path
       d="m 542.88298,-390.79859 c 0.39054,-0.0404 0.68685,-0.37711 0.67337,-0.78119 -0.0135,-0.40403 -0.35016,-0.72728 -0.7542,-0.72728 h -0.0269 c -0.41755,0.0135 -0.74076,0.36364 -0.72729,0.78116 0.0135,0.20202 0.0943,0.37711 0.21548,0.49833 -0.45789,0.90239 -1.15822,1.56233 -2.20872,2.11454 -0.71379,0.37711 -1.45451,0.5118 -2.19523,0.41753 -0.60606,-0.0808 -1.07744,-0.35016 -1.37377,-0.79466 -0.43096,-0.65993 -0.47134,-1.37378 -0.1077,-2.08758 0.2559,-0.51181 0.65989,-0.88893 0.9158,-1.07748 -0.0538,-0.17509 -0.13469,-0.47138 -0.17509,-0.68686 -1.95285,1.41418 -1.75081,3.32668 -1.15822,4.22905 0.44442,0.67344 1.34678,1.09095 2.3434,1.09095 0.26935,0 0.53869,-0.027 0.80806,-0.0943 1.72391,-0.33673 3.0303,-1.36034 3.77101,-2.88225 z m 2.37035,-1.67008 c -1.02356,-1.1987 -2.53195,-1.85863 -4.25586,-1.85863 H 540.782 c -0.12121,-0.24242 -0.37712,-0.40407 -0.65995,-0.40407 h -0.027 c -0.41745,0.0135 -0.74066,0.36364 -0.72723,0.78119 0.0135,0.40403 0.35017,0.72728 0.75419,0.72728 h 0.0269 c 0.2963,-0.0135 0.5522,-0.20204 0.65993,-0.45794 h 0.24243 c 1.02358,0 1.99324,0.2963 2.86869,0.87545 0.67337,0.44446 1.15823,1.02362 1.42757,1.72394 0.22894,0.56568 0.21547,1.11788 -0.027,1.5893 -0.37707,0.7138 -1.01005,1.1044 -1.84507,1.1044 -0.53871,0 -1.05049,-0.16165 -1.31987,-0.28287 -0.14813,0.1347 -0.41751,0.35018 -0.60607,0.4849 0.57916,0.26934 1.17175,0.41751 1.73739,0.41751 1.29291,0 2.24914,-0.71384 2.61278,-1.42765 0.39055,-0.78119 0.3636,-2.12802 -0.64646,-3.27281 z m -6.84169,1.89899 c 0.0135,0.40407 0.35016,0.72728 0.75419,0.72728 h 0.027 c 0.41751,-0.0135 0.74072,-0.36364 0.72724,-0.78115 -0.0135,-0.40407 -0.35016,-0.72728 -0.75419,-0.72728 h -0.0269 c -0.027,0 -0.0674,0 -0.0943,0.0135 -0.5522,-0.91584 -0.78115,-1.91246 -0.70033,-2.98994 0.0538,-0.8081 0.32321,-1.50847 0.79458,-2.08763 0.39056,-0.49833 1.14475,-0.74075 1.65656,-0.75419 1.42757,-0.027 2.0336,1.75086 2.07403,2.4647 0.17507,0.0404 0.47137,0.13469 0.67341,0.20203 -0.16164,-2.18184 -1.50843,-3.31319 -2.8013,-3.31319 -1.21214,0 -2.32997,0.87544 -2.77444,2.16841 -0.6195,1.72394 -0.21547,3.38054 0.53873,4.68697 -0.0673,0.0943 -0.10773,0.24243 -0.0943,0.3906 z"
       fill="#764abc"
       id="path5706-8"
       style="fill:#ffffff;fill-opacity:1;stroke-width:0.0413415" /></g><style
     type="text/css"
     id="style56646">.st0{fill:#0acf83}.st1{fill:#a259ff}.st2{fill:#f24e1e}.st3{fill:#ff7262}.st4{fill:#1abcfe}</style></svg>
