<?xml version="1.0" encoding="UTF-8" standalone="no"?>
<!-- Created with Inkscape (http://www.inkscape.org/) -->

<svg
   width="11.90625mm"
   height="11.878143mm"
   viewBox="0 0 11.90625 11.878143"
   version="1.1"
   id="svg5"
   xml:space="preserve"
   inkscape:version="1.2.1 (9c6d41e410, 2022-07-14)"
   sodipodi:docname="Plantilla.svg"
   xmlns:inkscape="http://www.inkscape.org/namespaces/inkscape"
   xmlns:sodipodi="http://sodipodi.sourceforge.net/DTD/sodipodi-0.dtd"
   xmlns:xlink="http://www.w3.org/1999/xlink"
   xmlns="http://www.w3.org/2000/svg"
   xmlns:svg="http://www.w3.org/2000/svg"><sodipodi:namedview
     id="namedview7"
     pagecolor="#ffffff"
     bordercolor="#000000"
     borderopacity="0.25"
     inkscape:showpageshadow="2"
     inkscape:pageopacity="0.0"
     inkscape:pagecheckerboard="0"
     inkscape:deskcolor="#d1d1d1"
     inkscape:document-units="mm"
     showgrid="false"
     inkscape:zoom="0.21859623"
     inkscape:cx="2721.9134"
     inkscape:cy="1967.0971"
     inkscape:window-width="1920"
     inkscape:window-height="1017"
     inkscape:window-x="-8"
     inkscape:window-y="-8"
     inkscape:window-maximized="1"
     inkscape:current-layer="layer1"
     showguides="false" /><defs
     id="defs2"><linearGradient
       inkscape:collect="always"
       id="linearGradient10953"><stop
         style="stop-color:#fffefb;stop-opacity:1;"
         offset="0"
         id="stop10949" /><stop
         style="stop-color:#deddda;stop-opacity:0;"
         offset="1"
         id="stop10951" /></linearGradient><linearGradient
       inkscape:collect="always"
       xlink:href="#linearGradient10953"
       id="linearGradient22635"
       gradientUnits="userSpaceOnUse"
       x1="350.58063"
       y1="167.56787"
       x2="858.58063"
       y2="167.56787"
       gradientTransform="matrix(1.3175067,0,0,1.3175067,-232.45969,-271.48495)" /><style
       id="style6405">.a,.c{fill:#c21325;}.a,.b{stroke:#fff;stroke-width:20px;}.b{fill:none;}</style></defs><g
     inkscape:label="Capa 1"
     inkscape:groupmode="layer"
     id="layer1"
     transform="translate(-674.0472,398.73095)"><path
       d="m 681.54404,-395.35974 1.59406,1.63441 -0.40356,0.7365 -2.77446,3.47061 -2.77447,-3.3899 -0.40356,-0.81721 1.59406,-1.63441 z m -0.51412,-2.54789 -0.59706,0.78937 c 2.86984,0.28082 4.59267,3.20811 3.68446,5.77604 l 0.46219,0.91921 0.91842,-0.0695 c 1.51001,-3.58741 -0.886,-7.83546 -4.94694,-8.21167 z m -6.57377,7.27123 c -1.53764,-3.91549 1.45509,-8.23495 5.72845,-8.09105 l 0.48127,0.80047 -0.59587,0.78778 c -3.13174,-0.056 -5.29964,3.16535 -4.08421,6.04018 l -0.99461,-0.26094 z m 10.89953,0.45753 -0.95514,0.0723 -0.4341,-0.86337 c -1.25828,2.90408 -5.82729,3.77143 -7.81134,0.2276 l -1.0427,-0.27357 -0.51861,0.70135 c 2.43022,4.97462 8.87329,4.20022 10.76189,0.13571 z"
       id="path5942-6"
       style="fill:#f6f5f4;fill-opacity:1;stroke-width:0.0232543" /></g><style
     type="text/css"
     id="style56646">.st0{fill:#0acf83}.st1{fill:#a259ff}.st2{fill:#f24e1e}.st3{fill:#ff7262}.st4{fill:#1abcfe}</style></svg>
