<?xml version="1.0" encoding="UTF-8" standalone="no"?>
<!-- Created with Inkscape (http://www.inkscape.org/) -->

<svg
   width="10.125244mm"
   height="11.90625mm"
   viewBox="0 0 10.125244 11.90625"
   version="1.1"
   id="svg5"
   xml:space="preserve"
   inkscape:version="1.2.1 (9c6d41e410, 2022-07-14)"
   sodipodi:docname="Plantilla.svg"
   xmlns:inkscape="http://www.inkscape.org/namespaces/inkscape"
   xmlns:sodipodi="http://sodipodi.sourceforge.net/DTD/sodipodi-0.dtd"
   xmlns:xlink="http://www.w3.org/1999/xlink"
   xmlns="http://www.w3.org/2000/svg"
   xmlns:svg="http://www.w3.org/2000/svg"><sodipodi:namedview
     id="namedview7"
     pagecolor="#ffffff"
     bordercolor="#000000"
     borderopacity="0.25"
     inkscape:showpageshadow="2"
     inkscape:pageopacity="0.0"
     inkscape:pagecheckerboard="0"
     inkscape:deskcolor="#d1d1d1"
     inkscape:document-units="mm"
     showgrid="false"
     inkscape:zoom="0.21859623"
     inkscape:cx="2721.9134"
     inkscape:cy="1967.0971"
     inkscape:window-width="1920"
     inkscape:window-height="1017"
     inkscape:window-x="-8"
     inkscape:window-y="-8"
     inkscape:window-maximized="1"
     inkscape:current-layer="layer1"
     showguides="false" /><defs
     id="defs2"><linearGradient
       inkscape:collect="always"
       id="linearGradient10953"><stop
         style="stop-color:#fffefb;stop-opacity:1;"
         offset="0"
         id="stop10949" /><stop
         style="stop-color:#deddda;stop-opacity:0;"
         offset="1"
         id="stop10951" /></linearGradient><linearGradient
       inkscape:collect="always"
       xlink:href="#linearGradient10953"
       id="linearGradient22635"
       gradientUnits="userSpaceOnUse"
       x1="350.58063"
       y1="167.56787"
       x2="858.58063"
       y2="167.56787"
       gradientTransform="matrix(1.3175067,0,0,1.3175067,-232.45969,-271.48495)" /><style
       id="style6405">.a,.c{fill:#c21325;}.a,.b{stroke:#fff;stroke-width:20px;}.b{fill:none;}</style></defs><g
     inkscape:label="Capa 1"
     inkscape:groupmode="layer"
     id="layer1"
     transform="translate(-628.55141,398.74501)"><path
       id="path6764-6"
       d="m 633.64391,-398.745 c -2.15797,1.1e-4 -3.93825,1.61264 -4.20485,3.69815 h 8.40995 c -0.26665,-2.08551 -2.04686,-3.69804 -4.20487,-3.69815 z m -4.03347,3.94441 c -0.41909,0 -0.76205,0.34297 -0.76205,0.76204 v 0.38301 c -0.17743,0.10878 -0.29696,0.30396 -0.29696,0.52625 v 1.02458 c 0,0.22228 0.11957,0.4176 0.29696,0.52648 v 0.39742 c 0,0.41908 0.34296,0.76205 0.76205,0.76205 h 8.00741 c 0.41917,0 0.76204,-0.34297 0.76204,-0.76205 v -0.39742 c 0.17752,-0.1089 0.29673,-0.3042 0.29673,-0.52648 v -1.02458 c 0,-0.22229 -0.11921,-0.41749 -0.29673,-0.52625 v -0.38301 c 0,-0.41907 -0.34287,-0.76204 -0.76204,-0.76204 z m 0.72948,1.56061 h 6.54845 c 0.30916,0 0.56205,0.25299 0.56205,0.56229 0,0.30928 -0.25289,0.56228 -0.56205,0.56228 h -6.54845 c -0.30928,0 -0.56228,-0.253 -0.56228,-0.56228 0,-0.3093 0.25303,-0.56229 0.56228,-0.56229 z m -0.70367,2.97539 v 1.62572 c 0,0.99009 0.81007,1.80012 1.80012,1.80012 h 4.43577 c 0.99017,0 1.80013,-0.81007 1.80013,-1.80012 v -1.62572 h -0.99018 v 1.62107 c 0,0.4455 -0.36467,0.81018 -0.81018,0.81018 h -0.4409 v -0.002 c -0.0965,0 -0.18161,-0.0453 -0.23835,-0.11465 h -0.001 l -0.52719,-0.67321 -9e-4,4.5e-4 c -0.0564,-0.073 -0.14347,-0.12095 -0.24253,-0.12162 -9e-4,0 -10e-4,-2.4e-4 -0.002,-2.4e-4 -4.5e-4,0 -10e-4,2.4e-4 -0.002,2.4e-4 h -1.52619 c -4.5e-4,0 -10e-4,-2.4e-4 -0.002,-2.4e-4 -9e-4,0 -0.001,2.4e-4 -0.002,2.4e-4 -0.0918,4.5e-4 -0.17336,0.042 -0.22976,0.10575 l -9e-4,-4.5e-4 -0.53949,0.68902 h -9e-4 c -0.0568,0.0693 -0.14182,0.11465 -0.23837,0.11465 v 0.002 h -0.44138 c -0.4455,0 -0.81018,-0.36468 -0.81018,-0.81018 v -1.62107 z m 2.47845,0.39463 -0.40764,0.47183 0.38439,0.33208 0.2558,-0.29603 h 2.50333 l 0.25556,0.29603 0.38463,-0.33208 -0.40764,-0.47183 z"
       style="fill:#f6f5f4;fill-opacity:1;stroke-width:0.0395513" /></g><style
     type="text/css"
     id="style56646">.st0{fill:#0acf83}.st1{fill:#a259ff}.st2{fill:#f24e1e}.st3{fill:#ff7262}.st4{fill:#1abcfe}</style></svg>
