<?xml version="1.0" encoding="UTF-8" standalone="no"?>
<!-- Created with Inkscape (http://www.inkscape.org/) -->

<svg
   width="11.869019mm"
   height="11.806946mm"
   viewBox="0 0 11.869019 11.806946"
   version="1.1"
   id="svg5"
   xml:space="preserve"
   inkscape:version="1.2.1 (9c6d41e410, 2022-07-14)"
   sodipodi:docname="Plantilla.svg"
   xmlns:inkscape="http://www.inkscape.org/namespaces/inkscape"
   xmlns:sodipodi="http://sodipodi.sourceforge.net/DTD/sodipodi-0.dtd"
   xmlns:xlink="http://www.w3.org/1999/xlink"
   xmlns="http://www.w3.org/2000/svg"
   xmlns:svg="http://www.w3.org/2000/svg"><sodipodi:namedview
     id="namedview7"
     pagecolor="#ffffff"
     bordercolor="#000000"
     borderopacity="0.25"
     inkscape:showpageshadow="2"
     inkscape:pageopacity="0.0"
     inkscape:pagecheckerboard="0"
     inkscape:deskcolor="#d1d1d1"
     inkscape:document-units="mm"
     showgrid="false"
     inkscape:zoom="0.21859623"
     inkscape:cx="2721.9134"
     inkscape:cy="1967.0971"
     inkscape:window-width="1920"
     inkscape:window-height="1017"
     inkscape:window-x="-8"
     inkscape:window-y="-8"
     inkscape:window-maximized="1"
     inkscape:current-layer="layer1"
     showguides="false" /><defs
     id="defs2"><linearGradient
       inkscape:collect="always"
       id="linearGradient10953"><stop
         style="stop-color:#fffefb;stop-opacity:1;"
         offset="0"
         id="stop10949" /><stop
         style="stop-color:#deddda;stop-opacity:0;"
         offset="1"
         id="stop10951" /></linearGradient><linearGradient
       inkscape:collect="always"
       xlink:href="#linearGradient10953"
       id="linearGradient22635"
       gradientUnits="userSpaceOnUse"
       x1="350.58063"
       y1="167.56787"
       x2="858.58063"
       y2="167.56787"
       gradientTransform="matrix(1.3175067,0,0,1.3175067,-232.45969,-271.48495)" /><style
       id="style6405">.a,.c{fill:#c21325;}.a,.b{stroke:#fff;stroke-width:20px;}.b{fill:none;}</style></defs><g
     inkscape:label="Capa 1"
     inkscape:groupmode="layer"
     id="layer1"
     transform="translate(-534.90675,428.90395)"><path
       id="path55291-0"
       style="fill:#f6f5f4;fill-opacity:1;stroke:none;stroke-width:0.434144;stroke-linecap:round;stroke-linejoin:miter;stroke-dasharray:none;paint-order:markers fill stroke"
       d="m 543.62181,-428.90352 c -0.0329,-10e-4 -0.0659,-4.2e-4 -0.0985,0.003 -0.0326,0.003 -0.0651,0.008 -0.0971,0.0156 -0.032,0.007 -0.0634,0.0165 -0.0942,0.0281 -0.0308,0.0115 -0.0609,0.0252 -0.0901,0.0409 -0.0292,0.0157 -0.0574,0.0336 -0.0846,0.0533 -0.0155,0.0113 -0.0307,0.0231 -0.0455,0.0357 -0.0148,0.0126 -0.029,0.0261 -0.0429,0.04 l -4.67756,4.26728 -2.03745,-1.54663 c -0.0237,-0.018 -0.0484,-0.0335 -0.0742,-0.0466 -0.0257,-0.0131 -0.0525,-0.0238 -0.0797,-0.0322 -0.0271,-0.008 -0.0547,-0.0141 -0.0826,-0.0177 -0.0279,-0.003 -0.056,-0.004 -0.084,-0.003 -0.028,10e-4 -0.056,0.004 -0.0834,0.0107 -0.0275,0.006 -0.0546,0.0145 -0.0808,0.0252 -0.0263,0.0107 -0.052,0.0238 -0.0765,0.0391 -0.0245,0.0154 -0.0478,0.033 -0.0698,0.053 l -0.65336,0.59426 c -0.0135,0.0122 -0.0262,0.0252 -0.038,0.0385 -0.0118,0.0133 -0.0229,0.0269 -0.033,0.0411 -0.0101,0.0142 -0.0191,0.0291 -0.0275,0.044 -0.008,0.015 -0.0161,0.0302 -0.0229,0.0457 -0.007,0.0156 -0.0126,0.0315 -0.0177,0.0475 -0.005,0.0161 -0.009,0.0325 -0.0127,0.0489 -0.003,0.0164 -0.006,0.0329 -0.008,0.0496 -0.002,0.0167 -0.003,0.0334 -0.003,0.0501 -10e-6,0.0167 10e-4,0.0335 0.003,0.0501 0.002,0.0167 0.004,0.0331 0.008,0.0496 0.003,0.0164 0.007,0.0329 0.0125,0.0489 0.005,0.0161 0.0109,0.0319 0.0177,0.0475 0.007,0.0156 0.0145,0.0311 0.0229,0.0461 0.008,0.015 0.0174,0.0295 0.0275,0.0437 0.0101,0.0142 0.021,0.0282 0.0328,0.0414 0.0118,0.0133 0.0245,0.026 0.038,0.0382 l 1.76683,1.61212 -1.76683,1.6121 c -0.0135,0.0123 -0.0262,0.0249 -0.038,0.0382 -0.0118,0.0133 -0.0226,0.0272 -0.0328,0.0414 -0.0101,0.0142 -0.0191,0.0288 -0.0275,0.0437 -0.008,0.015 -0.0161,0.0304 -0.0229,0.0461 -0.007,0.0156 -0.0123,0.0314 -0.0174,0.0475 -0.005,0.0161 -0.009,0.0325 -0.0127,0.0489 -0.003,0.0164 -0.006,0.0329 -0.008,0.0496 -0.002,0.0167 -0.003,0.0334 -0.003,0.0501 10e-6,0.0167 10e-4,0.0335 0.003,0.0501 0.002,0.0166 0.004,0.0334 0.008,0.0498 0.003,0.0164 0.007,0.0326 0.0124,0.0487 0.005,0.0161 0.0109,0.0319 0.0177,0.0475 0.007,0.0156 0.0145,0.0311 0.0229,0.0461 0.008,0.015 0.0177,0.0295 0.0278,0.0437 0.0101,0.0142 0.021,0.0279 0.0327,0.0412 0.0118,0.0133 0.0245,0.0263 0.038,0.0385 l 0.65337,0.59426 c 0.022,0.02 0.0454,0.038 0.0698,0.0533 0.0245,0.0154 0.0502,0.0284 0.0765,0.0391 0.0263,0.0107 0.0534,0.019 0.0808,0.0249 0.0275,0.006 0.0554,0.01 0.0834,0.011 0.028,10e-4 0.0561,4e-5 0.084,-0.003 0.0279,-0.003 0.0554,-0.009 0.0826,-0.0177 0.0271,-0.008 0.0539,-0.0193 0.0797,-0.0325 0.0257,-0.0131 0.0505,-0.0287 0.0742,-0.0466 l 2.03745,-1.54663 4.67755,4.26757 c 0.0185,0.0185 0.038,0.0359 0.058,0.0521 0.02,0.0162 0.0407,0.031 0.062,0.0449 0.0213,0.0138 0.0431,0.0267 0.0655,0.0382 0.0224,0.0115 0.0456,0.0219 0.069,0.031 0.0234,0.009 0.0472,0.0168 0.0713,0.0235 0.0241,0.007 0.0484,0.012 0.073,0.0162 0.0246,0.004 0.0492,0.007 0.0742,0.009 0.0249,0.002 0.05,0.002 0.075,10e-4 0.0251,-10e-4 0.0503,-0.003 0.0753,-0.006 0.025,-0.003 0.0497,-0.008 0.0745,-0.0142 0.0247,-0.006 0.0493,-0.0134 0.0736,-0.022 0.0242,-0.009 0.0483,-0.0188 0.0719,-0.0301 l 2.44338,-1.17548 c 0.0321,-0.0155 0.0625,-0.0332 0.0915,-0.0528 0.029,-0.0195 0.0566,-0.0406 0.0823,-0.0637 0.0257,-0.0231 0.0497,-0.0479 0.0719,-0.0742 0.0221,-0.0263 0.0423,-0.0542 0.0606,-0.0832 0.0182,-0.029 0.0343,-0.0594 0.0484,-0.0907 0.0141,-0.0313 0.026,-0.0636 0.0357,-0.0968 0.01,-0.0332 0.017,-0.0671 0.022,-0.1017 0.005,-0.0346 0.008,-0.0701 0.008,-0.10576 v -7.97189 c 0,-0.0357 -0.003,-0.0708 -0.008,-0.10546 -0.005,-0.0346 -0.0123,-0.0688 -0.022,-0.10199 -0.01,-0.0332 -0.0216,-0.0655 -0.0357,-0.0968 -0.0141,-0.0313 -0.0302,-0.0617 -0.0484,-0.0907 -0.0182,-0.029 -0.0385,-0.0566 -0.0606,-0.0829 -0.0221,-0.0263 -0.0461,-0.0511 -0.0719,-0.0742 -0.0257,-0.0231 -0.0533,-0.0445 -0.0823,-0.064 -0.029,-0.0195 -0.0595,-0.037 -0.0915,-0.0524 l -2.44338,-1.17576 c -0.031,-0.0149 -0.0627,-0.0274 -0.0947,-0.0377 -0.032,-0.0103 -0.0644,-0.0183 -0.0971,-0.024 -0.0327,-0.006 -0.0656,-0.009 -0.0985,-0.0107 z m 0.18832,3.20858 v 5.38829 l -3.54901,-2.69429 z" /></g><style
     type="text/css"
     id="style56646">.st0{fill:#0acf83}.st1{fill:#a259ff}.st2{fill:#f24e1e}.st3{fill:#ff7262}.st4{fill:#1abcfe}</style></svg>
