<?xml version="1.0" encoding="UTF-8" standalone="no"?>
<!-- Created with Inkscape (http://www.inkscape.org/) -->

<svg
   width="257.01706"
   height="72.775192"
   viewBox="0 0 68.002427 19.255103"
   version="1.1"
   id="svg5"
   inkscape:version="1.2.1 (9c6d41e410, 2022-07-14)"
   sodipodi:docname="Logo.svg"
   xmlns:inkscape="http://www.inkscape.org/namespaces/inkscape"
   xmlns:sodipodi="http://sodipodi.sourceforge.net/DTD/sodipodi-0.dtd"
   xmlns="http://www.w3.org/2000/svg"
   xmlns:svg="http://www.w3.org/2000/svg">
  <sodipodi:namedview
     id="namedview7"
     pagecolor="#ffffff"
     bordercolor="#000000"
     borderopacity="0.25"
     inkscape:showpageshadow="2"
     inkscape:pageopacity="0.0"
     inkscape:pagecheckerboard="0"
     inkscape:deskcolor="#d1d1d1"
     inkscape:document-units="mm"
     showgrid="false"
     inkscape:zoom="1.4912879"
     inkscape:cx="225.30861"
     inkscape:cy="164.28753"
     inkscape:window-width="1920"
     inkscape:window-height="1017"
     inkscape:window-x="-8"
     inkscape:window-y="-8"
     inkscape:window-maximized="1"
     inkscape:current-layer="layer1" />
  <defs
     id="defs2" />
  <g
     inkscape:label="Capa 1"
     inkscape:groupmode="layer"
     id="layer1"
     transform="translate(-5.6862839,-30.059951)">
    <g
       aria-label="BuddGet"
       id="text233"
       style="font-weight:bold;font-size:23.0049px;font-family:Arial;-inkscape-font-specification:'Arial Bold';text-align:center;text-anchor:middle;fill:#434b54;stroke-width:4.65791;stroke-linecap:round;stroke-linejoin:round;paint-order:markers fill stroke">
      <path
         d="m 17.740852,34.407877 c 0,-1.311279 -1.978422,-4.347926 -4.693,-4.347926 -2.576549,0 -6.0042789,1.104235 -7.0394994,3.312706 -0.1150245,0.253054 -0.1610343,0.506107 -0.1610343,0.759161 0,1.196255 1.0812303,2.369505 1.4493087,2.369505 0.3910833,0 0.5521176,-0.253054 0.5521176,-0.460098 0,-0.138029 -0.069015,-0.230049 -0.1840392,-0.230049 -0.230049,0 -0.3220686,-0.04601 -0.3220686,-0.161034 0,-0.805172 1.9324116,-2.093446 4.1638872,-2.921623 -0.943201,1.35729 -5.82024,8.396789 -5.82024,9.892107 0,1.150245 0.7821666,1.610343 1.5413283,1.771378 0.1150245,0.529112 1.4263038,1.518323 2.8756127,1.518323 2.277485,0 4.785019,-1.679358 4.969058,-3.818813 0,-0.115025 0.023,-0.230049 0.023,-0.368079 0,-1.426303 -0.759162,-2.438519 -1.656353,-2.783593 2.3465,-0.667142 4.301917,-2.507534 4.301917,-4.531965 z m -9.29398,9.547034 c -0.2530539,0 -0.4140882,-0.09202 -0.5291127,-0.253054 0,-0.920196 0.8971911,-2.39251 1.5413283,-3.588765 0.5981274,-0.161034 1.2882744,-0.253054 1.8864014,-0.253054 0.851182,0 1.541329,0.207045 1.725368,0.736157 0.04601,0.161035 0.06902,0.299064 0.06902,0.460098 0,1.794382 -3.4047256,2.898618 -4.693,2.898618 z m 2.277485,-6.027284 c 0.897191,-1.449309 2.001426,-3.059652 2.530539,-3.818814 0.06902,-0.115024 0.09202,-0.207044 0.09202,-0.322068 0,-0.529113 -0.736157,-1.08123 -1.242265,-1.26527 0.759162,-0.230049 1.518323,-0.391083 2.162461,-0.391083 0.782166,0 1.426303,0.230049 1.748372,0.759162 0.06902,0.115024 0.115025,0.276059 0.115025,0.460098 0,1.334284 -1.909407,4.071867 -5.406152,4.577975 z"
         style="font-weight:normal;font-family:Bhineka;-inkscape-font-specification:Bhineka"
         id="path945" />
      <path
         d="m 27.517914,38.2727 c -0.207044,0.414089 -2.622558,3.956843 -3.634774,3.956843 -0.161034,0 -0.230049,-0.115024 -0.230049,-0.299064 0,-1.012215 1.955417,-4.301916 3.358716,-5.912259 0,-0.575122 -1.150245,-1.104235 -1.863397,-1.104235 -0.207044,0 -0.345074,0.04601 -0.460098,0.115024 -0.460098,0.368079 -1.725368,2.39251 -2.599554,4.140882 -0.943201,1.35729 -2.3465,3.059652 -3.289701,3.059652 -0.161034,0 -0.230049,-0.115024 -0.230049,-0.322068 0,-1.035221 1.840392,-4.301917 3.220686,-5.889255 0,-0.575122 -1.17325,-1.104235 -1.886402,-1.104235 -0.184039,0 -0.345073,0.04601 -0.437093,0.115024 -0.759161,0.575123 -3.33571,5.291127 -3.33571,6.579402 0,1.472313 1.564333,3.128666 2.944627,3.128666 0.736157,0 1.587338,-1.058225 2.30049,-2.277485 0.437093,1.196255 1.679358,2.277485 2.783593,2.277485 1.564333,0 3.450735,-4.623985 3.611769,-5.084083 0.04601,-0.115024 0.06902,-0.276058 0.06902,-0.437093 0,-0.460098 -0.138029,-0.98921 -0.276059,-0.98921 z"
         style="font-weight:normal;font-family:Bhineka;-inkscape-font-specification:Bhineka"
         id="path947" />
      <path
         d="m 37.133951,38.594769 c -0.207044,0.253054 -2.277485,3.42773 -3.496745,3.42773 -0.09202,0 -0.138029,-0.06902 -0.138029,-0.184039 0,-1.196255 4.370931,-8.097725 5.889254,-9.846097 0,-0.529113 -0.874186,-1.012216 -1.633348,-1.012216 -0.276058,0 -0.529112,0.04601 -0.713151,0.207044 -0.299064,0.276059 -1.472314,2.001426 -2.944628,4.439946 -0.460098,-0.483103 -1.426303,-1.334284 -2.346499,-1.334284 -2.553544,0 -5.636201,4.808024 -5.636201,7.108514 0,1.794382 1.909407,3.243691 2.668568,3.243691 0.644138,0 1.541329,-1.104236 2.43852,-2.43852 0.276059,1.242265 1.288274,2.323495 2.507534,2.323495 1.380294,0 3.42773,-4.393936 3.634774,-4.854034 0.06902,-0.115024 0.09202,-0.276059 0.09202,-0.437093 0,-0.345073 -0.13803,-0.690147 -0.253054,-0.690147 -0.02301,0 -0.04601,0 -0.06902,0.04601 z m -8.465803,3.243691 c -0.09202,-0.06902 -0.138029,-0.207044 -0.138029,-0.368079 0,-1.403298 2.898617,-5.613195 4.186891,-5.613195 0.368079,0 0.667142,0.368078 0.874187,0.667142 -0.09202,0.138029 -0.161035,0.276059 -0.230049,0.391083 -0.966206,1.357289 -3.61177,4.969059 -4.531966,4.969059 -0.06901,0 -0.115024,-0.023 -0.161034,-0.04601 z"
         style="font-weight:normal;font-family:Bhineka;-inkscape-font-specification:Bhineka"
         id="path949" />
      <path
         d="m 46.888023,38.594769 c -0.207044,0.253054 -2.277485,3.42773 -3.496744,3.42773 -0.09202,0 -0.13803,-0.06902 -0.13803,-0.184039 0,-1.196255 4.370931,-8.097725 5.889255,-9.846097 0,-0.529113 -0.874187,-1.012216 -1.633348,-1.012216 -0.276059,0 -0.529113,0.04601 -0.713152,0.207044 -0.299064,0.276059 -1.472314,2.001426 -2.944627,4.439946 -0.460098,-0.483103 -1.426304,-1.334284 -2.3465,-1.334284 -2.553544,0 -5.636201,4.808024 -5.636201,7.108514 0,1.794382 1.909407,3.243691 2.668569,3.243691 0.644137,0 1.541328,-1.104236 2.438519,-2.43852 0.276059,1.242265 1.288274,2.323495 2.507534,2.323495 1.380294,0 3.42773,-4.393936 3.634774,-4.854034 0.06902,-0.115024 0.09202,-0.276059 0.09202,-0.437093 0,-0.345073 -0.138029,-0.690147 -0.253054,-0.690147 -0.023,0 -0.04601,0 -0.06902,0.04601 z M 38.42222,41.83846 c -0.09202,-0.06902 -0.138029,-0.207044 -0.138029,-0.368079 0,-1.403298 2.898617,-5.613195 4.186892,-5.613195 0.368078,0 0.667142,0.368078 0.874186,0.667142 -0.09202,0.138029 -0.161035,0.276059 -0.230049,0.391083 -0.966206,1.357289 -3.61177,4.969059 -4.531966,4.969059 -0.06901,0 -0.115024,-0.023 -0.161034,-0.04601 z"
         style="font-weight:normal;font-family:Bhineka;-inkscape-font-specification:Bhineka"
         id="path951" />
      <path
         d="m 45.599744,40.6192 c 0,2.001426 1.886401,4.025858 3.749798,4.025858 0.575123,0 2.070441,-0.966206 3.082657,-2.047436 -1.311279,2.139455 -2.921622,4.209896 -4.60098,4.209896 -0.805172,0 -0.437093,-0.713152 -1.150245,-0.713152 -0.161034,0 -0.230049,0.13803 -0.230049,0.368079 0,0.851181 1.104235,2.852607 3.197681,2.852607 2.921622,0 5.314132,-8.649842 6.80945,-10.145161 0,0 0.115025,-0.184039 0.115025,-0.391083 0,-0.414088 -0.276059,-1.012215 -0.782167,-1.012215 -0.621132,0 -1.08123,0.759161 -1.357289,1.173249 -1.932411,2.277486 -4.255906,3.381721 -5.383146,3.381721 -0.437094,0 -0.851182,-0.460098 -0.851182,-1.058226 0,-2.783593 5.061078,-8.810876 6.94748,-8.810876 0.115025,0 0.230049,0.023 0.322069,0.06901 0.138029,0.06902 0.184039,0.207044 0.184039,0.414089 0,1.058225 -1.679358,3.703788 -2.415515,4.877038 0,0.02301 -0.023,0.02301 -0.023,0.04601 0,0.023 0.04601,0.023 0.09202,0.023 0.575123,0 4.278911,-1.978421 4.278911,-3.772804 0,-1.840392 -1.909406,-3.680784 -3.634774,-3.680784 -3.404725,0 -8.350778,7.361568 -8.350778,10.191171 z"
         style="font-weight:normal;font-family:Bhineka;-inkscape-font-specification:Bhineka"
         id="path953" />
      <path
         d="m 65.706013,38.640779 c -1.104235,1.863397 -3.151671,3.726794 -5.153097,3.726794 -1.035221,0 -1.449309,-0.529113 -1.449309,-1.288275 0,-0.207044 0.04601,-0.437093 0.09202,-0.667142 0.345073,0.184039 0.897191,0.345074 1.656352,0.345074 1.403299,0 4.002853,-1.656353 4.002853,-3.542755 0,-1.196255 -1.472314,-2.760588 -3.289701,-2.760588 -2.11645,0 -4.992063,3.51975 -4.992063,6.556396 0,2.116451 1.08123,3.680784 3.542755,3.680784 3.059651,0 5.107087,-3.105661 5.866249,-5.015068 0.06901,-0.161034 0.09202,-0.368078 0.09202,-0.552117 0,-0.299064 -0.06901,-0.575123 -0.207044,-0.575123 -0.04601,0 -0.115025,0.02301 -0.161035,0.09202 z M 62.853406,36.01822 c 0.09202,0.04601 0.115024,0.161034 0.115024,0.299064 0,0.782166 -1.311279,2.714578 -3.496745,3.174676 0.690147,-1.702363 2.231476,-3.542755 3.105662,-3.542755 0.09202,0 0.184039,0.023 0.276059,0.06902 z"
         style="font-weight:normal;font-family:Bhineka;-inkscape-font-specification:Bhineka"
         id="path955" />
      <path
         d="m 72.607488,32.820539 c -0.253054,-0.023 -0.529113,-0.04601 -0.851181,-0.06901 0.299063,-0.437093 0.667142,-0.874186 0.851181,-1.012215 0.04601,-0.04601 0.04601,-0.09202 0.04601,-0.13803 0,-0.345073 -1.12724,-0.759161 -1.840392,-0.759161 -0.207044,0 -0.322069,0 -0.483103,0.138029 -0.230049,0.184039 -0.782167,0.920196 -1.334284,1.748372 -0.805172,0.04601 -1.633348,0.13803 -2.39251,0.299064 -0.529113,0.115025 -0.989211,0.713152 -0.989211,1.104235 0,0.09202 0.02301,0.18404 0.09202,0.253054 0.759162,-0.138029 1.587338,-0.207044 2.39251,-0.276059 -1.725368,2.806598 -3.726794,6.556397 -3.726794,7.660632 0,1.472314 1.403299,2.875613 2.783593,2.875613 1.380294,0 3.818813,-4.255907 4.025857,-4.808024 0.023,-0.06902 0.023,-0.13803 0.023,-0.230049 0,-0.414089 -0.253054,-0.920196 -0.414088,-0.920196 -0.04601,0 -0.06902,0 -0.09202,0.04601 -0.322068,0.506108 -2.346499,3.542755 -3.726793,3.542755 -0.115025,0 -0.161035,-0.06902 -0.161035,-0.230049 0,-0.851181 2.30049,-5.199107 4.071868,-7.9827 1.150245,0.023 2.11645,0.115024 2.668568,0.276058 0.09202,-0.06901 0.138029,-0.161034 0.138029,-0.299063 0,-0.437093 -0.483103,-1.12724 -1.08123,-1.21926 z"
         style="font-weight:normal;font-family:Bhineka;-inkscape-font-specification:Bhineka"
         id="path957" />
    </g>
  </g>
</svg>
