<?xml version="1.0" encoding="UTF-8" standalone="no"?>
<!-- Created with Inkscape (http://www.inkscape.org/) -->

<svg
   width="208.75613mm"
   height="208.75618mm"
   viewBox="0 0 208.75613 208.75618"
   version="1.1"
   id="svg5"
   xml:space="preserve"
   sodipodi:docname="releveca.svg"
   inkscape:version="1.2.1 (9c6d41e410, 2022-07-14)"
   xmlns:inkscape="http://www.inkscape.org/namespaces/inkscape"
   xmlns:sodipodi="http://sodipodi.sourceforge.net/DTD/sodipodi-0.dtd"
   xmlns="http://www.w3.org/2000/svg"
   xmlns:svg="http://www.w3.org/2000/svg"><sodipodi:namedview
     id="namedview7"
     pagecolor="#ffffff"
     bordercolor="#000000"
     borderopacity="0.25"
     inkscape:showpageshadow="2"
     inkscape:pageopacity="0.0"
     inkscape:pagecheckerboard="0"
     inkscape:deskcolor="#d1d1d1"
     inkscape:document-units="mm"
     showgrid="false"
     inkscape:zoom="0.53041847"
     inkscape:cx="622.15028"
     inkscape:cy="492.06431"
     inkscape:window-width="1920"
     inkscape:window-height="1017"
     inkscape:window-x="-8"
     inkscape:window-y="-8"
     inkscape:window-maximized="1"
     inkscape:current-layer="svg5" /><defs
     id="defs2" /><g
     id="g758"
     transform="matrix(5.2147118,0,0,5.2147118,124.37552,865.89575)"><g
       id="g612"
       transform="matrix(1.4817455,0,0,1.4817455,-418.95876,-285.67248)"><g
         id="g194"
         transform="matrix(0.35277776,0,0,-0.35277778,283.64418,103.7366)"><path
           d="M 0,0 18.916,32.763 9.496,49.179 H -29.256 L -38.676,32.763 -19.76,0 Z"
           style="fill:#ed1c24;fill-opacity:1;fill-rule:nonzero;stroke:none"
           id="path196" /></g><g
         id="g198"
         transform="matrix(0.35277776,0,0,-0.35277778,280.15859,96.488642)"><path
           d="m 0,0 -10.393,-7.551 3.97,12.218 -10.393,7.551 H -3.97 L 0,24.436 3.97,12.218 H 16.816 L 6.423,4.667 10.393,-7.551 Z"
           style="fill:#ffffff;fill-opacity:1;fill-rule:nonzero;stroke:none"
           id="path200" /></g><g
         id="g202"
         transform="matrix(0.35277776,0,0,-0.35277778,341.90574,86.387274)" /><g
         id="g206"
         transform="matrix(0.35277776,0,0,-0.35277778,300.45192,103.7366)" /><g
         id="g210"
         transform="matrix(0.35277776,0,0,-0.35277778,367.49109,96.52325)" /></g></g></svg>
