<?xml version="1.0" encoding="UTF-8" standalone="no"?>
<!-- Created with Inkscape (http://www.inkscape.org/) -->

<svg
   version="1.1"
   id="svg1342"
   width="800.76001"
   height="572.4267"
   viewBox="0 0 800.76001 572.4267"
   sodipodi:docname="stock-screener.svg"
   inkscape:version="1.2.1 (9c6d41e410, 2022-07-14)"
   xmlns:inkscape="http://www.inkscape.org/namespaces/inkscape"
   xmlns:sodipodi="http://sodipodi.sourceforge.net/DTD/sodipodi-0.dtd"
   xmlns="http://www.w3.org/2000/svg"
   xmlns:svg="http://www.w3.org/2000/svg">
  <defs
     id="defs1346">
    <clipPath
       clipPathUnits="userSpaceOnUse"
       id="clipPath1358">
      <path
         d="M 0,429.32 H 600.57 V 0 H 0 Z"
         id="path1356" />
    </clipPath>
  </defs>
  <sodipodi:namedview
     id="namedview1344"
     pagecolor="#ffffff"
     bordercolor="#000000"
     borderopacity="0.25"
     inkscape:showpageshadow="2"
     inkscape:pageopacity="0.0"
     inkscape:pagecheckerboard="0"
     inkscape:deskcolor="#d1d1d1"
     showgrid="false"
     inkscape:zoom="0.51696434"
     inkscape:cx="1002.0033"
     inkscape:cy="5.8031082"
     inkscape:window-width="1920"
     inkscape:window-height="1017"
     inkscape:window-x="-8"
     inkscape:window-y="-8"
     inkscape:window-maximized="1"
     inkscape:current-layer="g1350">
    <inkscape:page
       x="0"
       y="0"
       id="page1348"
       width="800.76001"
       height="572.4267" />
  </sodipodi:namedview>
  <g
     id="g1350"
     inkscape:groupmode="layer"
     inkscape:label="Page 1"
     transform="matrix(1.3333333,0,0,-1.3333333,0,572.42667)">
    <g
       id="g1611"
       transform="matrix(1.2343125,0,0,1.2343125,-70.352854,-73.96657)">
      <g
         id="g1352">
        <g
           id="g1354"
           clip-path="url(#clipPath1358)">
          <g
             id="g1360"
             transform="translate(483.35,181.66)">
            <path
               d="m 0,0 c -3.026,-0.045 -5.516,2.372 -5.561,5.398 0,0.064 0,0.128 0.001,0.192 V 58.8 c -0.017,1.493 0.558,2.931 1.6,4 1.034,1.102 2.489,1.71 4,1.67 3.144,-0.011 5.686,-2.566 5.68,-5.71 v -5.34 c 5.767,7.78 12.237,11.67 19.41,11.67 h 0.61 c 1.469,0.04 2.887,-0.545 3.9,-1.61 1.03,-1.072 1.585,-2.514 1.54,-4 0.053,-1.455 -0.532,-2.861 -1.6,-3.85 -1.114,-1.009 -2.578,-1.544 -4.08,-1.49 h -0.62 c -3.842,0.07 -7.63,-0.916 -10.95,-2.85 -3.343,-1.989 -6.177,-4.728 -8.28,-8 V 5.56 C 5.69,4.049 5.082,2.594 3.98,1.56 2.913,0.532 1.481,-0.029 0,0 m -25.92,37.49 c -0.109,3.603 -1.198,7.109 -3.15,10.14 -1.698,2.587 -4.07,4.662 -6.86,6 -5.223,2.561 -11.337,2.561 -16.56,0 -2.778,-1.332 -5.132,-3.409 -6.8,-6 -1.914,-3.059 -2.977,-6.573 -3.08,-10.18 z M -41.74,-0.62 c -10.047,0 -17.893,2.877 -23.54,8.63 -5.647,5.753 -8.467,13.84 -8.46,24.26 -0.058,5.586 1.034,11.125 3.21,16.27 2.079,4.865 5.512,9.03 9.89,12 4.44,3.06 9.917,4.59 16.43,4.59 5.577,0.142 11.075,-1.345 15.82,-4.28 4.383,-2.781 7.897,-6.738 10.14,-11.42 2.327,-4.861 3.51,-10.191 3.46,-15.58 0.044,-1.488 -0.515,-2.93 -1.55,-4 -1.087,-1.104 -2.592,-1.693 -4.14,-1.62 h -41.89 c 0.667,-5.787 2.807,-10.297 6.42,-13.53 3.613,-3.233 8.68,-4.847 15.2,-4.84 3.06,-0.042 6.113,0.294 9.09,1 2.628,0.681 5.175,1.64 7.6,2.86 0.691,0.335 1.452,0.503 2.22,0.49 1.286,0.014 2.528,-0.473 3.46,-1.36 0.982,-0.886 1.526,-2.158 1.49,-3.48 0,-1.82 -1.08,-3.35 -3.22,-4.59 -6.509,-3.924 -14.038,-5.825 -21.63,-5.46 z M -134.02,0 c -3.037,-0.034 -5.527,2.402 -5.56,5.439 -10e-4,0.05 -10e-4,0.101 0,0.151 V 58.8 c -0.013,1.494 0.566,2.932 1.61,4 1.021,1.09 2.456,1.697 3.95,1.67 1.506,0.017 2.953,-0.587 4,-1.67 1.077,-1.051 1.68,-2.495 1.67,-4 v -5.09 c 2.918,3.288 6.345,6.087 10.15,8.29 3.94,2.146 8.375,3.215 12.86,3.1 4.165,0.105 8.269,-1.019 11.8,-3.23 3.338,-2.15 5.994,-5.206 7.66,-8.81 1.799,-3.845 2.708,-8.046 2.66,-12.29 V 5.52 c 0.035,-1.51 -0.572,-2.963 -1.67,-4 -1.064,-1.05 -2.505,-1.63 -4,-1.61 -3.037,-0.034 -5.527,2.402 -5.56,5.439 -10e-4,0.05 -10e-4,0.101 0,0.151 v 34 c 0,10.1 -4.53,15.147 -13.59,15.14 -3.91,0.071 -7.751,-1.03 -11.03,-3.16 -3.51,-2.391 -6.619,-5.324 -9.21,-8.69 V 5.55 c 0.035,-1.51 -0.572,-2.963 -1.67,-4 -1.091,-1.046 -2.56,-1.605 -4.07,-1.55 m -25.91,37.45 c -0.107,3.615 -1.192,7.133 -3.14,10.18 -1.7,2.585 -4.072,4.659 -6.86,6 -5.223,2.561 -11.337,2.561 -16.56,0 -2.78,-1.33 -5.135,-3.407 -6.8,-6 -1.912,-3.06 -2.978,-6.573 -3.09,-10.18 z m -15.82,-38.11 c -10.047,0 -17.893,2.877 -23.54,8.63 -5.647,5.753 -8.47,13.84 -8.47,24.26 -0.058,5.586 1.034,11.125 3.21,16.27 2.083,4.863 5.515,9.027 9.89,12 4.453,3.06 9.933,4.59 16.44,4.59 5.577,0.142 11.075,-1.345 15.82,-4.28 4.38,-2.782 7.891,-6.739 10.13,-11.42 2.331,-4.86 3.515,-10.19 3.46,-15.58 0.048,-1.487 -0.508,-2.929 -1.54,-4 -1.087,-1.104 -2.592,-1.693 -4.14,-1.62 h -41.9 c 0.667,-5.787 2.81,-10.297 6.43,-13.53 3.62,-3.233 8.687,-4.847 15.2,-4.84 3.056,-0.043 6.106,0.293 9.08,1 2.628,0.68 5.176,1.638 7.6,2.86 1.898,0.89 4.145,0.547 5.69,-0.87 0.979,-0.887 1.52,-2.159 1.48,-3.48 0,-1.82 -1.07,-3.35 -3.21,-4.59 -6.511,-3.921 -14.038,-5.821 -21.63,-5.46 z m -48.53,38.11 c -0.11,3.616 -1.199,7.134 -3.15,10.18 -1.7,2.585 -4.072,4.659 -6.86,6 -5.223,2.561 -11.337,2.561 -16.56,0 -2.78,-1.33 -5.135,-3.407 -6.8,-6 -1.912,-3.06 -2.979,-6.573 -3.09,-10.18 z M -240.1,-0.66 c -10.053,0 -17.9,2.877 -23.54,8.63 -5.64,5.753 -8.45,13.84 -8.43,24.26 -0.058,5.586 1.034,11.125 3.21,16.27 2.083,4.863 5.515,9.027 9.89,12 4.447,3.06 9.927,4.59 16.44,4.59 5.577,0.14 11.074,-1.347 15.82,-4.28 4.38,-2.782 7.891,-6.739 10.13,-11.42 2.331,-4.86 3.515,-10.19 3.46,-15.58 0.048,-1.487 -0.508,-2.929 -1.54,-4 -1.087,-1.104 -2.592,-1.693 -4.14,-1.62 h -41.9 c 0.667,-5.787 2.81,-10.297 6.43,-13.53 3.62,-3.233 8.687,-4.847 15.2,-4.84 3.056,-0.043 6.106,0.293 9.08,1 2.628,0.68 5.176,1.638 7.6,2.86 1.898,0.89 4.145,0.547 5.69,-0.87 0.979,-0.887 1.52,-2.159 1.48,-3.48 0,-1.82 -1.07,-3.35 -3.21,-4.59 -6.52,-3.902 -14.051,-5.781 -21.64,-5.4 z m -62.5,0.62 c -3.037,-0.034 -5.527,2.402 -5.56,5.439 -10e-4,0.05 -10e-4,0.101 0,0.151 V 58.8 c -0.013,1.494 0.566,2.932 1.61,4 1.033,1.104 2.489,1.712 4,1.67 1.506,0.017 2.953,-0.587 4,-1.67 1.077,-1.051 1.68,-2.495 1.67,-4 v -5.34 c 5.773,7.78 12.24,11.67 19.4,11.67 h 0.62 c 1.466,0.038 2.88,-0.547 3.89,-1.61 1.034,-1.07 1.593,-2.512 1.55,-4 0.031,-1.453 -0.571,-2.847 -1.65,-3.82 -1.112,-1.013 -2.577,-1.548 -4.08,-1.49 h -0.62 c -3.822,0.037 -7.581,-0.973 -10.87,-2.92 -3.347,-1.984 -6.183,-4.723 -8.28,-8 V 5.56 c 0.035,-1.51 -0.572,-2.963 -1.67,-4 -1.075,-1.034 -2.519,-1.596 -4.01,-1.56 z m -36.66,-0.62 c -5.726,-0.044 -11.374,1.331 -16.44,4 -4.994,2.621 -9.165,6.574 -12.05,11.42 -6.009,10.893 -6.009,24.107 0,35 2.885,4.846 7.056,8.799 12.05,11.42 5.066,2.669 10.714,4.044 16.44,4 3.834,0.079 7.653,-0.485 11.3,-1.67 3.102,-1.084 6.069,-2.523 8.84,-4.29 2.363,-1.429 3.119,-4.504 1.69,-6.866 -0.196,-0.323 -0.427,-0.623 -0.69,-0.894 -0.813,-0.967 -2.007,-1.533 -3.27,-1.55 -0.956,0.012 -1.893,0.27 -2.72,0.75 -2.25,1.184 -4.591,2.187 -7,3 -2.349,0.675 -4.787,0.989 -7.23,0.93 -7.093,0 -12.657,-2.047 -16.69,-6.14 -4.033,-4.093 -6.033,-9.497 -6,-16.21 0,-6.7 2,-12.1 6,-16.2 4,-4.1 9.563,-6.147 16.69,-6.14 2.443,-0.059 4.881,0.255 7.23,0.93 2.409,0.813 4.75,1.816 7,3 0.827,0.48 1.764,0.738 2.72,0.75 1.263,-0.017 2.457,-0.583 3.27,-1.55 1.923,-1.982 1.876,-5.147 -0.106,-7.07 -0.271,-0.263 -0.571,-0.495 -0.894,-0.69 -2.771,-1.767 -5.738,-3.206 -8.84,-4.29 -3.649,-1.175 -7.468,-1.729 -11.3,-1.64 m -62.5,0 c -7.851,-0.098 -15.595,1.824 -22.49,5.58 -1.359,0.914 -2.152,2.463 -2.1,4.1 -0.013,1.292 0.474,2.539 1.36,3.48 0.876,0.985 2.142,1.533 3.46,1.5 0.767,-0.008 1.524,-0.178 2.22,-0.5 2.555,-1.132 5.201,-2.045 7.91,-2.73 2.915,-0.695 5.904,-1.031 8.9,-1 9.14,0 13.713,2.937 13.72,8.81 0,1.9 -1.05,3.347 -3.15,4.34 -3.34,1.406 -6.792,2.53 -10.32,3.36 -4.079,0.919 -8.089,2.122 -12,3.6 -3.128,1.208 -5.925,3.141 -8.16,5.64 -2.267,2.527 -3.4,5.86 -3.4,10 -0.166,5.417 2.128,10.619 6.24,14.15 4.16,3.64 10.113,5.46 17.86,5.46 6.095,0.027 12.147,-1.033 17.87,-3.13 1.081,-0.28 2.026,-0.941 2.66,-1.86 0.593,-0.837 0.914,-1.835 0.92,-2.86 0.011,-1.3 -0.501,-2.55 -1.42,-3.47 -0.904,-0.98 -2.187,-1.523 -3.52,-1.49 -0.544,0.019 -1.084,0.099 -1.61,0.24 -4.552,1.457 -9.3,2.212 -14.08,2.24 -4.447,0 -7.93,-0.807 -10.45,-2.42 -2.52,-1.613 -3.763,-3.693 -3.73,-6.24 -0.076,-2.357 1.296,-4.522 3.46,-5.46 3.446,-1.528 7.057,-2.655 10.76,-3.36 3.997,-0.983 7.93,-2.205 11.78,-3.66 3.063,-1.196 5.776,-3.142 7.89,-5.66 2.18,-2.56 3.27,-5.993 3.27,-10.3 0.084,-5.119 -2.223,-9.985 -6.24,-13.16 -4.16,-3.467 -10.03,-5.2 -17.61,-5.2"
               style="fill:#2e2e2e;fill-opacity:1;fill-rule:nonzero;stroke:none"
               id="path1362" />
          </g>
          <g
             id="g1364"
             transform="translate(501.49,216.19)">
            <path
               d="M 0,0 V 0 C 2.956,-0.006 5.35,-2.404 5.35,-5.36 V -28.31 C 5.345,-31.262 2.952,-33.655 0,-33.66 c -2.956,0 -5.354,2.394 -5.36,5.35 V -5.36 C -5.36,-2.4 -2.96,0 0,0"
               style="fill:#c061cb;fill-opacity:1;fill-rule:nonzero;stroke:none"
               id="path1366" />
          </g>
          <g
             id="g1368"
             transform="translate(519.85,229.96)">
            <path
               d="M 0,0 V 0 C 2.952,-0.005 5.344,-2.398 5.35,-5.35 V -42.08 C 5.344,-45.032 2.952,-47.424 0,-47.43 c -2.956,0 -5.354,2.394 -5.36,5.35 V -5.35 C -5.354,-2.394 -2.956,0 0,0"
               style="fill:#9141ac;fill-opacity:1;fill-rule:nonzero;stroke:none"
               id="path1370" />
          </g>
          <g
             id="g1372"
             transform="translate(538.21,248.32)">
            <path
               d="m 0,0 v 0 c 2.955,0 5.35,-2.395 5.35,-5.35 v -55.09 c 0,-2.955 -2.395,-5.35 -5.35,-5.35 -2.956,0 -5.354,2.394 -5.36,5.35 V -5.35 C -5.354,-2.394 -2.956,0 0,0"
               style="fill:#813d9c;fill-opacity:1;fill-rule:nonzero;stroke:none"
               id="path1374" />
          </g>
        </g>
      </g>
      <text
         xml:space="preserve"
         style="font-style:normal;font-variant:normal;font-weight:bold;font-stretch:normal;font-size:38.5116px;font-family:Poppins;-inkscape-font-specification:'Poppins Bold';text-align:center;text-anchor:middle;fill:#813d9c;stroke-width:7.79763;stroke-linecap:round;stroke-linejoin:round;paint-order:markers fill stroke"
         x="121.83184"
         y="-259.35489"
         id="text1547"
         transform="scale(1,-1)"><tspan
           sodipodi:role="line"
           id="tspan1545"
           style="font-style:normal;font-variant:normal;font-weight:bold;font-stretch:normal;font-family:Poppins;-inkscape-font-specification:'Poppins Bold';stroke-width:7.79763"
           x="121.83184"
           y="-259.35489">STOCK</tspan></text>
    </g>
  </g>
</svg>
