<?xml version="1.0" encoding="UTF-8" standalone="no"?>
<!-- Created with Inkscape (http://www.inkscape.org/) -->

<svg
   width="7.9377441mm"
   height="7.9375mm"
   viewBox="0 0 7.9377441 7.9375"
   version="1.1"
   id="svg5"
   xml:space="preserve"
   inkscape:version="1.2.1 (9c6d41e410, 2022-07-14)"
   sodipodi:docname="Plantilla.svg"
   xmlns:inkscape="http://www.inkscape.org/namespaces/inkscape"
   xmlns:sodipodi="http://sodipodi.sourceforge.net/DTD/sodipodi-0.dtd"
   xmlns:xlink="http://www.w3.org/1999/xlink"
   xmlns="http://www.w3.org/2000/svg"
   xmlns:svg="http://www.w3.org/2000/svg"><sodipodi:namedview
     id="namedview7"
     pagecolor="#ffffff"
     bordercolor="#000000"
     borderopacity="0.25"
     inkscape:showpageshadow="2"
     inkscape:pageopacity="0.0"
     inkscape:pagecheckerboard="0"
     inkscape:deskcolor="#d1d1d1"
     inkscape:document-units="mm"
     showgrid="false"
     inkscape:zoom="0.21859623"
     inkscape:cx="2721.9134"
     inkscape:cy="1967.0971"
     inkscape:window-width="1920"
     inkscape:window-height="1017"
     inkscape:window-x="-8"
     inkscape:window-y="-8"
     inkscape:window-maximized="1"
     inkscape:current-layer="layer1"
     showguides="false" /><defs
     id="defs2"><linearGradient
       inkscape:collect="always"
       id="linearGradient10953"><stop
         style="stop-color:#fffefb;stop-opacity:1;"
         offset="0"
         id="stop10949" /><stop
         style="stop-color:#deddda;stop-opacity:0;"
         offset="1"
         id="stop10951" /></linearGradient><linearGradient
       inkscape:collect="always"
       xlink:href="#linearGradient10953"
       id="linearGradient22635"
       gradientUnits="userSpaceOnUse"
       x1="350.58063"
       y1="167.56787"
       x2="858.58063"
       y2="167.56787"
       gradientTransform="matrix(1.3175067,0,0,1.3175067,-232.45969,-271.48495)" /><style
       id="style6405">.a,.c{fill:#c21325;}.a,.b{stroke:#fff;stroke-width:20px;}.b{fill:none;}</style></defs><g
     inkscape:label="Capa 1"
     inkscape:groupmode="layer"
     id="layer1"
     transform="translate(-588.79542,91.720914)"><path
       id="path7473-6"
       style="fill:#272935;fill-opacity:1;stroke-width:0.0177162"
       d="m 596.16606,-91.72091 -6.80527,5e-4 c -0.31181,0 -0.56534,0.25671 -0.56534,0.57207 v 6.60321 0.18965 c 0,0.31535 0.25353,0.57207 0.56534,0.57207 h 2.21795 c 0.003,-3e-5 0.005,-4.5e-4 0.008,-5.3e-4 h 2.38074 2.19883 c 0.3118,0 0.56689,-0.25672 0.56689,-0.57205 v -3.2582 -3.53415 c 0,-0.31535 -0.25509,-0.57257 -0.56689,-0.57257 z m -5.5516,1.98437 h 4.29948 c 0.27389,0 0.49609,0.2222 0.49609,0.4961 0,0.15604 -0.0734,0.30276 -0.19843,0.39686 l -2.24896,1.68673 c -0.11782,0.0879 -0.27906,0.0879 -0.39688,0 l -2.24896,-1.68673 c -0.12504,-0.0941 -0.19843,-0.24082 -0.19843,-0.39686 0,-0.2739 0.22219,-0.4961 0.49609,-0.4961 z m -0.49609,1.15755 2.24895,1.68671 c 0.23566,0.17674 0.55811,0.17674 0.79375,0 l 2.24896,-1.68671 v 2.14973 c 0,0.36482 -0.29662,0.66147 -0.66146,0.66147 h -3.96875 c -0.36483,0 -0.66145,-0.29665 -0.66145,-0.66147 z"
       inkscape:export-filename="anthony-martin-portfolio\images\email.svg"
       inkscape:export-xdpi="96"
       inkscape:export-ydpi="96" /></g><style
     type="text/css"
     id="style56646">.st0{fill:#0acf83}.st1{fill:#a259ff}.st2{fill:#f24e1e}.st3{fill:#ff7262}.st4{fill:#1abcfe}</style></svg>
