<?xml version="1.0" encoding="UTF-8" standalone="no"?>
<!-- Created with Inkscape (http://www.inkscape.org/) -->

<svg
   width="7.9375mm"
   height="7.9371338mm"
   viewBox="0 0 7.9375 7.9371338"
   version="1.1"
   id="svg5"
   xml:space="preserve"
   inkscape:version="1.2.1 (9c6d41e410, 2022-07-14)"
   sodipodi:docname="Plantilla.svg"
   xmlns:inkscape="http://www.inkscape.org/namespaces/inkscape"
   xmlns:sodipodi="http://sodipodi.sourceforge.net/DTD/sodipodi-0.dtd"
   xmlns:xlink="http://www.w3.org/1999/xlink"
   xmlns="http://www.w3.org/2000/svg"
   xmlns:svg="http://www.w3.org/2000/svg"><sodipodi:namedview
     id="namedview7"
     pagecolor="#ffffff"
     bordercolor="#000000"
     borderopacity="0.25"
     inkscape:showpageshadow="2"
     inkscape:pageopacity="0.0"
     inkscape:pagecheckerboard="0"
     inkscape:deskcolor="#d1d1d1"
     inkscape:document-units="mm"
     showgrid="false"
     inkscape:zoom="0.21859623"
     inkscape:cx="2721.9134"
     inkscape:cy="1967.0971"
     inkscape:window-width="1920"
     inkscape:window-height="1017"
     inkscape:window-x="-8"
     inkscape:window-y="-8"
     inkscape:window-maximized="1"
     inkscape:current-layer="layer1"
     showguides="false" /><defs
     id="defs2"><linearGradient
       inkscape:collect="always"
       id="linearGradient10953"><stop
         style="stop-color:#fffefb;stop-opacity:1;"
         offset="0"
         id="stop10949" /><stop
         style="stop-color:#deddda;stop-opacity:0;"
         offset="1"
         id="stop10951" /></linearGradient><linearGradient
       inkscape:collect="always"
       xlink:href="#linearGradient10953"
       id="linearGradient22635"
       gradientUnits="userSpaceOnUse"
       x1="350.58063"
       y1="167.56787"
       x2="858.58063"
       y2="167.56787"
       gradientTransform="matrix(1.3175067,0,0,1.3175067,-232.45969,-271.48495)" /><style
       id="style6405">.a,.c{fill:#c21325;}.a,.b{stroke:#fff;stroke-width:20px;}.b{fill:none;}</style></defs><g
     inkscape:label="Capa 1"
     inkscape:groupmode="layer"
     id="layer1"
     transform="translate(-603.53346,91.720731)"><path
       id="path10617-3-6"
       style="fill:#272935;fill-opacity:1;stroke-width:0.0177162"
       d="m 604.09866,-91.72047 c -0.31181,0 -0.5652,0.25698 -0.5652,0.57233 v 6.79253 c 0,0.31535 0.25339,0.57201 0.5652,0.57201 h 2.21798 c 0.0108,-6e-5 0.0212,-6e-4 0.031,-0.002 0.01,-0.001 0.019,-0.002 0.0279,-0.005 0.009,-0.002 0.0175,-0.004 0.0254,-0.007 0.008,-0.003 0.0155,-0.007 0.0226,-0.0102 0.007,-0.004 0.0139,-0.008 0.0202,-0.0121 0.006,-0.004 0.0119,-0.009 0.0173,-0.0143 0.005,-0.005 0.0105,-0.0103 0.0152,-0.0158 0.005,-0.005 0.009,-0.0112 0.013,-0.017 0.004,-0.006 0.007,-0.0121 0.0106,-0.0183 0.003,-0.006 0.006,-0.0128 0.008,-0.0192 0.002,-0.006 0.005,-0.0129 0.007,-0.0196 0.002,-0.007 0.004,-0.0132 0.005,-0.0198 10e-4,-0.007 0.002,-0.0135 0.002,-0.0202 5.8e-4,-0.007 10e-4,-0.013 10e-4,-0.0196 0,-0.0496 -10e-4,-0.21121 -0.002,-0.40242 -10e-4,-0.19122 -0.002,-0.41206 -0.002,-0.58008 0,0 -0.0173,0.004 -0.0483,0.009 -0.0155,0.002 -0.0346,0.005 -0.0564,0.008 -0.0218,0.003 -0.0466,0.006 -0.0738,0.009 -0.0272,0.003 -0.0568,0.005 -0.0884,0.007 -0.0315,0.002 -0.0649,0.004 -0.0998,0.004 -0.0175,3.6e-4 -0.0352,3.9e-4 -0.0533,3.1e-4 -0.0181,-8e-5 -0.0365,-3.4e-4 -0.0552,-0.001 -0.0187,-6e-4 -0.0374,-0.002 -0.0565,-0.003 -0.019,-0.001 -0.0383,-0.002 -0.0577,-0.004 -0.0193,-0.002 -0.0388,-0.004 -0.0583,-0.007 -0.0195,-0.002 -0.0391,-0.005 -0.0586,-0.009 -0.0195,-0.004 -0.0391,-0.008 -0.0586,-0.0118 -0.0195,-0.004 -0.0387,-0.009 -0.058,-0.0143 -0.0193,-0.005 -0.0387,-0.0108 -0.0576,-0.017 -0.019,-0.006 -0.0376,-0.0131 -0.0561,-0.0204 -0.0185,-0.007 -0.0366,-0.0154 -0.0546,-0.0239 -0.0179,-0.009 -0.0358,-0.0175 -0.053,-0.0273 -0.0173,-0.01 -0.0341,-0.0205 -0.0505,-0.0316 -0.0164,-0.0111 -0.0325,-0.0229 -0.048,-0.0353 -0.0155,-0.0125 -0.0305,-0.0257 -0.0449,-0.0397 -0.0145,-0.014 -0.0283,-0.0285 -0.0415,-0.044 -0.007,-0.008 -0.0132,-0.0157 -0.0196,-0.0239 -0.006,-0.008 -0.0126,-0.0165 -0.0186,-0.0251 -0.006,-0.009 -0.0117,-0.0174 -0.0173,-0.0263 -0.005,-0.009 -0.0112,-0.0182 -0.0164,-0.0276 -0.005,-0.009 -0.0103,-0.019 -0.0152,-0.0289 -0.005,-0.01 -0.01,-0.0198 -0.0143,-0.0301 -0.005,-0.0102 -0.009,-0.0209 -0.0127,-0.0316 -0.004,-0.0107 -0.008,-0.0217 -0.0118,-0.0329 0,0 -0.003,-0.007 -0.008,-0.0205 -0.005,-0.013 -0.0136,-0.0315 -0.0242,-0.0542 -0.0106,-0.0227 -0.0238,-0.0497 -0.0391,-0.0791 -0.008,-0.0147 -0.0157,-0.0301 -0.0245,-0.0459 -0.009,-0.0158 -0.0181,-0.0319 -0.0279,-0.0483 -0.01,-0.0164 -0.0202,-0.0329 -0.031,-0.0496 -0.0108,-0.0167 -0.022,-0.0334 -0.0338,-0.0499 -0.0118,-0.0166 -0.0239,-0.0332 -0.0366,-0.0493 -0.0127,-0.0161 -0.0258,-0.0317 -0.0394,-0.0468 -0.0135,-0.0151 -0.0272,-0.0296 -0.0415,-0.0434 -0.0143,-0.0138 -0.029,-0.0269 -0.044,-0.0391 -0.008,-0.006 -0.0152,-0.0118 -0.0229,-0.0173 -0.008,-0.005 -0.0154,-0.0108 -0.0233,-0.0158 -0.008,-0.005 -0.0158,-0.01 -0.0239,-0.0143 -0.008,-0.004 -0.0163,-0.008 -0.0245,-0.0121 0,0 -0.005,-0.004 -0.0149,-0.0108 -0.009,-0.007 -0.0221,-0.0168 -0.0363,-0.0285 -0.007,-0.006 -0.0143,-0.0122 -0.0217,-0.0189 -0.007,-0.007 -0.015,-0.0137 -0.0223,-0.0211 -0.007,-0.007 -0.0145,-0.0149 -0.0211,-0.0226 -0.007,-0.008 -0.0127,-0.0152 -0.018,-0.0229 -0.005,-0.008 -0.01,-0.0156 -0.0133,-0.0233 -0.002,-0.004 -0.003,-0.008 -0.004,-0.0115 -10e-4,-0.004 -0.002,-0.007 -0.003,-0.0109 -5.8e-4,-0.004 -6e-4,-0.007 -6e-4,-0.0109 1.1e-4,-0.004 3.7e-4,-0.007 10e-4,-0.0102 6e-4,-0.003 0.002,-0.007 0.004,-0.01 0.002,-0.003 0.004,-0.006 0.006,-0.009 0.002,-0.003 0.006,-0.006 0.009,-0.008 0.004,-0.002 0.008,-0.005 0.0124,-0.007 0.005,-0.002 0.009,-0.005 0.0152,-0.007 0.006,-0.002 0.0121,-0.004 0.0189,-0.005 0.007,-0.002 0.0145,-0.003 0.0226,-0.004 0.008,-0.001 0.0166,-0.002 0.026,-0.003 0.009,-6e-4 0.0196,-0.001 0.0304,-0.002 0.0108,-3.4e-4 0.0224,-4.6e-4 0.0347,-3.1e-4 0,0 0.006,5.5e-4 0.0173,0.002 0.0113,0.002 0.028,0.004 0.0484,0.009 0.0102,0.002 0.0211,0.005 0.0332,0.008 0.0121,0.003 0.0251,0.007 0.0388,0.0112 0.0136,0.004 0.0279,0.009 0.0428,0.0149 0.0149,0.005 0.0303,0.0116 0.0462,0.0186 0.0159,0.007 0.0321,0.0148 0.0487,0.0233 0.0166,0.009 0.0335,0.0176 0.0505,0.0279 0.017,0.0103 0.0343,0.0214 0.0515,0.0335 0.0172,0.0121 0.0341,0.0253 0.0512,0.0394 0.017,0.0142 0.0342,0.0293 0.0508,0.0456 0.008,0.008 0.0163,0.0167 0.0245,0.0254 0.008,0.009 0.0162,0.0179 0.0242,0.0273 0.008,0.009 0.0158,0.0189 0.0236,0.0289 0.008,0.01 0.0155,0.0201 0.0229,0.0307 0.007,0.0106 0.0148,0.0217 0.022,0.0329 0.007,0.0112 0.0142,0.0228 0.0211,0.0347 0.0109,0.0193 0.0221,0.0377 0.0335,0.0555 0.0114,0.0178 0.0229,0.0349 0.0347,0.0512 0.0118,0.0163 0.0238,0.0316 0.0359,0.0465 0.0122,0.0149 0.0247,0.0293 0.0372,0.0428 0.0125,0.0135 0.025,0.0263 0.0378,0.0385 0.0128,0.0122 0.026,0.0238 0.039,0.0347 0.0131,0.0109 0.0261,0.0213 0.0394,0.031 0.0133,0.01 0.0268,0.0187 0.0403,0.0273 0.0135,0.009 0.027,0.0167 0.0406,0.0242 0.0136,0.007 0.0275,0.0143 0.0412,0.0208 0.0137,0.006 0.0274,0.0122 0.0412,0.0177 0.0138,0.005 0.0279,0.0104 0.0419,0.0149 0.0139,0.005 0.0277,0.009 0.0416,0.0121 0.0139,0.004 0.0277,0.007 0.0415,0.01 0.0138,0.003 0.0277,0.005 0.0416,0.007 0.0138,0.002 0.0275,0.004 0.0412,0.005 0.0137,0.001 0.0274,0.002 0.0409,0.002 0.0136,5.5e-4 0.0272,6e-4 0.0406,6e-4 0.0134,-8e-5 0.0265,-2.7e-4 0.0397,-0.001 0.0132,-6e-4 0.0265,-0.002 0.0394,-0.003 0.013,-0.001 0.0258,-0.003 0.0385,-0.004 0.0127,-0.002 0.0249,-0.004 0.0372,-0.005 0.0247,-0.004 0.0488,-0.009 0.0719,-0.0143 0.0232,-0.005 0.0456,-0.0116 0.067,-0.018 0.0214,-0.006 0.0417,-0.0133 0.0611,-0.0202 0.0193,-0.007 0.0376,-0.0138 0.0546,-0.0208 0.017,-0.007 0.0325,-0.0139 0.0468,-0.0205 0.002,-0.016 0.005,-0.0317 0.008,-0.0471 0.003,-0.0154 0.006,-0.0305 0.009,-0.0453 0.003,-0.0148 0.007,-0.0292 0.0106,-0.0434 0.004,-0.0142 0.008,-0.028 0.0118,-0.0415 0.004,-0.0136 0.009,-0.027 0.0133,-0.04 0.005,-0.013 0.009,-0.0254 0.0143,-0.0378 0.005,-0.0124 0.0102,-0.0245 0.0155,-0.0363 0.005,-0.0118 0.0105,-0.0232 0.0161,-0.0344 0.005,-0.0112 0.0115,-0.0223 0.0173,-0.0329 0.006,-0.0106 0.0121,-0.021 0.0183,-0.031 0.006,-0.01 0.0125,-0.0197 0.0189,-0.0292 0.006,-0.009 0.0129,-0.0187 0.0195,-0.0276 0.007,-0.009 0.0133,-0.0175 0.0202,-0.0257 0.007,-0.008 0.0138,-0.0161 0.0208,-0.0239 0.0139,-0.0155 0.0281,-0.0299 0.0425,-0.0431 -0.0559,-0.006 -0.11167,-0.0125 -0.16742,-0.0192 -0.0557,-0.007 -0.11134,-0.014 -0.16649,-0.022 -0.0275,-0.004 -0.0551,-0.008 -0.0825,-0.0127 -0.0274,-0.004 -0.0545,-0.009 -0.0815,-0.0143 -0.0271,-0.005 -0.0539,-0.0103 -0.0806,-0.0158 -0.0267,-0.005 -0.0534,-0.0114 -0.0797,-0.0177 -0.0263,-0.006 -0.0523,-0.0128 -0.0781,-0.0199 -0.0259,-0.007 -0.0512,-0.0147 -0.0766,-0.0226 -0.0253,-0.008 -0.0506,-0.0163 -0.0753,-0.0251 -0.0248,-0.009 -0.0493,-0.0181 -0.0735,-0.0279 -0.0241,-0.01 -0.0478,-0.0203 -0.0713,-0.0313 -0.0235,-0.011 -0.0464,-0.0226 -0.0691,-0.0347 -0.0227,-0.0122 -0.045,-0.025 -0.067,-0.0385 -0.022,-0.0134 -0.0437,-0.0277 -0.0648,-0.0425 -0.021,-0.0148 -0.0415,-0.0302 -0.0617,-0.0465 -0.0202,-0.0163 -0.04,-0.0334 -0.0592,-0.0512 -0.0192,-0.0178 -0.0379,-0.0364 -0.0561,-0.0558 -0.0182,-0.0194 -0.0362,-0.0397 -0.0533,-0.0608 -0.009,-0.0106 -0.0168,-0.0212 -0.0251,-0.0322 -0.008,-0.011 -0.0165,-0.0223 -0.0245,-0.0338 -0.008,-0.0115 -0.0158,-0.0231 -0.0236,-0.035 -0.008,-0.0119 -0.0155,-0.0242 -0.0229,-0.0366 -0.007,-0.0124 -0.0146,-0.025 -0.0217,-0.0378 -0.007,-0.0129 -0.014,-0.026 -0.0208,-0.0394 -0.007,-0.0134 -0.0137,-0.0271 -0.0202,-0.0409 -0.006,-0.0139 -0.0127,-0.0278 -0.0189,-0.0422 -0.006,-0.0144 -0.0122,-0.0291 -0.018,-0.044 -0.006,-0.0149 -0.0116,-0.0301 -0.017,-0.0456 -0.005,-0.0155 -0.0107,-0.0311 -0.0158,-0.0472 -0.005,-0.016 -0.0101,-0.0325 -0.0149,-0.049 -0.005,-0.0166 -0.01,-0.0331 -0.014,-0.0502 -0.004,-0.0171 -0.009,-0.0347 -0.0127,-0.0524 -0.004,-0.0177 -0.008,-0.0356 -0.0115,-0.0539 -0.004,-0.0183 -0.007,-0.0369 -0.0106,-0.0558 -0.007,-0.0377 -0.0123,-0.0767 -0.0173,-0.11688 -0.005,-0.0402 -0.009,-0.0816 -0.0127,-0.12432 -0.004,-0.0428 -0.006,-0.087 -0.008,-0.13239 -0.002,-0.0454 -0.003,-0.092 -0.003,-0.14014 0,-0.0275 6e-4,-0.0541 0.002,-0.08 10e-4,-0.0259 0.002,-0.051 0.004,-0.0753 0.002,-0.0244 0.004,-0.048 0.007,-0.071 0.003,-0.023 0.006,-0.0452 0.01,-0.067 0.004,-0.0217 0.008,-0.0429 0.013,-0.0636 0.005,-0.0206 0.0103,-0.0408 0.0161,-0.0605 0.006,-0.0197 0.0121,-0.0391 0.0189,-0.0579 0.007,-0.0188 0.0142,-0.0373 0.022,-0.0555 0.008,-0.0182 0.016,-0.036 0.0248,-0.0536 0.009,-0.0176 0.0181,-0.0349 0.0279,-0.0521 0.01,-0.0172 0.0202,-0.0342 0.031,-0.0512 0.0109,-0.0169 0.0223,-0.0337 0.0341,-0.0505 0.0119,-0.0168 0.024,-0.0337 0.0369,-0.0505 0.0129,-0.0168 0.0264,-0.0336 0.0403,-0.0505 0.0139,-0.0169 0.0284,-0.034 0.0434,-0.0512 0.0149,-0.0172 0.0302,-0.0345 0.0462,-0.0521 -0.005,-0.013 -0.0116,-0.0312 -0.0189,-0.0539 -0.004,-0.0114 -0.008,-0.0238 -0.0115,-0.0375 -0.004,-0.0137 -0.008,-0.0284 -0.0115,-0.0443 -0.004,-0.0158 -0.007,-0.0329 -0.0109,-0.0508 -0.004,-0.0179 -0.007,-0.0368 -0.0103,-0.0568 -0.003,-0.02 -0.005,-0.0411 -0.008,-0.0629 -0.002,-0.0219 -0.004,-0.0445 -0.006,-0.0682 -10e-4,-0.0237 -0.002,-0.0484 -0.003,-0.0738 -3.5e-4,-0.0254 -7e-5,-0.0515 10e-4,-0.0784 10e-4,-0.027 0.002,-0.0549 0.005,-0.0834 0.002,-0.0285 0.006,-0.0578 0.0103,-0.0877 0.004,-0.0299 0.01,-0.0605 0.0161,-0.0918 0.006,-0.0313 0.0137,-0.063 0.0223,-0.0955 0.004,-0.0162 0.009,-0.0324 0.014,-0.049 0.005,-0.0165 0.01,-0.0334 0.0155,-0.0502 0.005,-0.0168 0.0112,-0.0335 0.0173,-0.0505 0.006,-0.017 0.0127,-0.0341 0.0196,-0.0515 0.0104,-0.003 0.0216,-0.006 0.0329,-0.008 0.0113,-0.002 0.0227,-0.004 0.0347,-0.004 0.012,-6e-4 0.0245,-0.001 0.0372,-0.001 0.0127,1.7e-4 0.0255,0.001 0.0388,0.002 0.0133,10e-4 0.0268,0.003 0.0406,0.005 0.0138,0.002 0.028,0.005 0.0422,0.008 0.0142,0.003 0.0285,0.006 0.0431,0.01 0.0146,0.004 0.0294,0.008 0.0443,0.0124 0.0149,0.004 0.0298,0.009 0.0449,0.0143 0.0151,0.005 0.0303,0.0104 0.0456,0.0161 0.0305,0.0113 0.0614,0.0237 0.0921,0.0369 0.0307,0.0131 0.0615,0.0271 0.0918,0.0415 0.0303,0.0145 0.06,0.0292 0.0893,0.0443 0.0293,0.0151 0.0582,0.0306 0.0859,0.0459 0.0277,0.0152 0.0542,0.0305 0.0797,0.0453 0.0255,0.0148 0.0498,0.029 0.0725,0.0428 0.0227,0.0137 0.0439,0.0269 0.0632,0.0391 0.0387,0.0243 0.0701,0.0448 0.0918,0.0592 0.0217,0.0145 0.0338,0.0229 0.0338,0.0229 0.04,-0.0112 0.0802,-0.0218 0.12091,-0.0316 0.0407,-0.01 0.0818,-0.0188 0.12308,-0.0273 0.0413,-0.008 0.0829,-0.0164 0.12464,-0.0236 0.0417,-0.007 0.0837,-0.0135 0.12587,-0.0192 0.0422,-0.006 0.0844,-0.0106 0.1268,-0.0149 0.0424,-0.004 0.0851,-0.008 0.12774,-0.0108 0.0426,-0.003 0.0851,-0.005 0.12773,-0.006 0.0427,-0.001 0.0854,-0.002 0.12805,-0.002 0.0426,0 0.0851,6e-4 0.12773,0.002 0.0427,0.001 0.0855,0.004 0.12804,0.006 0.0426,0.003 0.085,0.007 0.12743,0.0108 0.0424,0.004 0.085,0.009 0.12712,0.0149 0.0422,0.006 0.0841,0.0121 0.12587,0.0192 0.0417,0.007 0.0833,0.0151 0.12463,0.0236 0.0413,0.008 0.0821,0.0175 0.12277,0.0273 0.0407,0.01 0.0812,0.0204 0.12122,0.0316 0,0 0.0121,-0.008 0.0338,-0.0229 0.0217,-0.0145 0.0531,-0.0352 0.0918,-0.0595 0.0193,-0.0122 0.0406,-0.0253 0.0632,-0.0391 0.0227,-0.0138 0.0467,-0.0283 0.0722,-0.0431 0.0255,-0.0148 0.0523,-0.03 0.08,-0.0453 0.0277,-0.0153 0.0563,-0.0304 0.0856,-0.0456 0.0293,-0.0151 0.0593,-0.0302 0.0896,-0.0446 0.0303,-0.0145 0.0607,-0.0284 0.0915,-0.0415 0.0307,-0.0132 0.0615,-0.0256 0.0921,-0.0369 0.0153,-0.005 0.0305,-0.011 0.0456,-0.0161 0.0151,-0.005 0.0304,-0.01 0.0452,-0.0143 0.0149,-0.004 0.0294,-0.009 0.044,-0.0124 0.0146,-0.004 0.0292,-0.007 0.0434,-0.01 0.0142,-0.003 0.0284,-0.006 0.0422,-0.008 0.0138,-0.002 0.027,-0.004 0.0403,-0.005 0.0133,-10e-4 0.0264,-0.002 0.0391,-0.002 0.0127,-1.4e-4 0.0249,3.1e-4 0.0369,0.001 0.012,10e-4 0.0238,0.002 0.035,0.005 0.0113,0.002 0.0221,0.005 0.0326,0.008 0.007,0.0173 0.0134,0.0344 0.0196,0.0515 0.006,0.0171 0.0122,0.034 0.0176,0.0508 0.005,0.0168 0.0106,0.0337 0.0155,0.0502 0.005,0.0166 0.009,0.0331 0.0136,0.0493 0.009,0.0325 0.0163,0.0642 0.0226,0.0955 0.006,0.0313 0.0114,0.0618 0.0158,0.0918 0.004,0.0299 0.008,0.0592 0.0106,0.0877 0.002,0.0285 0.004,0.0564 0.005,0.0834 10e-4,0.027 10e-4,0.0531 10e-4,0.0784 -3.4e-4,0.0254 -10e-4,0.0502 -0.003,0.0738 -10e-4,0.0236 -0.004,0.0464 -0.006,0.0682 -0.002,0.0218 -0.005,0.0427 -0.008,0.0626 -0.003,0.0199 -0.006,0.0388 -0.01,0.0568 -0.004,0.0179 -0.007,0.035 -0.0111,0.0508 -0.004,0.0158 -0.008,0.0304 -0.0115,0.044 -0.004,0.0137 -0.007,0.0262 -0.0112,0.0375 -0.007,0.0227 -0.014,0.041 -0.0192,0.0539 0.032,0.0354 0.0627,0.0698 0.0915,0.10387 0.0144,0.017 0.0283,0.0343 0.0419,0.0512 0.0136,0.0169 0.0267,0.0336 0.0394,0.0505 0.0127,0.0169 0.0248,0.0341 0.0366,0.0512 0.0118,0.0171 0.0229,0.0341 0.0338,0.0515 0.0109,0.0173 0.0214,0.035 0.0313,0.0527 0.01,0.0178 0.0193,0.0356 0.0282,0.0539 0.009,0.0183 0.0172,0.0368 0.0251,0.0558 0.008,0.0189 0.0152,0.0385 0.022,0.0583 0.007,0.0197 0.0131,0.0397 0.0189,0.0605 0.006,0.0207 0.0112,0.0421 0.0158,0.0639 0.005,0.0218 0.009,0.044 0.0124,0.067 0.004,0.023 0.006,0.0467 0.009,0.071 0.002,0.0244 0.004,0.0495 0.005,0.0753 10e-4,0.0258 0.002,0.0523 0.002,0.0797 0,0.0482 -10e-4,0.0949 -0.003,0.14044 -0.002,0.0455 -0.004,0.0898 -0.008,0.13269 -0.002,0.0214 -0.004,0.0425 -0.006,0.0632 -0.002,0.0208 -0.005,0.0412 -0.007,0.0614 -0.002,0.0202 -0.005,0.04 -0.008,0.0595 -0.003,0.0196 -0.006,0.0388 -0.01,0.0577 -0.004,0.0189 -0.007,0.0378 -0.0112,0.0561 -0.004,0.0183 -0.008,0.0362 -0.0121,0.0539 -0.004,0.0177 -0.008,0.0353 -0.013,0.0524 -0.005,0.0172 -0.01,0.034 -0.0146,0.0505 -0.005,0.0166 -0.0101,0.0327 -0.0155,0.0487 -0.005,0.016 -0.0107,0.032 -0.0164,0.0474 -0.006,0.0155 -0.0116,0.0307 -0.0176,0.0456 -0.006,0.0149 -0.0122,0.0293 -0.0186,0.0437 -0.006,0.0144 -0.0131,0.0286 -0.0199,0.0425 -0.007,0.0139 -0.0134,0.0275 -0.0204,0.0409 -0.007,0.0134 -0.0143,0.0265 -0.0217,0.0394 -0.007,0.0128 -0.0149,0.0254 -0.0226,0.0378 -0.008,0.0124 -0.0155,0.0247 -0.0236,0.0366 -0.008,0.0119 -0.0162,0.0236 -0.0245,0.035 -0.008,0.0115 -0.0169,0.0225 -0.0254,0.0335 -0.009,0.011 -0.0172,0.0217 -0.026,0.0322 -0.009,0.0106 -0.0178,0.0209 -0.0269,0.031 -0.009,0.0101 -0.0185,0.0201 -0.0279,0.0298 -0.0188,0.0194 -0.0382,0.038 -0.058,0.0558 -0.0199,0.0178 -0.0403,0.0346 -0.0611,0.0508 -0.0208,0.0163 -0.0422,0.0317 -0.0639,0.0465 -0.0217,0.0148 -0.0438,0.0287 -0.0664,0.0422 -0.0226,0.0134 -0.0455,0.0263 -0.0688,0.0385 -0.0233,0.0121 -0.0473,0.0235 -0.0713,0.0344 -0.0241,0.0109 -0.0484,0.0215 -0.0732,0.0313 -0.0247,0.01 -0.0497,0.0191 -0.075,0.0279 -0.0253,0.009 -0.0511,0.0169 -0.0769,0.0248 -0.0259,0.008 -0.0518,0.0153 -0.0781,0.0223 -0.0263,0.007 -0.0529,0.0136 -0.0797,0.0199 -0.0268,0.006 -0.0538,0.0121 -0.0809,0.0177 -0.0271,0.005 -0.0544,0.0109 -0.0819,0.0158 -0.0274,0.005 -0.0551,0.01 -0.0828,0.014 -0.0276,0.004 -0.0553,0.009 -0.0831,0.0127 -0.0557,0.008 -0.1117,0.0152 -0.16773,0.022 -0.056,0.007 -0.11214,0.0133 -0.16804,0.0196 0.009,0.008 0.0183,0.0163 0.0273,0.0251 0.009,0.009 0.0179,0.0179 0.0266,0.0276 0.009,0.01 0.0173,0.0197 0.0257,0.0303 0.008,0.0106 0.0167,0.022 0.0248,0.0335 0.008,0.0115 0.0162,0.0235 0.0239,0.0359 0.008,0.0125 0.015,0.0253 0.0223,0.0387 0.007,0.0134 0.0143,0.0275 0.0211,0.0419 0.007,0.0144 0.0133,0.029 0.0196,0.0443 0.006,0.0154 0.0121,0.0314 0.0177,0.0478 0.005,0.0163 0.0109,0.0329 0.0158,0.0502 0.005,0.0173 0.009,0.0353 0.0136,0.0536 0.004,0.0183 0.008,0.0371 0.0118,0.0564 0.004,0.0193 0.007,0.0392 0.009,0.0595 0.003,0.0203 0.005,0.0412 0.007,0.0626 0.002,0.0214 0.004,0.0433 0.004,0.0657 10e-4,0.0224 10e-4,0.0457 10e-4,0.0691 0,0.26962 -10e-4,0.57128 -0.002,0.8219 -0.001,0.25062 -0.002,0.44998 -0.002,0.51558 0,0.006 3.5e-4,0.0132 10e-4,0.0199 5.9e-4,0.007 0.001,0.0132 0.002,0.0199 10e-4,0.007 0.003,0.0136 0.005,0.0202 0.002,0.007 0.004,0.0131 0.007,0.0196 0.002,0.006 0.005,0.013 0.009,0.0192 0.003,0.006 0.007,0.0123 0.0106,0.0183 0.004,0.006 0.008,0.0115 0.013,0.017 0.005,0.005 0.01,0.0108 0.0152,0.0158 0.005,0.005 0.0114,0.01 0.0177,0.0143 0.006,0.004 0.013,0.008 0.0202,0.0121 0.007,0.004 0.0146,0.007 0.0226,0.01 0.008,0.003 0.0166,0.006 0.0254,0.008 0.009,0.002 0.0181,0.004 0.0279,0.005 0.007,6e-4 0.0135,0.001 0.0205,0.001 h 0.0239 2.17489 c 0.3118,0 0.56674,-0.25667 0.56674,-0.57201 v -3.25815 -3.53439 c 0,-0.31535 -0.25494,-0.57233 -0.56674,-0.57233 z m 0.85104,5.57162 c -0.002,1.6e-4 -0.005,5.6e-4 -0.007,10e-4 -0.006,0.001 -0.011,0.003 -0.0155,0.005 -0.002,10e-4 -0.004,0.002 -0.006,0.004 -0.002,0.002 -0.004,0.003 -0.005,0.005 -10e-4,0.002 -0.002,0.005 -0.003,0.008 -5.7e-4,0.003 -6e-4,0.005 -6e-4,0.008 2.1e-4,0.003 10e-4,0.005 0.002,0.008 0.001,0.003 0.002,0.005 0.004,0.008 0.002,0.003 0.004,0.005 0.006,0.008 0.002,0.002 0.005,0.005 0.008,0.008 0.003,0.002 0.006,0.005 0.01,0.007 0.004,0.002 0.007,0.005 0.0112,0.007 0.003,0.002 0.007,0.004 0.01,0.005 0.004,0.001 0.007,0.002 0.01,0.003 0.004,6e-4 0.007,0.001 0.0103,0.001 0.004,1e-4 0.006,-1.2e-4 0.01,-6e-4 6e-4,-1.2e-4 0.002,-1.4e-4 0.002,-3.1e-4 0.002,-4.3e-4 0.004,-0.001 0.005,-0.002 3.6e-4,-1.3e-4 5.7e-4,-1.7e-4 0.001,-3.1e-4 6e-4,-2.7e-4 10e-4,-6e-4 0.002,-6e-4 3.5e-4,-1.5e-4 5.9e-4,-1.5e-4 10e-4,-3.1e-4 0.002,-6e-4 0.004,-0.002 0.005,-0.003 6e-4,-4.2e-4 0.001,-6e-4 0.002,-0.001 6e-4,-4.7e-4 10e-4,-10e-4 0.002,-0.002 2.8e-4,-2.5e-4 3.4e-4,-3.7e-4 6e-4,-6e-4 6e-4,-6.1e-4 0.002,-0.002 0.002,-0.002 6e-4,-6e-4 10e-4,-0.002 0.002,-0.003 6e-4,-0.001 10e-4,-0.002 0.002,-0.003 4.1e-4,-6e-4 6e-4,-10e-4 10e-4,-0.002 10e-4,-0.002 0.002,-0.004 0.002,-0.006 1.7e-4,-6e-4 4.7e-4,-0.001 6e-4,-0.002 1.4e-4,-6e-4 2.1e-4,-0.002 3.1e-4,-0.002 2.5e-4,-0.002 3.7e-4,-0.004 3.1e-4,-0.005 -10e-6,-3.5e-4 3e-5,-5.8e-4 0,-0.001 -3e-5,-3.5e-4 4e-5,-5.8e-4 0,-6e-4 -4e-5,-3.5e-4 -2.5e-4,-0.001 -3.1e-4,-0.001 -1.1e-4,-6e-4 -1.5e-4,-0.001 -3.1e-4,-0.002 -8e-5,-3.5e-4 -2.2e-4,-0.001 -3.1e-4,-0.001 -2.7e-4,-0.001 -5.7e-4,-0.002 -10e-4,-0.003 -1.2e-4,-3.5e-4 -1.9e-4,-5.8e-4 -3.1e-4,-0.001 -1.2e-4,-3.5e-4 -1.8e-4,-6.1e-4 -3.1e-4,-10e-4 -5.3e-4,-0.001 -10e-4,-0.002 -0.002,-0.004 -1.7e-4,-3.5e-4 -4.3e-4,-6e-4 -6e-4,-0.001 -1.9e-4,-3.4e-4 -4.1e-4,-5.8e-4 -6e-4,-10e-4 -2e-4,-3.4e-4 -4e-4,-5.9e-4 -6e-4,-0.001 -2.2e-4,-3.4e-4 -3.8e-4,-6e-4 -6e-4,-0.001 -4.8e-4,-6e-4 -10e-4,-10e-4 -0.002,-0.002 -0.001,-0.001 -0.002,-0.002 -0.004,-0.004 -2.9e-4,-3.3e-4 -6e-4,-6e-4 -10e-4,-10e-4 -5.9e-4,-6e-4 -0.001,-0.001 -0.002,-0.002 -3.1e-4,-3.2e-4 -6e-4,-6e-4 -10e-4,-10e-4 -10e-4,-0.001 -0.002,-0.002 -0.004,-0.004 -0.002,-0.002 -0.004,-0.003 -0.006,-0.005 -6e-4,-5.8e-4 -0.002,-0.001 -0.002,-0.002 -4.3e-4,-2.9e-4 -6e-4,-6e-4 -0.001,-10e-4 -10e-4,-6e-4 -0.002,-0.002 -0.004,-0.002 -0.002,-10e-4 -0.005,-0.003 -0.007,-0.004 -10e-4,-3e-4 -0.002,-6e-4 -0.003,-6e-4 -0.005,-0.002 -0.0105,-0.003 -0.0155,-0.004 -4.6e-4,-6e-5 -6e-4,6e-5 -10e-4,0 -4.5e-4,-5e-5 -10e-4,-2.6e-4 -0.002,-3e-4 -4.5e-4,-5e-5 -6e-4,3e-5 -0.001,0 -0.004,-4.1e-4 -0.009,-5.8e-4 -0.0127,-3.2e-4 z m 0.16277,0.13487 c -0.002,1.5e-4 -0.004,5.6e-4 -0.005,0.001 -0.004,6e-4 -0.007,0.002 -0.01,0.004 -0.003,0.002 -0.006,0.004 -0.008,0.006 -0.002,0.002 -0.005,0.005 -0.007,0.007 -0.002,0.002 -0.004,0.005 -0.004,0.008 -0.001,0.003 -0.002,0.006 -0.002,0.01 -2.5e-4,0.004 -1.8e-4,0.007 3.1e-4,0.0109 5e-4,0.004 0.002,0.008 0.003,0.0115 10e-4,0.004 0.003,0.008 0.005,0.0121 0.002,0.004 0.004,0.008 0.007,0.0118 0.002,0.004 0.006,0.008 0.009,0.0118 0.003,0.003 0.006,0.006 0.01,0.009 0.004,0.002 0.007,0.005 0.0109,0.007 0.004,0.002 0.007,0.004 0.0112,0.005 0.004,0.002 0.008,0.003 0.0115,0.004 0.004,6e-4 0.007,0.001 0.0109,0.001 0.003,7e-5 0.005,7e-5 0.008,-3.1e-4 6e-4,-1.3e-4 0.002,-4.4e-4 0.002,-6e-4 0.002,-3.7e-4 0.003,-6e-4 0.005,-0.001 4.2e-4,-1.4e-4 6e-4,-4.7e-4 10e-4,-6e-4 4.1e-4,-1.6e-4 6e-4,-1.4e-4 10e-4,-3.1e-4 4e-4,-1.7e-4 6e-4,-4.3e-4 10e-4,-6e-4 3.9e-4,-1.9e-4 6e-4,-4.2e-4 10e-4,-6e-4 0.001,-6e-4 0.002,-10e-4 0.004,-0.002 10e-4,-6e-4 0.002,-0.002 0.003,-0.002 3.3e-4,-3e-4 6e-4,-6e-4 10e-4,-0.001 3.3e-4,-3.1e-4 6e-4,-6e-4 10e-4,-10e-4 3.3e-4,-2.5e-4 6e-4,-3.6e-4 10e-4,-6e-4 3.1e-4,-2.6e-4 6e-4,-6e-4 0.001,-0.001 5.9e-4,-5.3e-4 10e-4,-10e-4 0.002,-0.002 5.4e-4,-5.7e-4 10e-4,-0.001 0.002,-0.002 4.9e-4,-6e-4 10e-4,-0.001 0.002,-0.002 0.002,-0.002 0.004,-0.005 0.004,-0.009 5.2e-4,-0.002 10e-4,-0.003 10e-4,-0.005 8e-5,-4e-4 2.5e-4,-6e-4 3.1e-4,-0.001 2e-4,-10e-4 2.2e-4,-0.002 3.1e-4,-0.004 7e-5,-6e-4 -2e-5,-0.002 0,-0.002 5e-5,-0.002 1.5e-4,-0.004 0,-0.005 -7e-5,-6e-4 -1.8e-4,-0.002 -3.1e-4,-0.003 -5e-4,-0.004 -10e-4,-0.008 -0.002,-0.0118 -10e-4,-0.004 -0.003,-0.008 -0.005,-0.0118 -10e-4,-0.002 -0.003,-0.005 -0.004,-0.007 -0.001,-10e-4 -0.002,-0.003 -0.003,-0.004 -6e-4,-0.001 -10e-4,-0.002 -0.002,-0.003 -0.001,-0.001 -0.002,-0.003 -0.003,-0.004 -3.8e-4,-4.9e-4 -6e-4,-10e-4 -10e-4,-0.002 -6e-4,-0.001 -0.002,-0.002 -0.002,-0.003 -0.002,-0.002 -0.004,-0.004 -0.006,-0.006 -4.4e-4,-3.7e-4 -10e-4,-5.7e-4 -0.002,-0.001 -4.3e-4,-3.6e-4 -6e-4,-10e-4 -0.001,-10e-4 -4.3e-4,-3.5e-4 -6e-4,-5.9e-4 -10e-4,-0.001 -0.003,-0.002 -0.006,-0.004 -0.009,-0.006 -4.5e-4,-2.7e-4 -6e-4,-6e-4 -10e-4,-0.001 -10e-4,-5.4e-4 -0.002,-10e-4 -0.003,-0.002 -0.002,-0.001 -0.004,-0.002 -0.006,-0.003 -10e-4,-4.3e-4 -0.002,-6e-4 -0.003,-0.001 -0.001,-5.8e-4 -0.003,-10e-4 -0.004,-0.002 -4.7e-4,-1.7e-4 -6e-4,-4.6e-4 -10e-4,-6e-4 -4.7e-4,-1.6e-4 -0.001,-1.6e-4 -0.002,-3.1e-4 -10e-4,-2.9e-4 -0.002,-6e-4 -0.002,-10e-4 -4.7e-4,-1.2e-4 -10e-4,-2e-4 -0.002,-3.1e-4 -10e-4,-3.2e-4 -0.003,-6e-4 -0.004,-0.001 -4.7e-4,-8e-5 -6e-4,7e-5 -0.001,0 -4.7e-4,-7e-5 -10e-4,-2.6e-4 -0.002,-3.1e-4 -10e-4,-1.6e-4 -0.002,-2.8e-4 -0.004,-3.1e-4 -0.002,-5e-5 -0.004,-1.5e-4 -0.005,0 z m 0.16463,0.20648 c -10e-4,4e-5 -0.002,2e-4 -0.003,3.1e-4 -0.004,4.3e-4 -0.008,0.001 -0.0115,0.003 -0.004,0.001 -0.007,0.004 -0.0102,0.006 -0.003,0.002 -0.006,0.004 -0.008,0.007 -0.002,0.003 -0.005,0.006 -0.006,0.009 -0.002,0.004 -0.002,0.007 -0.004,0.0109 -6e-4,0.004 -0.001,0.008 -0.001,0.0121 0,0.004 4.4e-4,0.009 0.001,0.0133 6e-4,0.004 0.002,0.009 0.004,0.0136 0.002,0.005 0.004,0.009 0.006,0.0139 0.002,0.005 0.005,0.009 0.008,0.014 0.003,0.005 0.007,0.009 0.0102,0.013 0.004,0.004 0.008,0.007 0.0118,0.0106 0.004,0.003 0.008,0.006 0.0121,0.009 0.004,0.002 0.008,0.005 0.0124,0.006 0.004,0.002 0.008,0.003 0.0124,0.004 0.004,6e-4 0.008,10e-4 0.0115,10e-4 0.002,-4e-5 0.004,-6e-5 0.005,-3.1e-4 0.002,-2.5e-4 0.004,-6e-4 0.005,-10e-4 4e-4,-1.3e-4 6e-4,-1.6e-4 10e-4,-3.1e-4 3.9e-4,-1.5e-4 6e-4,-4.6e-4 10e-4,-6e-4 3.8e-4,-1.6e-4 5.6e-4,-1.3e-4 10e-4,-3.1e-4 3.7e-4,-1.8e-4 6e-4,-4.2e-4 0.001,-6e-4 10e-4,-5.9e-4 0.002,-10e-4 0.003,-0.002 3.4e-4,-2.4e-4 6e-4,-3.7e-4 10e-4,-6e-4 0.003,-0.002 0.006,-0.005 0.008,-0.009 6e-4,-6e-4 10e-4,-0.002 0.002,-0.002 0.002,-0.002 0.003,-0.005 0.004,-0.008 0.002,-0.004 0.003,-0.008 0.004,-0.0118 4e-4,-0.002 6e-4,-0.004 10e-4,-0.006 5e-5,-5.2e-4 -4e-5,-10e-4 0,-0.002 1.2e-4,-0.002 3.1e-4,-0.004 3.1e-4,-0.005 0,-0.004 -4.4e-4,-0.009 -10e-4,-0.0136 -6e-4,-0.005 -0.002,-0.009 -0.004,-0.014 -10e-4,-0.003 -0.002,-0.006 -0.004,-0.009 -6e-4,-0.002 -0.002,-0.004 -0.002,-0.005 -3e-4,-5.9e-4 -6e-4,-0.001 -10e-4,-0.002 -3.1e-4,-5.9e-4 -6e-4,-0.001 -10e-4,-0.002 -3.2e-4,-5.9e-4 -5.9e-4,-10e-4 -0.001,-0.002 -0.002,-0.003 -0.004,-0.006 -0.005,-0.009 -3.4e-4,-5.8e-4 -5.7e-4,-0.001 -10e-4,-0.002 -3.6e-4,-5.6e-4 -6e-4,-0.001 -10e-4,-0.002 -0.002,-0.004 -0.005,-0.006 -0.007,-0.009 -4.2e-4,-4.9e-4 -6e-4,-10e-4 -10e-4,-0.002 -6e-4,-0.001 -0.002,-0.002 -0.002,-0.003 -0.002,-0.002 -0.004,-0.004 -0.007,-0.006 -10e-4,-0.001 -0.003,-0.002 -0.004,-0.004 -0.001,-6e-4 -0.002,-10e-4 -0.003,-0.002 -10e-4,-0.001 -0.003,-0.002 -0.004,-0.003 -0.003,-0.002 -0.006,-0.004 -0.009,-0.005 -10e-4,-4.4e-4 -0.002,-6e-4 -0.003,-0.001 -0.001,-3.8e-4 -0.002,-6e-4 -0.003,-0.001 -5.1e-4,-1.6e-4 -10e-4,-4.8e-4 -0.002,-6e-4 -5.1e-4,-1.4e-4 -0.001,-1.8e-4 -0.002,-3.1e-4 -5e-4,-1.3e-4 -6e-4,-2e-4 -10e-4,-3.1e-4 -0.002,-3.4e-4 -0.003,-6e-4 -0.005,-0.001 -5.1e-4,-7e-5 -10e-4,-2.5e-4 -0.002,-3.1e-4 -0.002,-2.9e-4 -0.005,-4e-4 -0.007,-3.1e-4 z m 0.18881,0.2285 c -0.004,3.9e-4 -0.008,10e-4 -0.0112,0.002 -0.004,0.001 -0.008,0.003 -0.0112,0.005 -0.004,0.002 -0.006,0.005 -0.009,0.008 -0.003,0.002 -0.005,0.005 -0.008,0.009 -0.002,0.004 -0.004,0.007 -0.005,0.0109 -10e-4,0.004 -0.002,0.008 -0.002,0.0127 -4e-5,0.004 2.9e-4,0.009 0.001,0.0133 10e-4,0.005 0.002,0.009 0.004,0.014 0.002,0.005 0.004,0.009 0.007,0.0139 0.003,0.005 0.006,0.009 0.01,0.013 0.004,0.004 0.008,0.009 0.0124,0.0124 0.005,0.005 0.009,0.009 0.0143,0.0121 0.005,0.004 0.01,0.007 0.0149,0.009 0.005,0.002 0.01,0.005 0.0146,0.006 0.005,0.002 0.01,0.003 0.0146,0.004 0.005,6e-4 0.009,0.001 0.0136,6e-4 5.5e-4,-5e-5 0.001,5e-5 0.002,0 0.003,-3.5e-4 0.006,-0.001 0.009,-0.002 5e-4,-1.5e-4 10e-4,-1.5e-4 0.002,-3.1e-4 4.9e-4,-1.7e-4 10e-4,-4.5e-4 0.002,-6e-4 4.8e-4,-1.8e-4 6e-4,-1.2e-4 10e-4,-3.2e-4 10e-4,-5.6e-4 0.003,-0.001 0.004,-0.002 4.4e-4,-2.3e-4 6e-4,-3.6e-4 10e-4,-6e-4 6e-4,-4.9e-4 0.002,-0.001 0.002,-0.002 6e-4,-5.5e-4 0.002,-0.001 0.002,-0.002 4e-4,-3.1e-4 6e-4,-5.8e-4 10e-4,-10e-4 0.002,-0.002 0.004,-0.004 0.005,-0.005 3.2e-4,-3.2e-4 6e-4,-5.8e-4 10e-4,-10e-4 0.002,-0.002 0.003,-0.004 0.004,-0.005 2.5e-4,-3.9e-4 4e-4,-6e-4 6e-4,-10e-4 2.2e-4,-4e-4 4.1e-4,-6e-4 6e-4,-0.001 6e-4,-0.002 0.002,-0.004 0.002,-0.005 1.4e-4,-4.5e-4 1.8e-4,-6e-4 3.1e-4,-0.001 3.7e-4,-0.001 6e-4,-0.003 10e-4,-0.004 6e-4,-0.004 10e-4,-0.008 10e-4,-0.0127 -1.1e-4,-0.004 -6e-4,-0.009 -0.002,-0.0133 -10e-4,-0.005 -0.002,-0.009 -0.004,-0.0139 -0.002,-0.005 -0.004,-0.009 -0.007,-0.014 -0.002,-0.004 -0.004,-0.007 -0.006,-0.0102 -3.8e-4,-5.5e-4 -6e-4,-0.001 -10e-4,-0.002 -3.9e-4,-5.4e-4 -6e-4,-0.001 -10e-4,-0.002 -0.003,-0.004 -0.007,-0.008 -0.0109,-0.0121 -5.5e-4,-5.7e-4 -10e-4,-0.001 -0.002,-0.002 -5.5e-4,-5.5e-4 -10e-4,-10e-4 -0.002,-0.002 -0.002,-0.002 -0.005,-0.004 -0.007,-0.006 -5.7e-4,-4.6e-4 -0.001,-0.001 -0.002,-0.002 -5.8e-4,-4.5e-4 -10e-4,-6e-4 -0.002,-0.001 -0.002,-0.001 -0.004,-0.002 -0.005,-0.004 -0.003,-0.002 -0.006,-0.004 -0.009,-0.005 -0.004,-0.002 -0.007,-0.004 -0.0112,-0.005 -6e-4,-2.4e-4 -10e-4,-3.9e-4 -0.002,-6e-4 -6e-4,-2.2e-4 -0.001,-4.1e-4 -0.002,-6e-4 -10e-4,-4e-4 -0.002,-0.001 -0.004,-0.001 -6e-4,-1.6e-4 -10e-4,-1.5e-4 -0.002,-3e-4 -6e-4,-1.6e-4 -10e-4,-4.8e-4 -0.002,-6e-4 -5.9e-4,-1.5e-4 -0.001,-1.9e-4 -0.002,-3.1e-4 -0.002,-3.8e-4 -0.004,-6e-4 -0.005,-0.001 -5.9e-4,-8e-5 -10e-4,-2.4e-4 -0.002,-3.2e-4 -0.004,-4.8e-4 -0.008,-5.8e-4 -0.0121,-3e-4 -5.6e-4,3e-5 -10e-4,-6e-5 -0.002,0 z m 0.29081,0.17578 c -0.005,2.9e-4 -0.009,0.001 -0.0136,0.002 -0.005,10e-4 -0.01,0.002 -0.0143,0.004 -0.005,0.002 -0.009,0.004 -0.0127,0.006 -0.004,0.002 -0.008,0.005 -0.0112,0.008 -0.003,0.003 -0.006,0.006 -0.008,0.01 -0.002,0.004 -0.004,0.007 -0.006,0.0112 -10e-4,0.004 -0.002,0.008 -0.002,0.0121 -1e-4,0.004 4.6e-4,0.008 0.002,0.0121 10e-4,0.004 0.003,0.008 0.005,0.0121 0.002,0.004 0.005,0.008 0.008,0.0112 0.003,0.004 0.007,0.007 0.0109,0.0102 0.004,0.003 0.009,0.006 0.0133,0.009 0.005,0.002 0.0101,0.005 0.0155,0.007 0.005,0.002 0.011,0.004 0.017,0.005 0.005,0.002 0.0105,0.003 0.0158,0.004 0.005,0.001 0.0106,0.002 0.0158,0.002 0.004,1e-4 0.008,9e-5 0.0118,-3e-4 10e-4,-1.3e-4 0.002,-4.5e-4 0.004,-6e-4 0.002,-3.6e-4 0.005,-10e-4 0.007,-0.002 6e-4,-1.5e-4 10e-4,-1.6e-4 0.002,-3.1e-4 6e-4,-1.6e-4 0.001,-4.6e-4 0.002,-6e-4 6e-4,-1.7e-4 10e-4,-1.3e-4 0.002,-3.1e-4 5.8e-4,-1.8e-4 10e-4,-4.4e-4 0.002,-6e-4 0.003,-0.001 0.005,-0.002 0.008,-0.003 5.3e-4,-2.4e-4 0.001,-6e-4 0.002,-0.001 10e-4,-5.1e-4 0.002,-0.001 0.003,-0.002 0.001,-5.6e-4 0.002,-0.001 0.003,-0.002 10e-4,-10e-4 0.003,-0.002 0.004,-0.003 10e-4,-10e-4 0.002,-0.002 0.004,-0.003 10e-4,-10e-4 0.002,-0.002 0.004,-0.004 3.6e-4,-3.8e-4 6e-4,-5.5e-4 0.001,-6e-4 6e-4,-6e-4 10e-4,-0.002 0.002,-0.002 6e-4,-6e-4 10e-4,-0.002 0.002,-0.002 5.8e-4,-6e-4 0.001,-0.002 0.002,-0.003 0.002,-0.003 0.003,-0.006 0.004,-0.009 3e-4,-10e-4 6e-4,-0.002 10e-4,-0.003 6e-4,-0.003 10e-4,-0.006 10e-4,-0.009 -10e-6,-0.004 -6e-4,-0.008 -0.002,-0.0121 -10e-4,-0.004 -0.003,-0.008 -0.005,-0.0124 -0.002,-0.004 -0.005,-0.008 -0.008,-0.0115 -10e-4,-0.001 -0.002,-0.002 -0.004,-0.004 -4.3e-4,-4.5e-4 -6e-4,-0.001 -10e-4,-0.002 -0.002,-0.002 -0.004,-0.004 -0.005,-0.005 -0.004,-0.004 -0.009,-0.007 -0.0133,-0.01 -0.005,-0.003 -0.01,-0.005 -0.0152,-0.008 -10e-4,-6e-4 -0.002,-10e-4 -0.004,-0.002 -0.002,-6e-4 -0.004,-0.002 -0.006,-0.002 -0.002,-6e-4 -0.004,-0.001 -0.007,-0.002 -6e-4,-1.7e-4 -10e-4,-4.6e-4 -0.002,-6e-4 -6e-4,-1.5e-4 -0.002,-1.6e-4 -0.002,-3.1e-4 -6e-4,-1.4e-4 -0.001,-1.8e-4 -0.002,-3e-4 -6e-4,-1.3e-4 -10e-4,-5.1e-4 -0.002,-6e-4 -6e-4,-1.2e-4 -0.002,-2.1e-4 -0.002,-3.2e-4 -6e-4,-1e-4 -10e-4,9e-5 -0.002,0 -10e-4,-1.8e-4 -0.003,-4.7e-4 -0.004,-6e-4 -6e-4,-7e-5 -10e-4,-2.4e-4 -0.002,-3.1e-4 -0.005,-4.2e-4 -0.009,-4.9e-4 -0.0136,-3e-4 -6e-4,2e-5 -10e-4,-5e-5 -0.002,0 z m 0.64766,0.0124 c -0.002,1.2e-4 -0.004,4e-4 -0.007,6e-4 -0.006,0.001 -0.0111,0.003 -0.0164,0.005 -0.005,0.002 -0.0104,0.004 -0.0152,0.007 -0.005,0.002 -0.009,0.005 -0.0133,0.008 -0.004,0.003 -0.008,0.006 -0.0109,0.01 -0.003,0.004 -0.006,0.007 -0.009,0.0106 -6e-4,0.001 -10e-4,0.002 -0.002,0.003 -2.9e-4,4.8e-4 -6e-4,0.001 -0.001,0.002 -5.5e-4,0.001 -10e-4,0.002 -0.002,0.003 -5e-4,0.001 -6e-4,0.002 -10e-4,0.003 -2.1e-4,5.1e-4 -4.2e-4,0.001 -6e-4,0.002 -3.8e-4,10e-4 -6e-4,0.002 -10e-4,0.003 -1.5e-4,5.2e-4 -4.9e-4,10e-4 -6e-4,0.002 -5.1e-4,0.002 -6e-4,0.004 -10e-4,0.007 -7e-5,5.4e-4 -2.4e-4,10e-4 -3e-4,0.002 -4.5e-4,0.004 -6e-4,0.008 -3.2e-4,0.0118 6e-5,5.7e-4 2.4e-4,0.001 3.2e-4,0.002 1.5e-4,10e-4 4e-4,0.002 6e-4,0.003 3.2e-4,10e-4 6e-4,0.003 10e-4,0.004 4.7e-4,0.001 0.001,0.002 0.002,0.004 4.2e-4,0.001 6e-4,0.002 10e-4,0.003 2.4e-4,4.4e-4 6e-4,6e-4 10e-4,0.001 0.001,0.002 0.002,0.004 0.004,0.006 3.3e-4,3.9e-4 5.8e-4,6e-4 10e-4,10e-4 6e-4,6e-4 0.001,0.001 0.002,0.002 6e-4,6e-4 0.002,10e-4 0.002,0.002 3.9e-4,3.3e-4 6e-4,6e-4 10e-4,0.001 6e-4,6e-4 0.002,10e-4 0.002,0.002 4.3e-4,3.3e-4 6e-4,6e-4 10e-4,6e-4 0.002,10e-4 0.004,0.002 0.006,0.004 5.1e-4,2.8e-4 10e-4,6e-4 0.002,0.001 10e-4,5.3e-4 0.002,0.001 0.003,0.002 0.002,0.001 0.005,0.002 0.008,0.004 5.8e-4,2e-4 10e-4,4.4e-4 0.002,6e-4 0.001,3.8e-4 0.002,6e-4 0.004,10e-4 6e-4,1.6e-4 10e-4,1.7e-4 0.002,3.2e-4 10e-4,2.8e-4 0.002,6e-4 0.004,0.001 6e-4,1.1e-4 0.001,2e-4 0.002,3.1e-4 0.002,4.1e-4 0.005,6e-4 0.008,10e-4 6e-4,5e-5 10e-4,-4e-5 0.002,0 6e-4,3e-5 10e-4,2.8e-4 0.002,3e-4 0.004,1.7e-4 0.008,3e-5 0.0127,-3e-4 0.001,-1.2e-4 0.003,-1.4e-4 0.004,-3.1e-4 0.003,-3.5e-4 0.006,-10e-4 0.009,-0.002 6e-4,-1.5e-4 10e-4,-1.5e-4 0.002,-3.2e-4 6e-4,-1.5e-4 10e-4,-4.4e-4 0.002,-6e-4 10e-4,-3.4e-4 0.003,-6e-4 0.004,-0.001 6e-4,-1.8e-4 10e-4,-1.1e-4 0.002,-3e-4 0.004,-0.001 0.007,-0.002 0.0102,-0.004 0.005,-0.002 0.0105,-0.004 0.0152,-0.007 0.002,-6e-4 0.004,-0.002 0.005,-0.003 0.001,-6e-4 0.002,-10e-4 0.003,-0.002 5.3e-4,-3.5e-4 10e-4,-5.8e-4 0.002,-6e-4 0.001,-6e-4 0.002,-10e-4 0.003,-0.002 10e-4,-6e-4 0.002,-0.001 0.003,-0.002 0.003,-0.002 0.005,-0.004 0.008,-0.007 10e-4,-0.001 0.002,-0.002 0.004,-0.004 0.002,-0.002 0.004,-0.004 0.005,-0.006 0.002,-0.004 0.004,-0.007 0.006,-0.0112 3.8e-4,-0.001 6e-4,-0.002 0.001,-0.003 6e-4,-0.002 10e-4,-0.005 0.002,-0.007 8e-5,-4.8e-4 2.5e-4,-0.001 3.1e-4,-0.002 1.3e-4,-0.001 2.4e-4,-0.002 3.1e-4,-0.003 2.1e-4,-0.003 1.4e-4,-0.006 -3.1e-4,-0.009 -6e-4,-0.004 -0.002,-0.008 -0.004,-0.0112 -0.002,-0.004 -0.004,-0.007 -0.007,-0.01 -6e-4,-6e-4 -0.001,-10e-4 -0.002,-0.002 -6e-4,-6e-4 -10e-4,-0.002 -0.002,-0.002 -4.1e-4,-3.7e-4 -6e-4,-5.8e-4 -10e-4,-6e-4 -4.2e-4,-3.6e-4 -0.001,-5.9e-4 -0.002,-0.001 -4.3e-4,-3.5e-4 -6e-4,-10e-4 -10e-4,-10e-4 -4.4e-4,-3.5e-4 -6e-4,-6e-4 -10e-4,-0.001 -0.003,-0.002 -0.007,-0.004 -0.0102,-0.006 -5.3e-4,-2.8e-4 -10e-4,-6e-4 -0.002,-6e-4 -5.3e-4,-2.7e-4 -10e-4,-3.8e-4 -0.002,-6e-4 -0.002,-0.001 -0.004,-0.002 -0.007,-0.003 -5.9e-4,-2.1e-4 -10e-4,-4.2e-4 -0.002,-6e-4 -0.001,-4e-4 -0.002,-6e-4 -0.004,-10e-4 -0.001,-3.9e-4 -0.002,-6.1e-4 -0.004,-0.001 -6e-4,-1.8e-4 -10e-4,-1.5e-4 -0.002,-3.1e-4 -10e-4,-3.3e-4 -0.002,-6e-4 -0.004,-0.001 -0.002,-4.5e-4 -0.004,-6e-4 -0.006,-0.001 -6e-4,-1.1e-4 -10e-4,-2.1e-4 -0.002,-3.2e-4 -6e-4,-9e-5 -0.002,-2.2e-4 -0.002,-3e-4 -0.001,-1.8e-4 -0.002,-1.9e-4 -0.004,-3.1e-4 -6e-4,-7e-5 -10e-4,-2.6e-4 -0.002,-3.2e-4 -0.002,-1.5e-4 -0.004,-2.4e-4 -0.006,-3e-4 -0.004,-1.1e-4 -0.007,-1.9e-4 -0.0109,0 z m -0.2967,0.0415 c -0.003,4e-5 -0.006,3.2e-4 -0.009,6e-4 -0.006,0 -0.0113,4.8e-4 -0.0167,0.001 -0.005,6e-4 -0.0108,0.002 -0.0158,0.004 -0.005,0.001 -0.01,0.003 -0.0143,0.005 -0.004,0.002 -0.008,0.004 -0.0121,0.007 -0.004,0.002 -0.007,0.005 -0.0103,0.009 -0.003,0.003 -0.005,0.006 -0.007,0.01 -0.002,0.004 -0.004,0.007 -0.005,0.0109 -10e-4,0.004 -0.002,0.008 -0.002,0.0118 0,0.005 4.4e-4,0.009 0.002,0.0133 10e-4,0.004 0.003,0.008 0.005,0.0118 0.002,0.004 0.005,0.007 0.008,0.0106 0.003,0.003 0.007,0.006 0.0106,0.009 0.004,0.002 0.009,0.005 0.0133,0.007 0.005,0.002 0.01,0.004 0.0152,0.005 0.005,0.001 0.0113,0.002 0.0173,0.002 0.006,3.1e-4 0.0123,3e-4 0.0189,-3e-4 0.004,0 0.009,-1.7e-4 0.0127,-6e-4 10e-4,-1.6e-4 0.002,-4.4e-4 0.004,-6e-4 6e-4,-10e-5 10e-4,-2.1e-4 0.002,-3.2e-4 0.003,-4.3e-4 0.005,-10e-4 0.008,-0.002 10e-4,-3.1e-4 0.003,-5.8e-4 0.004,-6e-4 6e-4,-1.7e-4 10e-4,-4.3e-4 0.002,-6e-4 0.003,-0.001 0.006,-0.002 0.009,-0.003 0.002,-6e-4 0.004,-0.001 0.005,-0.002 10e-4,-5.1e-4 0.002,-0.001 0.003,-0.002 10e-4,-5.3e-4 0.002,-10e-4 0.003,-0.002 0.002,-0.001 0.004,-0.002 0.006,-0.004 0.002,-10e-4 0.004,-0.002 0.005,-0.004 10e-4,-0.001 0.002,-0.002 0.004,-0.004 3.8e-4,-3.9e-4 6e-4,-6e-4 10e-4,-0.001 0.002,-0.002 0.004,-0.005 0.006,-0.007 2.8e-4,-4.2e-4 3.5e-4,-6e-4 6e-4,-0.001 2.8e-4,-4.2e-4 6e-4,-6e-4 0.001,-0.001 0.002,-0.003 0.004,-0.006 0.005,-0.009 1.6e-4,-4.8e-4 1.7e-4,-10e-4 3.1e-4,-0.002 2.7e-4,-0.001 4.2e-4,-0.002 6e-4,-0.003 5.8e-4,-0.003 10e-4,-0.006 10e-4,-0.009 0,-5.8e-4 10e-6,-0.001 0,-0.002 -1.1e-4,-0.003 -3.6e-4,-0.005 -10e-4,-0.008 -2.4e-4,-10e-4 -6e-4,-0.002 -10e-4,-0.003 -1.6e-4,-5.3e-4 -4.5e-4,-10e-4 -6e-4,-0.002 -10e-4,-0.004 -0.002,-0.007 -0.005,-0.0102 -2.9e-4,-4.7e-4 -6e-4,-0.001 -10e-4,-0.002 -0.002,-0.003 -0.004,-0.005 -0.006,-0.008 -4e-4,-4.1e-4 -6e-4,-6e-4 -10e-4,-10e-4 -6e-4,-6e-4 -0.002,-0.002 -0.002,-0.002 -0.002,-0.002 -0.005,-0.004 -0.009,-0.006 -5.2e-4,-3.2e-4 -10e-4,-6e-4 -0.002,-10e-4 -10e-4,-6e-4 -0.002,-0.001 -0.003,-0.002 -0.002,-10e-4 -0.004,-0.002 -0.007,-0.004 -5.9e-4,-2.5e-4 -10e-4,-3.8e-4 -0.002,-6e-4 -0.003,-0.001 -0.006,-0.002 -0.009,-0.003 -6e-4,-1.8e-4 -0.001,-4.5e-4 -0.002,-6e-4 -10e-4,-3.4e-4 -0.003,-6e-4 -0.004,-10e-4 -0.002,-5.7e-4 -0.005,-0.001 -0.008,-0.002 -6e-4,-9e-5 -0.001,8e-5 -0.002,0 -10e-4,-1.5e-4 -0.003,-5.1e-4 -0.004,-6e-4 -6e-4,-5e-5 -10e-4,4e-5 -0.002,0 -0.003,-1.5e-4 -0.006,-3.5e-4 -0.009,-3.1e-4 z"
       inkscape:export-filename="anthony-martin-portfolio\images\github.svg"
       inkscape:export-xdpi="96"
       inkscape:export-ydpi="96" /></g><style
     type="text/css"
     id="style56646">.st0{fill:#0acf83}.st1{fill:#a259ff}.st2{fill:#f24e1e}.st3{fill:#ff7262}.st4{fill:#1abcfe}</style></svg>
