<?xml version="1.0" encoding="UTF-8" standalone="no"?>
<!-- Created with Inkscape (http://www.inkscape.org/) -->

<svg
   width="7.9368286mm"
   height="7.9368744mm"
   viewBox="0 0 7.9368286 7.9368744"
   version="1.1"
   id="svg5"
   xml:space="preserve"
   inkscape:version="1.2.1 (9c6d41e410, 2022-07-14)"
   sodipodi:docname="Plantilla.svg"
   xmlns:inkscape="http://www.inkscape.org/namespaces/inkscape"
   xmlns:sodipodi="http://sodipodi.sourceforge.net/DTD/sodipodi-0.dtd"
   xmlns:xlink="http://www.w3.org/1999/xlink"
   xmlns="http://www.w3.org/2000/svg"
   xmlns:svg="http://www.w3.org/2000/svg"><sodipodi:namedview
     id="namedview7"
     pagecolor="#ffffff"
     bordercolor="#000000"
     borderopacity="0.25"
     inkscape:showpageshadow="2"
     inkscape:pageopacity="0.0"
     inkscape:pagecheckerboard="0"
     inkscape:deskcolor="#d1d1d1"
     inkscape:document-units="mm"
     showgrid="false"
     inkscape:zoom="0.21859623"
     inkscape:cx="2721.9134"
     inkscape:cy="1967.0971"
     inkscape:window-width="1920"
     inkscape:window-height="1017"
     inkscape:window-x="-8"
     inkscape:window-y="-8"
     inkscape:window-maximized="1"
     inkscape:current-layer="layer1"
     showguides="false" /><defs
     id="defs2"><linearGradient
       inkscape:collect="always"
       id="linearGradient10953"><stop
         style="stop-color:#fffefb;stop-opacity:1;"
         offset="0"
         id="stop10949" /><stop
         style="stop-color:#deddda;stop-opacity:0;"
         offset="1"
         id="stop10951" /></linearGradient><linearGradient
       inkscape:collect="always"
       xlink:href="#linearGradient10953"
       id="linearGradient22635"
       gradientUnits="userSpaceOnUse"
       x1="350.58063"
       y1="167.56787"
       x2="858.58063"
       y2="167.56787"
       gradientTransform="matrix(1.3175067,0,0,1.3175067,-232.45969,-271.48495)" /><style
       id="style6405">.a,.c{fill:#c21325;}.a,.b{stroke:#fff;stroke-width:20px;}.b{fill:none;}</style></defs><g
     inkscape:label="Capa 1"
     inkscape:groupmode="layer"
     id="layer1"
     transform="translate(-618.27119,91.720594)"><path
       d="m 625.64114,-91.7206 h -6.8048 c -0.31181,0 -0.56515,0.25689 -0.56515,0.57223 v 6.7924 c 0,0.31535 0.25334,0.57224 0.56515,0.57224 h 6.8048 c 0.3118,0 0.56692,-0.25689 0.56692,-0.57224 v -6.7924 c 0,-0.31534 -0.25512,-0.57223 -0.56692,-0.57223 z m -4.97117,6.80303 h -1.17636 v -3.78773 h 1.17813 v 3.78773 z m -0.5882,-4.30504 c -0.37734,0 -0.68206,-0.30649 -0.68206,-0.68207 0,-0.37559 0.30472,-0.68208 0.68206,-0.68208 0.37559,0 0.68209,0.30649 0.68209,0.68208 0,0.37735 -0.30472,0.68207 -0.68209,0.68207 z m 4.99775,4.30504 h -1.17636 v -1.84249 c 0,-0.43936 -0.009,-1.00451 -0.6112,-1.00451 -0.61299,0 -0.70688,0.47834 -0.70688,0.97262 v 1.87438 h -1.17636 v -3.78773 h 1.12853 v 0.51731 h 0.016 c 0.15767,-0.29763 0.54211,-0.6112 1.11435,-0.6112 1.19053,0 1.41198,0.78482 1.41198,1.80528 z"
       id="path10617-4"
       style="fill:#272935;fill-opacity:1;stroke-width:0.0177162"
       inkscape:export-filename="anthony-martin-portfolio\images\linkedin.svg"
       inkscape:export-xdpi="96"
       inkscape:export-ydpi="96" /></g><style
     type="text/css"
     id="style56646">.st0{fill:#0acf83}.st1{fill:#a259ff}.st2{fill:#f24e1e}.st3{fill:#ff7262}.st4{fill:#1abcfe}</style></svg>
