<?xml version="1.0" encoding="UTF-8" standalone="no"?>
<!-- Created with Inkscape (http://www.inkscape.org/) -->

<svg
   width="19.709946mm"
   height="21.140228mm"
   viewBox="0 0 19.709946 21.140228"
   version="1.1"
   id="svg5"
   xml:space="preserve"
   inkscape:version="1.2.1 (9c6d41e410, 2022-07-14)"
   sodipodi:docname="Plantilla.svg"
   xmlns:inkscape="http://www.inkscape.org/namespaces/inkscape"
   xmlns:sodipodi="http://sodipodi.sourceforge.net/DTD/sodipodi-0.dtd"
   xmlns:xlink="http://www.w3.org/1999/xlink"
   xmlns="http://www.w3.org/2000/svg"
   xmlns:svg="http://www.w3.org/2000/svg"><sodipodi:namedview
     id="namedview7"
     pagecolor="#ffffff"
     bordercolor="#000000"
     borderopacity="0.25"
     inkscape:showpageshadow="2"
     inkscape:pageopacity="0.0"
     inkscape:pagecheckerboard="0"
     inkscape:deskcolor="#d1d1d1"
     inkscape:document-units="mm"
     showgrid="false"
     inkscape:zoom="0.21859623"
     inkscape:cx="2721.9134"
     inkscape:cy="1967.0971"
     inkscape:window-width="1920"
     inkscape:window-height="1017"
     inkscape:window-x="-8"
     inkscape:window-y="-8"
     inkscape:window-maximized="1"
     inkscape:current-layer="layer1"
     showguides="false" /><defs
     id="defs2"><linearGradient
       inkscape:collect="always"
       id="linearGradient10953"><stop
         style="stop-color:#fffefb;stop-opacity:1;"
         offset="0"
         id="stop10949" /><stop
         style="stop-color:#deddda;stop-opacity:0;"
         offset="1"
         id="stop10951" /></linearGradient><linearGradient
       inkscape:collect="always"
       xlink:href="#linearGradient10953"
       id="linearGradient22635"
       gradientUnits="userSpaceOnUse"
       x1="350.58063"
       y1="167.56787"
       x2="858.58063"
       y2="167.56787"
       gradientTransform="matrix(1.3175067,0,0,1.3175067,-232.45969,-271.48495)" /><style
       id="style6405">.a,.c{fill:#c21325;}.a,.b{stroke:#fff;stroke-width:20px;}.b{fill:none;}</style></defs><g
     inkscape:label="Capa 1"
     inkscape:groupmode="layer"
     id="layer1"
     transform="translate(137.49144,303.48077)"><rect
       style="fill:none;stroke-width:0.596512;stroke-linecap:round;stroke-linejoin:round;paint-order:markers fill stroke"
       id="rect3505-3"
       width="21.166666"
       height="21.166666"
       x="-139.46581"
       y="-303.49399" /><path
       style="fill:#ffffff;fill-opacity:1;stroke-width:0.0106089"
       d="m -124.98317,-282.34596 c 0.0104,-0.003 0.0247,-0.002 0.0319,4e-4 0.007,0.003 -9.9e-4,0.005 -0.0188,0.005 -0.0175,-1.9e-4 -0.0234,-0.002 -0.0131,-0.005 z m 0.15363,3.2e-4 c 0.007,-0.003 0.0192,-0.003 0.0266,0 0.007,0.003 9.9e-4,0.005 -0.0133,0.005 -0.0146,0 -0.0206,-0.002 -0.0133,-0.005 z m -0.26788,-0.61905 c -0.17655,-0.0188 -0.36235,-0.0713 -0.5051,-0.14288 -0.23819,-0.11942 -0.445,-0.31926 -0.60952,-0.58897 -0.10957,-0.17963 -0.23844,-0.47158 -0.27939,-0.6329 -0.10028,-0.39516 -0.17126,-1.26778 -0.20264,-2.49141 -0.0134,-0.52201 -0.0132,-1.72532 3.2e-4,-2.28388 0.0104,-0.42677 0.0101,-0.44085 -0.012,-0.55167 -0.0866,-0.43577 -0.35553,-0.78909 -0.71528,-0.93986 -0.16737,-0.0701 -0.23749,-0.0855 -0.39226,-0.0859 -0.0758,-2.1e-4 -0.15307,0.003 -0.1716,0.007 l -0.0337,0.008 0.021,-0.0765 c 0.0729,-0.26607 0.29492,-0.86411 0.44987,-1.21182 0.22113,-0.49622 0.31123,-0.73117 0.39839,-1.0389 0.25103,-0.88623 0.24698,-1.95379 -0.0123,-3.24159 -0.055,-0.27344 -0.0788,-0.36711 -0.12361,-0.48802 -0.17692,-0.47709 -0.50223,-0.79613 -0.96181,-0.94329 -0.19231,-0.0616 -0.32094,-0.0787 -0.59526,-0.0793 -0.18178,-4e-4 -0.27648,0.004 -0.37132,0.0184 -0.46181,0.0686 -0.94973,0.22906 -1.39434,0.45844 -0.0725,0.0374 -0.13406,0.0659 -0.13671,0.0632 -0.0167,-0.0167 0.0752,-0.68753 0.13603,-0.99358 0.3362,-1.69122 1.09296,-2.88252 2.19013,-3.44777 0.40386,-0.20806 0.79766,-0.32449 1.31076,-0.38751 0.12007,-0.0148 0.23528,-0.019 0.52513,-0.0192 0.37769,-3.2e-4 0.51856,0.008 0.82579,0.0484 1.66977,0.2203 3.09641,1.11894 4.14149,2.60871 0.31877,0.45441 0.64699,1.07649 0.79982,1.51585 l 0.0199,0.0571 -0.0453,-0.006 c -0.025,-0.003 -0.15056,-0.0119 -0.27914,-0.0188 -0.56965,-0.0308 -1.04187,0.0457 -1.41192,0.2286 -0.7075,0.34961 -0.97055,1.06543 -0.77161,2.09976 0.14088,0.73245 0.51246,1.62779 1.1695,2.81791 0.29935,0.54221 0.35992,0.65634 0.41957,0.79036 0.1517,0.34087 0.31223,0.59554 0.62193,0.98662 0.15189,0.1918 0.1746,0.22409 0.1625,0.23099 -0.005,0.003 -0.0469,0.0175 -0.0939,0.033 -0.41249,0.13577 -0.67196,0.43964 -0.76202,0.89241 -0.0245,0.1228 -0.0384,0.29561 -0.0385,0.47506 0,0.21321 -0.0677,0.84568 -0.22865,2.13472 -0.18763,1.50313 -0.29501,2.21377 -0.38634,2.55673 -0.23661,0.88851 -0.68945,1.29366 -1.72957,1.5474 -0.35979,0.0878 -0.67294,0.11864 -0.92827,0.0915 z m -2.21027,-3.74477 c 0,-0.0146 0.002,-0.0206 0.005,-0.0133 0.003,0.007 0.003,0.0193 0,0.0266 -0.003,0.007 -0.005,0.001 -0.005,-0.0133 z m -0.4774,-0.15913 c 0,-0.0146 0.002,-0.0206 0.005,-0.0133 0.003,0.007 0.003,0.0192 0,0.0266 -0.003,0.007 -0.005,0.001 -0.005,-0.0133 z m 0.46718,-0.36601 c 1.9e-4,-0.0175 0.002,-0.0234 0.005,-0.0131 0.003,0.0104 0.002,0.0247 -4e-4,0.0319 -0.003,0.007 -0.005,-10e-4 -0.005,-0.0188 z m 6.45957,-0.27672 c 4.1e-4,-0.0124 0.003,-0.0149 0.006,-0.006 0.003,0.008 0.003,0.0168 -8.1e-4,0.0204 -0.004,0.004 -0.006,-0.003 -0.006,-0.014 z m 0.33666,-0.37237 c 0.008,-0.003 0.0168,-0.003 0.0204,8.2e-4 0.004,0.004 -0.003,0.006 -0.014,0.006 -0.0124,-4.2e-4 -0.0149,-0.003 -0.006,-0.006 z m 0.23339,0 c 0.008,-0.003 0.0168,-0.003 0.0204,8.2e-4 0.004,0.004 -0.003,0.006 -0.0139,0.006 -0.0124,-4.2e-4 -0.0149,-0.003 -0.006,-0.006 z m -9.2065,-0.392 c -0.21955,-0.0203 -0.52868,-0.0796 -0.68497,-0.13153 -0.10824,-0.0359 -0.27183,-0.11505 -0.27787,-0.13438 -0.006,-0.019 0.23465,-0.0915 0.46952,-0.14161 0.75435,-0.16089 1.05926,-0.28623 1.31757,-0.54158 0.0495,-0.049 0.17551,-0.19479 0.27984,-0.3239 0.35226,-0.43595 0.43198,-0.51215 0.54576,-0.52159 0.0684,-0.006 0.19369,0.0336 0.26602,0.0833 0.12355,0.085 0.23626,0.26957 0.26481,0.43361 0.0273,0.15684 0.006,0.23552 -0.1,0.37672 -0.31091,0.41262 -0.71035,0.69254 -1.16834,0.81873 -0.22551,0.0621 -0.35724,0.0797 -0.62592,0.0833 -0.13128,0.002 -0.26018,0.001 -0.28644,-10e-4 z m 8.94062,-0.24431 c 0.007,-0.003 0.0192,-0.003 0.0266,0 0.007,0.003 10e-4,0.005 -0.0133,0.005 -0.0146,0 -0.0206,-0.002 -0.0133,-0.005 z m 0.24951,-3.2e-4 c 0.0103,-0.003 0.0247,-0.002 0.0319,4e-4 0.007,0.003 -10e-4,0.005 -0.0188,0.005 -0.0175,-2.1e-4 -0.0234,-0.002 -0.0131,-0.005 z m -10.85489,-0.0201 c 4.1e-4,-0.0124 0.003,-0.0149 0.006,-0.006 0.003,0.008 0.003,0.0168 -8.3e-4,0.0204 -0.004,0.004 -0.006,-0.003 -0.006,-0.014 z m -1.69609,-0.0263 c -0.088,-0.0155 -0.20272,-0.0646 -0.3001,-0.12849 -0.72869,-0.47778 -1.52071,-2.09484 -2.22041,-4.53343 -0.3942,-1.37388 -0.75232,-3.02538 -0.87877,-4.05259 -0.0213,-0.17278 -0.0236,-0.23994 -0.0239,-0.70549 -4e-4,-0.53947 0.008,-0.67976 0.058,-1.02376 0.15517,-1.05887 0.56403,-1.83684 1.22519,-2.3313 0.50318,-0.3763 1.11622,-0.58348 1.94142,-0.65612 0.20694,-0.0182 0.75657,-0.0151 1.00785,0.006 0.57276,0.0474 1.1261,0.14346 1.72394,0.29914 0.17878,0.0465 0.56715,0.15979 0.62968,0.18359 l 0.0303,0.0115 -0.0939,0.0983 c -0.96066,1.00533 -1.54453,2.63174 -1.62894,4.53747 -0.0107,0.24167 -0.01,0.32655 0.006,0.6047 0.06,1.07474 0.0458,1.72312 -0.0541,2.46656 -0.0258,0.19151 -0.0286,0.2437 -0.0285,0.53575 1.2e-4,0.28334 0.003,0.34256 0.0241,0.47626 0.1064,0.678 0.40705,1.27637 0.87926,1.7499 l 0.16228,0.16273 -0.17814,0.19267 c -0.3984,0.43087 -0.8781,0.97444 -1.24203,1.40737 -0.34336,0.40846 -0.4733,0.53364 -0.64861,0.62488 -0.13531,0.0704 -0.26913,0.096 -0.39036,0.0746 z m 12.1531,-0.5731 c -0.19837,-0.0164 -0.42155,-0.0676 -0.48286,-0.11079 -0.0214,-0.0151 -0.0239,-0.0258 -0.0239,-0.10152 0,-0.28008 0.0605,-0.49544 0.16992,-0.60486 0.0658,-0.0659 0.14504,-0.1046 0.32224,-0.1576 l 0.14554,-0.0436 0.0795,0.0532 c 0.27514,0.18402 0.59947,0.26353 1.11554,0.27347 0.45248,0.009 0.87093,-0.0322 1.39058,-0.13598 0.0603,-0.0121 0.11191,-0.0197 0.11467,-0.0169 0.007,0.007 -0.1209,0.11117 -0.232,0.19058 -0.23763,0.16987 -0.56962,0.34649 -0.80346,0.42746 -0.50383,0.17446 -1.26439,0.27037 -1.79585,0.22646 z m 1.26296,-1.30064 c 0.008,-0.003 0.0168,-0.003 0.0204,8.3e-4 0.004,0.004 -0.003,0.006 -0.014,0.006 -0.0124,-4.1e-4 -0.0149,-0.003 -0.006,-0.006 z m 0.28576,2.5e-4 c 0.007,-0.003 0.0193,-0.003 0.0266,0 0.007,0.003 10e-4,0.005 -0.0133,0.005 -0.0146,0 -0.0206,-0.002 -0.0133,-0.005 z m -9.66201,-0.38168 c -0.0146,-0.002 -0.0623,-0.009 -0.10609,-0.0152 -0.19358,-0.0275 -0.42466,-0.10222 -0.61789,-0.19989 -0.62617,-0.31649 -1.0951,-0.93293 -1.25332,-1.64756 -0.0475,-0.21469 -0.0543,-0.28645 -0.0543,-0.57592 0,-0.22662 0.004,-0.30612 0.0235,-0.44557 0.0973,-0.70264 0.11891,-1.4345 0.0703,-2.37825 -0.0156,-0.30194 -0.0161,-0.35449 -0.003,-0.36983 0.0327,-0.0394 0.27398,-0.18772 0.45248,-0.27822 0.78479,-0.39789 1.57349,-0.51341 2.00846,-0.29422 0.20322,0.10243 0.34516,0.2705 0.43081,0.51014 0.0808,0.22614 0.19601,0.86029 0.24785,1.36458 0.0905,0.88053 0.021,1.61642 -0.21526,2.27859 -0.0669,0.1876 -0.0945,0.2544 -0.24041,0.58348 -0.15326,0.34557 -0.18481,0.4233 -0.30782,0.75853 -0.0877,0.23891 -0.19748,0.56939 -0.22295,0.67102 l -0.0113,0.0451 -0.0871,-0.002 c -0.0479,-8.2e-4 -0.0991,-0.003 -0.11365,-0.005 z m 0.39229,-5.2802 c 0.17826,-0.062 0.32516,-0.2038 0.34595,-0.33381 0.01,-0.0597 -0.0309,-0.14503 -0.0928,-0.19574 -0.23183,-0.18998 -0.77346,-0.23619 -0.96492,-0.0823 -0.0221,0.0177 -0.0447,0.0322 -0.0504,0.0322 -0.0141,0 -0.0268,0.12675 -0.0172,0.17119 0.0369,0.17049 0.26167,0.37559 0.46959,0.42831 0.0874,0.0222 0.21211,0.0142 0.30973,-0.0198 z m 7.85344,4.84563 c -0.0248,-0.0309 -0.045,-0.061 -0.045,-0.0671 0,-0.006 0.0264,-0.0582 0.0585,-0.11592 0.16358,-0.29283 0.29633,-0.67138 0.35401,-1.00935 0.0435,-0.25524 0.0489,-0.33589 0.0487,-0.72672 -2.4e-4,-0.41039 -0.004,-0.46788 -0.0742,-1.06087 -0.0591,-0.50163 -0.07,-0.62482 -0.0762,-0.86463 -0.009,-0.34469 0.009,-0.55106 0.10272,-1.18289 0.0679,-0.45765 0.0837,-0.6201 0.0945,-0.97125 0.01,-0.31044 0.006,-0.36497 -0.0356,-0.52757 -0.15903,-0.62328 -0.60035,-1.48117 -1.11724,-2.17185 -0.68205,-0.91134 -1.49531,-1.59918 -2.44497,-2.06787 l -0.21998,-0.10858 0.12595,-0.0234 c 1.37562,-0.25542 2.69462,-0.15402 3.75837,0.28894 0.74978,0.31221 1.39301,0.79011 1.91061,1.41951 0.10585,0.12872 0.16218,0.21706 0.20172,0.31635 0.10294,0.25859 0.14698,0.56924 0.14671,1.03481 -8.1e-4,1.34141 -0.47466,3.22593 -1.28974,5.12893 -0.38634,0.90202 -0.93986,1.96041 -1.41255,2.70091 l -0.0412,0.0646 z m -0.51953,-0.77601 c -0.0356,-0.0744 -0.0906,-0.19017 -0.12224,-0.25728 -0.0317,-0.0671 -0.14366,-0.27715 -0.24889,-0.46678 -0.10523,-0.18963 -0.24623,-0.44746 -0.31336,-0.57295 -0.78018,-1.45863 -1.09626,-2.52371 -0.94133,-3.17198 0.0119,-0.0496 0.0457,-0.13994 0.0754,-0.20077 0.0456,-0.0938 0.067,-0.12373 0.14025,-0.19692 0.23587,-0.23561 0.58987,-0.33828 1.16324,-0.33736 0.15864,2.4e-4 0.32713,0.007 0.43246,0.0177 0.0949,0.009 0.17509,0.0173 0.17818,0.0173 0.0189,0 -0.0265,0.4437 -0.0858,0.8381 -0.0954,0.63452 -0.10587,0.75168 -0.10515,1.17228 4.1e-4,0.35529 0.004,0.39575 0.0682,0.94419 0.0665,0.56416 0.0758,0.67561 0.0818,0.98326 0.008,0.4191 -0.0168,0.66233 -0.0986,0.96066 -0.0376,0.13711 -0.1381,0.40594 -0.15179,0.40594 -0.004,0 -0.0369,-0.0608 -0.0725,-0.13525 z m -0.62412,-4.30486 c 0.15687,-0.0408 0.32855,-0.17589 0.3963,-0.31169 0.0606,-0.12148 0.0405,-0.20348 -0.0625,-0.25609 -0.20891,-0.10657 -0.68509,-0.0433 -0.85939,0.11413 -0.10586,0.0957 -0.0983,0.18074 0.0271,0.30567 0.13631,0.13578 0.32752,0.19254 0.49855,0.14798 z m -15.76869,-1.14634 c 4.1e-4,-0.0124 0.003,-0.0149 0.006,-0.006 0.003,0.008 0.003,0.0168 -8.2e-4,0.0204 -0.004,0.004 -0.006,-0.003 -0.006,-0.014 z m -0.009,-0.35451 c 0,-0.0263 0.002,-0.037 0.005,-0.0239 0.002,0.0131 0.002,0.0346 0,0.0477 -0.002,0.0131 -0.005,0.002 -0.005,-0.0239 z m 0,-0.26522 c 0,-0.0263 0.002,-0.037 0.005,-0.0239 0.002,0.0131 0.002,0.0346 0,0.0477 -0.002,0.0131 -0.005,0.002 -0.005,-0.0239 z m 1.82183,-3.47311 c 0,-0.002 0.008,-0.0106 0.0186,-0.0186 0.0168,-0.0132 0.0172,-0.0129 0.004,0.004 -0.0139,0.0177 -0.0226,0.0233 -0.0226,0.0146 z m -0.55165,-0.25461 c 0,-0.002 0.008,-0.0106 0.0186,-0.0186 0.0168,-0.0132 0.0172,-0.0129 0.004,0.004 -0.0139,0.0177 -0.0226,0.0233 -0.0226,0.0146 z m 3.26554,-0.78829 c 0.008,-0.003 0.0168,-0.003 0.0204,8.1e-4 0.004,0.004 -0.003,0.006 -0.014,0.006 -0.0124,-4.1e-4 -0.0149,-0.003 -0.006,-0.006 z m 6.15313,-0.053 c 0.008,-0.003 0.0168,-0.003 0.0204,8.2e-4 0.004,0.004 -0.003,0.006 -0.014,0.006 -0.0124,-4.2e-4 -0.0149,-0.003 -0.006,-0.006 z m 0.43498,0 c 0.008,-0.003 0.0168,-0.003 0.0204,8.2e-4 0.004,0.004 -0.003,0.006 -0.014,0.006 -0.0124,-4.2e-4 -0.0149,-0.003 -0.006,-0.006 z m 3.86108,-0.23365 c 0.0132,-0.002 0.0323,-0.002 0.0424,2e-4 0.0101,0.002 -8.2e-4,0.005 -0.024,0.005 -0.0234,-1.2e-4 -0.0317,-0.002 -0.0185,-0.005 z m 0.30767,0 c 0.0132,-0.002 0.0323,-0.002 0.0424,2e-4 0.0101,0.002 -8.2e-4,0.005 -0.024,0.005 -0.0234,-1.2e-4 -0.0317,-0.002 -0.0185,-0.005 z m -10.03545,-0.27557 c 0.008,-0.003 0.0168,-0.003 0.0204,8.2e-4 0.004,0.004 -0.003,0.006 -0.014,0.006 -0.0124,-4.1e-4 -0.0149,-0.003 -0.006,-0.006 z m 5.97279,-0.0636 c 0.008,-0.003 0.0168,-0.003 0.0204,8.2e-4 0.004,0.004 -0.003,0.006 -0.014,0.006 -0.0124,-4.1e-4 -0.0149,-0.003 -0.006,-0.006 z m 3.67066,-0.23339 c 0.008,-0.003 0.0168,-0.003 0.0204,8.2e-4 0.004,0.004 -0.003,0.006 -0.014,0.006 -0.0124,-4.1e-4 -0.0149,-0.003 -0.006,-0.006 z"
       id="path976-6"
       inkscape:export-filename="anthony-martin-portfolio\images\postgres.svg"
       inkscape:export-xdpi="96"
       inkscape:export-ydpi="96" /></g><style
     type="text/css"
     id="style56646">.st0{fill:#0acf83}.st1{fill:#a259ff}.st2{fill:#f24e1e}.st3{fill:#ff7262}.st4{fill:#1abcfe}</style></svg>
