<?xml version="1.0" encoding="UTF-8" standalone="no"?>
<!-- Created with Inkscape (http://www.inkscape.org/) -->

<svg
   width="15.309586mm"
   height="20.83017mm"
   viewBox="0 0 15.309586 20.83017"
   version="1.1"
   id="svg5"
   xml:space="preserve"
   inkscape:version="1.2.1 (9c6d41e410, 2022-07-14)"
   sodipodi:docname="Plantilla.svg"
   xmlns:inkscape="http://www.inkscape.org/namespaces/inkscape"
   xmlns:sodipodi="http://sodipodi.sourceforge.net/DTD/sodipodi-0.dtd"
   xmlns:xlink="http://www.w3.org/1999/xlink"
   xmlns="http://www.w3.org/2000/svg"
   xmlns:svg="http://www.w3.org/2000/svg"><sodipodi:namedview
     id="namedview7"
     pagecolor="#ffffff"
     bordercolor="#000000"
     borderopacity="0.25"
     inkscape:showpageshadow="2"
     inkscape:pageopacity="0.0"
     inkscape:pagecheckerboard="0"
     inkscape:deskcolor="#d1d1d1"
     inkscape:document-units="mm"
     showgrid="false"
     inkscape:zoom="0.21859623"
     inkscape:cx="2721.9134"
     inkscape:cy="1967.0971"
     inkscape:window-width="1920"
     inkscape:window-height="1017"
     inkscape:window-x="-8"
     inkscape:window-y="-8"
     inkscape:window-maximized="1"
     inkscape:current-layer="layer1"
     showguides="false" /><defs
     id="defs2"><linearGradient
       inkscape:collect="always"
       id="linearGradient10953"><stop
         style="stop-color:#fffefb;stop-opacity:1;"
         offset="0"
         id="stop10949" /><stop
         style="stop-color:#deddda;stop-opacity:0;"
         offset="1"
         id="stop10951" /></linearGradient><linearGradient
       inkscape:collect="always"
       xlink:href="#linearGradient10953"
       id="linearGradient22635"
       gradientUnits="userSpaceOnUse"
       x1="350.58063"
       y1="167.56787"
       x2="858.58063"
       y2="167.56787"
       gradientTransform="matrix(1.3175067,0,0,1.3175067,-232.45969,-271.48495)" /><style
       id="style6405">.a,.c{fill:#c21325;}.a,.b{stroke:#fff;stroke-width:20px;}.b{fill:none;}</style></defs><g
     inkscape:label="Capa 1"
     inkscape:groupmode="layer"
     id="layer1"
     transform="translate(225.52459,303.32574)"><rect
       style="fill:none;stroke-width:0.596512;stroke-linecap:round;stroke-linejoin:round;paint-order:markers fill stroke"
       id="rect481-7"
       width="21.166666"
       height="21.166666"
       x="-222.40581"
       y="-303.73465" /><path
       id="path356-4"
       style="fill:#ffffff;fill-opacity:1;stroke-width:0.705144;stroke-linecap:round;stroke-linejoin:round;paint-order:markers fill stroke"
       d="m -215.59454,-303.32575 -1.46996,1.03233 1.09463,1.37595 1.34498,-0.90698 z m 4.69157,1.2823 c -13.19871,4.1285 -11.29074,19.51656 -11.29074,19.51656 l 8.28814,0.0313 c -3.94085,-14.2621 3.69056,-18.17157 3.69056,-18.17157 z m -9.47678,2.40827 -1.37632,1.62666 1.62665,1.09464 1.15695,-1.34498 z m 8.78881,2.03296 -0.96966,1.34498 1.00099,0.93831 0.6253,-0.96965 z m -1.56399,3.25294 -0.40666,1.59495 1.46996,0.56299 0.15669,-1.31364 z m -10.82175,0.37532 -0.59397,1.8453 1.9076,0.75064 0.59432,-1.78261 z m 10.2901,3.09626 -0.0313,1.68896 1.75164,0.34399 -0.18766,-1.62629 z m -11.79141,3.48761 -0.0466,2.00161 2.11093,0.10932 0.0313,-2.07995 z m 12.04175,0.76595 0.50032,1.97064 h 2.00161 l -0.59433,-1.87663 z"
       inkscape:export-filename="anthony-martin-portfolio\images\rails.svg"
       inkscape:export-xdpi="96"
       inkscape:export-ydpi="96" /></g><style
     type="text/css"
     id="style56646">.st0{fill:#0acf83}.st1{fill:#a259ff}.st2{fill:#f24e1e}.st3{fill:#ff7262}.st4{fill:#1abcfe}</style></svg>
