<?xml version="1.0" encoding="UTF-8" standalone="no"?>
<!-- Created with Inkscape (http://www.inkscape.org/) -->

<svg
   width="21.166382mm"
   height="18.838928mm"
   viewBox="0 0 21.166382 18.838928"
   version="1.1"
   id="svg5"
   xml:space="preserve"
   inkscape:version="1.2.1 (9c6d41e410, 2022-07-14)"
   sodipodi:docname="Plantilla.svg"
   xmlns:inkscape="http://www.inkscape.org/namespaces/inkscape"
   xmlns:sodipodi="http://sodipodi.sourceforge.net/DTD/sodipodi-0.dtd"
   xmlns:xlink="http://www.w3.org/1999/xlink"
   xmlns="http://www.w3.org/2000/svg"
   xmlns:svg="http://www.w3.org/2000/svg"><sodipodi:namedview
     id="namedview7"
     pagecolor="#ffffff"
     bordercolor="#000000"
     borderopacity="0.25"
     inkscape:showpageshadow="2"
     inkscape:pageopacity="0.0"
     inkscape:pagecheckerboard="0"
     inkscape:deskcolor="#d1d1d1"
     inkscape:document-units="mm"
     showgrid="false"
     inkscape:zoom="0.21859623"
     inkscape:cx="2721.9134"
     inkscape:cy="1967.0971"
     inkscape:window-width="1920"
     inkscape:window-height="1017"
     inkscape:window-x="-8"
     inkscape:window-y="-8"
     inkscape:window-maximized="1"
     inkscape:current-layer="layer1"
     showguides="false" /><defs
     id="defs2"><linearGradient
       inkscape:collect="always"
       id="linearGradient10953"><stop
         style="stop-color:#fffefb;stop-opacity:1;"
         offset="0"
         id="stop10949" /><stop
         style="stop-color:#deddda;stop-opacity:0;"
         offset="1"
         id="stop10951" /></linearGradient><linearGradient
       inkscape:collect="always"
       xlink:href="#linearGradient10953"
       id="linearGradient22635"
       gradientUnits="userSpaceOnUse"
       x1="350.58063"
       y1="167.56787"
       x2="858.58063"
       y2="167.56787"
       gradientTransform="matrix(1.3175067,0,0,1.3175067,-232.45969,-271.48495)" /><style
       id="style6405">.a,.c{fill:#c21325;}.a,.b{stroke:#fff;stroke-width:20px;}.b{fill:none;}</style></defs><g
     inkscape:label="Capa 1"
     inkscape:groupmode="layer"
     id="layer1"
     transform="translate(317.08494,302.33013)"><path
       style="fill:#ffffff;fill-opacity:1;stroke-width:0.00941992"
       d="m -311.18669,-283.51539 c -0.64349,-0.13287 -1.14929,-0.54033 -1.46041,-1.17647 -0.20052,-0.41002 -0.30974,-0.84368 -0.36414,-1.44596 -0.0188,-0.20778 -0.0158,-0.89486 0.005,-1.13981 0.0542,-0.64047 0.17076,-1.33903 0.32765,-1.9631 0.0155,-0.0616 0.0248,-0.11512 0.0206,-0.11884 -0.004,-0.004 -0.0902,-0.031 -0.19124,-0.0607 -1.35754,-0.39876 -2.50237,-0.96221 -3.22162,-1.58558 -0.1388,-0.1203 -0.36973,-0.3568 -0.4664,-0.47765 -0.59461,-0.74335 -0.70857,-1.56729 -0.32464,-2.34702 0.13289,-0.26987 0.29948,-0.49898 0.54599,-0.75089 0.3452,-0.35277 0.76436,-0.65841 1.3095,-0.95488 0.58342,-0.31727 1.33419,-0.6199 2.11007,-0.85055 0.12693,-0.0377 0.23419,-0.0716 0.23834,-0.0752 0.004,-0.004 -0.005,-0.0571 -0.0206,-0.11871 -0.14517,-0.57747 -0.26824,-1.29253 -0.31598,-1.83593 -0.0471,-0.53664 -0.0438,-1.08474 0.009,-1.50718 0.06,-0.47818 0.16439,-0.85013 0.33832,-1.20576 0.3132,-0.64039 0.82035,-1.04684 1.46953,-1.17772 0.1219,-0.0246 0.12294,-0.0246 0.49925,-0.0209 0.41217,0.004 0.41872,0.005 0.69738,0.0741 0.40737,0.10146 0.89843,0.30999 1.35176,0.57406 0.63627,0.37062 1.37348,0.94233 2.03183,1.5757 l 0.0963,0.0927 0.1634,-0.15391 c 0.79169,-0.74575 1.55437,-1.31068 2.26233,-1.67573 0.45226,-0.2332 0.81321,-0.36598 1.23416,-0.45399 l 0.14178,-0.0296 0.37392,-0.004 c 0.31494,-0.003 0.387,-10e-4 0.45687,0.0117 0.47224,0.0868 0.87187,0.31374 1.17803,0.66904 0.79751,0.92551 0.9356,2.66658 0.39343,4.96063 -0.0285,0.12072 -0.0487,0.22235 -0.0449,0.22585 0.004,0.004 0.0769,0.0265 0.16237,0.0511 0.73597,0.21174 1.52131,0.52168 2.10315,0.83002 0.58993,0.31264 1.02813,0.62708 1.39186,0.99878 0.24332,0.24864 0.411,0.47818 0.54096,0.7405 0.15971,0.32235 0.22526,0.59304 0.22526,0.93016 0,0.19367 -0.0156,0.32228 -0.06,0.49455 -0.0802,0.31143 -0.24979,0.63784 -0.48455,0.9327 -0.10058,0.12632 -0.39644,0.42186 -0.54323,0.54263 -0.59119,0.48642 -1.3929,0.91409 -2.38692,1.2733 -0.19962,0.0721 -0.61002,0.20585 -0.81003,0.26392 -0.12005,0.0348 -0.14117,0.0437 -0.14044,0.0591 4e-4,0.01 0.0225,0.10922 0.049,0.22062 0.39297,1.65276 0.42728,3.07037 0.098,4.05057 -0.28912,0.86077 -0.85425,1.40335 -1.6233,1.55855 -0.11454,0.0231 -0.13166,0.024 -0.46319,0.024 -0.32136,0 -0.35325,-0.002 -0.4796,-0.0229 -1.04227,-0.17656 -2.26819,-0.9111 -3.57487,-2.14195 l -0.16319,-0.15373 -0.1435,0.13596 c -1.30204,1.23372 -2.54816,1.98256 -3.59392,2.15972 -0.12726,0.0216 -0.15629,0.0229 -0.4855,0.0223 -0.33466,-4e-4 -0.35514,-0.002 -0.46318,-0.024 z m 0.77295,-0.8979 c 0.82481,-0.13725 1.857,-0.75109 2.96206,-1.76151 0.0596,-0.0545 0.15356,-0.14311 0.20885,-0.19696 l 0.10053,-0.0979 -0.12906,-0.14258 c -0.4923,-0.54382 -0.99709,-1.16646 -1.44326,-1.7802 -0.0748,-0.10284 -0.15508,-0.21305 -0.1785,-0.24492 l -0.0426,-0.058 -0.15995,-0.0161 c -0.84248,-0.0849 -1.67636,-0.21277 -2.41942,-0.37107 -0.13399,-0.0286 -0.24469,-0.0506 -0.24601,-0.049 -0.005,0.006 -0.10934,0.46277 -0.14045,0.61518 -0.30244,1.48146 -0.27928,2.67605 0.0658,3.39536 0.20457,0.4264 0.50299,0.66262 0.9108,0.72096 0.12634,0.0181 0.35917,0.012 0.51116,-0.0132 z m 8.29399,0.018 c 0.16462,-0.0198 0.27646,-0.0528 0.40935,-0.12083 0.67703,-0.34638 0.95518,-1.46844 0.76276,-3.07705 -0.0488,-0.40788 -0.13177,-0.86442 -0.24196,-1.33125 -0.0495,-0.20966 -0.0497,-0.21025 -0.0732,-0.20525 -0.79066,0.16836 -1.24959,0.24825 -1.94993,0.33945 -0.1982,0.0258 -0.64356,0.0756 -0.77069,0.0862 -0.0731,0.006 -0.0798,0.008 -0.10112,0.0359 -0.0126,0.0162 -0.0997,0.13532 -0.19375,0.26485 -0.45368,0.62499 -0.96764,1.25945 -1.45092,1.79109 l -0.12963,0.1426 0.10087,0.0976 c 0.93057,0.90051 1.93831,1.58285 2.72644,1.84605 0.34111,0.11392 0.66511,0.16034 0.91176,0.13064 z m -4.28502,-2.83761 c 0.21441,-0.23484 0.48809,-0.55587 0.73272,-0.85953 0.17446,-0.21654 0.40677,-0.51562 0.40317,-0.51905 -10e-4,-0.001 -0.0847,0.002 -0.18577,0.006 -0.51339,0.0236 -1.92937,0.0191 -2.21767,-0.007 l -0.0652,-0.006 0.0228,0.032 c 0.0455,0.064 0.29974,0.38766 0.44829,0.57066 0.25846,0.31843 0.74677,0.87904 0.76568,0.87904 0.004,0 0.0475,-0.0435 0.096,-0.0966 z m 0.50738,-2.27724 c 0.48121,-0.0122 1.15596,-0.0445 1.28733,-0.0617 l 0.0392,-0.005 0.19752,-0.29864 c 0.58399,-0.88295 1.09315,-1.76466 1.57183,-2.72191 l 0.15662,-0.31321 -0.15662,-0.31322 c -0.47868,-0.95725 -0.98784,-1.83896 -1.57183,-2.72191 l -0.19752,-0.29863 -0.0392,-0.005 c -0.0216,-0.003 -0.14304,-0.0114 -0.26998,-0.0191 -1.05572,-0.0636 -2.03944,-0.0665 -3.07561,-0.009 -0.32304,0.0179 -0.46749,0.0298 -0.47634,0.0394 -0.004,0.004 -0.0743,0.10902 -0.15696,0.23336 -0.59148,0.89011 -1.12347,1.80859 -1.60461,2.77036 l -0.16067,0.32116 0.0884,0.1828 c 0.0486,0.10054 0.15337,0.30785 0.23284,0.46069 0.44763,0.86097 0.88099,1.59957 1.39647,2.38009 l 0.20632,0.3124 0.0442,0.006 c 0.13447,0.0174 0.99748,0.0577 1.39124,0.0649 0.34454,0.006 0.77255,0.005 1.09742,-0.003 z m -0.84309,-1.53122 c -0.94505,-0.12723 -1.64378,-0.92184 -1.64378,-1.86937 0,-1.03975 0.8437,-1.88399 1.88278,-1.88399 1.0416,0 1.8852,0.84306 1.8852,1.88399 0,0.60969 -0.29276,1.17767 -0.79127,1.53513 -0.3777,0.27084 -0.87591,0.39576 -1.33293,0.33424 z m -2.99362,1.1437 c -0.34095,-0.54315 -0.71196,-1.18687 -1.01037,-1.75301 -0.0512,-0.0971 -0.0959,-0.17337 -0.0993,-0.16956 -0.0201,0.0221 -0.29702,0.72948 -0.42348,1.08176 -0.0842,0.23459 -0.235,0.68807 -0.235,0.70677 0,0.0136 0.009,0.0168 0.10362,0.0368 0.52436,0.11102 0.95171,0.18654 1.4601,0.25802 0.27161,0.0382 0.32265,0.0447 0.32787,0.042 0.002,-8e-4 -0.054,-0.0921 -0.12343,-0.20273 z m 6.70508,0.15618 c 0.44732,-0.0632 0.85347,-0.13366 1.2764,-0.22147 0.23574,-0.0489 0.25434,-0.054 0.25434,-0.0693 0,-0.0199 -0.17257,-0.53438 -0.25498,-0.76019 -0.14126,-0.38706 -0.38467,-1.0071 -0.40349,-1.02781 -0.004,-0.004 -0.0481,0.0725 -0.0993,0.16956 -0.29822,0.56578 -0.66944,1.20987 -1.00985,1.75216 -0.0692,0.1102 -0.12577,0.20213 -0.12577,0.20429 0,0.002 0.0138,0.002 0.0306,-3.8e-4 0.0168,-0.002 0.16626,-0.0235 0.33205,-0.0469 z m -9.32212,-0.65648 c 0.2364,-0.73469 0.51988,-1.47209 0.86006,-2.23724 l 0.1225,-0.27553 -0.1225,-0.27553 c -0.33869,-0.76181 -0.62861,-1.51509 -0.85082,-2.21066 -0.0305,-0.0955 -0.0569,-0.17502 -0.0586,-0.17678 -0.0106,-0.0106 -0.61314,0.18108 -0.92447,0.29415 -1.49826,0.54417 -2.49902,1.2585 -2.76936,1.97674 -0.0559,0.1486 -0.0655,0.20585 -0.0657,0.39208 -1.4e-4,0.16195 0.002,0.18091 0.026,0.26827 0.15435,0.55454 0.6957,1.08352 1.61272,1.57589 0.50824,0.27287 1.19498,0.5471 1.88101,0.7511 0.11562,0.0344 0.21446,0.064 0.21964,0.0658 0.005,0.002 0.0119,0.004 0.0149,0.004 0.003,4e-4 0.0276,-0.0681 0.0547,-0.15234 z m 11.9789,0.087 c 2.02548,-0.60898 3.33612,-1.5001 3.51785,-2.39184 0.0368,-0.18051 0.0203,-0.39924 -0.0435,-0.57754 -0.27444,-0.76697 -1.37224,-1.5252 -3.01617,-2.08321 -0.23577,-0.08 -0.67949,-0.21702 -0.6844,-0.2113 -0.002,0.002 -0.0598,0.17464 -0.1298,0.38446 -0.22911,0.6868 -0.46651,1.29584 -0.78121,2.00416 l -0.12245,0.2756 0.12256,0.27546 c 0.33942,0.76298 0.62339,1.50237 0.85922,2.23718 0.027,0.0842 0.0512,0.15308 0.0537,0.15308 0.002,0 0.10339,-0.0297 0.22421,-0.0661 z m -10.34328,-3.91388 c 0.3059,-0.57659 0.66233,-1.19259 1.00446,-1.73593 0.0569,-0.0903 0.10205,-0.16541 0.10044,-0.16694 -0.004,-0.004 -0.47748,0.0624 -0.70472,0.0984 -0.31535,0.05 -0.73882,0.12878 -1.04091,0.19362 -0.14284,0.0306 -0.14601,0.0317 -0.14601,0.047 0,0.0194 0.16765,0.51978 0.25254,0.75369 0.1005,0.27695 0.18321,0.49247 0.28919,0.7536 0.11071,0.2728 0.11808,0.29009 0.12192,0.28597 0.002,-0.002 0.0571,-0.10511 0.12309,-0.22945 z m 8.66069,-0.0184 c 0.17437,-0.42844 0.39717,-1.03855 0.51896,-1.42116 0.0322,-0.10102 0.0387,-0.13181 0.0294,-0.13761 -0.0345,-0.0214 -0.79401,-0.16736 -1.20221,-0.23114 -0.25772,-0.0403 -0.67704,-0.0985 -0.68112,-0.0947 -0.002,0.002 0.0539,0.0933 0.12342,0.20396 0.34095,0.54315 0.71197,1.18686 1.01037,1.753 0.0512,0.0971 0.0959,0.17337 0.0993,0.16956 0.004,-0.004 0.0493,-0.11268 0.10193,-0.24193 z m -9.48177,-2.49171 c 0.73567,-0.15772 1.63883,-0.29659 2.43036,-0.37369 l 0.1682,-0.0164 0.0222,-0.0289 c 0.0122,-0.0159 0.10442,-0.14174 0.20489,-0.27971 0.4619,-0.63422 0.95396,-1.24113 1.43984,-1.77593 l 0.12973,-0.14279 -0.11543,-0.11155 c -0.44484,-0.42987 -1.00421,-0.88545 -1.45715,-1.18679 -0.64482,-0.42898 -1.20906,-0.67807 -1.72856,-0.76308 -0.12758,-0.0209 -0.40772,-0.0233 -0.51339,-0.004 -0.24551,0.0438 -0.47063,0.16443 -0.63151,0.33827 -0.56978,0.61569 -0.68149,2.01115 -0.30551,3.81627 0.0403,0.19343 0.12966,0.57542 0.13462,0.57542 0.002,0 0.10178,-0.021 0.2217,-0.0468 z m 10.34704,-0.16285 c 0.36734,-1.55233 0.39995,-2.84902 0.0918,-3.64787 -0.19432,-0.50365 -0.49124,-0.78207 -0.92602,-0.86832 -0.11604,-0.023 -0.39354,-0.0229 -0.5342,1.8e-4 -0.34044,0.0559 -0.66392,0.16872 -1.05974,0.36952 -0.64529,0.32736 -1.38454,0.87402 -2.08408,1.54116 l -0.1577,0.15039 0.12996,0.143 c 0.50636,0.55714 1.11152,1.30931 1.55124,1.92807 0.11908,0.16757 0.10614,0.15674 0.1961,0.16422 0.38894,0.0324 1.12692,0.12886 1.63146,0.21332 0.32244,0.054 0.87216,0.16104 1.03148,0.20088 0.0285,0.007 0.0582,0.0134 0.066,0.014 0.0109,8e-4 0.0257,-0.0478 0.0638,-0.20855 z m -6.03133,-0.32851 c 0.40193,-0.0114 1.41773,-0.006 1.76624,0.01 0.10103,0.004 0.18481,0.007 0.18618,0.006 0.003,-0.003 -0.28094,-0.3679 -0.42906,-0.55094 -0.23343,-0.28845 -0.59328,-0.70768 -0.74022,-0.86236 l -0.0626,-0.0659 -0.0621,0.0659 c -0.28025,0.29756 -0.85318,0.9877 -1.14877,1.38382 l -0.0274,0.0368 0.0658,-0.006 c 0.0362,-0.003 0.2396,-0.0109 0.45202,-0.0169 z"
       id="path873-3"
       inkscape:export-filename="anthony-martin-portfolio\images\react.svg"
       inkscape:export-xdpi="96"
       inkscape:export-ydpi="96" /></g><style
     type="text/css"
     id="style56646">.st0{fill:#0acf83}.st1{fill:#a259ff}.st2{fill:#f24e1e}.st3{fill:#ff7262}.st4{fill:#1abcfe}</style></svg>
