<?xml version="1.0" encoding="UTF-8" standalone="no"?>
<!-- Created with Inkscape (http://www.inkscape.org/) -->

<svg
   width="7.9368286mm"
   height="7.9368744mm"
   viewBox="0 0 7.9368286 7.9368744"
   version="1.1"
   id="svg5"
   xml:space="preserve"
   inkscape:version="1.2.1 (9c6d41e410, 2022-07-14)"
   sodipodi:docname="Plantilla.svg"
   xmlns:inkscape="http://www.inkscape.org/namespaces/inkscape"
   xmlns:sodipodi="http://sodipodi.sourceforge.net/DTD/sodipodi-0.dtd"
   xmlns:xlink="http://www.w3.org/1999/xlink"
   xmlns="http://www.w3.org/2000/svg"
   xmlns:svg="http://www.w3.org/2000/svg"><sodipodi:namedview
     id="namedview7"
     pagecolor="#ffffff"
     bordercolor="#000000"
     borderopacity="0.25"
     inkscape:showpageshadow="2"
     inkscape:pageopacity="0.0"
     inkscape:pagecheckerboard="0"
     inkscape:deskcolor="#d1d1d1"
     inkscape:document-units="mm"
     showgrid="false"
     inkscape:zoom="0.21859623"
     inkscape:cx="2721.9134"
     inkscape:cy="1967.0971"
     inkscape:window-width="1920"
     inkscape:window-height="1017"
     inkscape:window-x="-8"
     inkscape:window-y="-8"
     inkscape:window-maximized="1"
     inkscape:current-layer="layer1"
     showguides="false" /><defs
     id="defs2"><linearGradient
       inkscape:collect="always"
       id="linearGradient10953"><stop
         style="stop-color:#fffefb;stop-opacity:1;"
         offset="0"
         id="stop10949" /><stop
         style="stop-color:#deddda;stop-opacity:0;"
         offset="1"
         id="stop10951" /></linearGradient><linearGradient
       inkscape:collect="always"
       xlink:href="#linearGradient10953"
       id="linearGradient22635"
       gradientUnits="userSpaceOnUse"
       x1="350.58063"
       y1="167.56787"
       x2="858.58063"
       y2="167.56787"
       gradientTransform="matrix(1.3175067,0,0,1.3175067,-232.45969,-271.48495)" /><style
       id="style6405">.a,.c{fill:#c21325;}.a,.b{stroke:#fff;stroke-width:20px;}.b{fill:none;}</style></defs><g
     inkscape:label="Capa 1"
     inkscape:groupmode="layer"
     id="layer1"
     transform="translate(-633.00832,91.720594)"><path
       d="m 640.09482,-91.7206 h -6.23612 c -0.46948,0 -0.85038,0.3809 -0.85038,0.85038 v 6.23611 c 0,0.46948 0.3809,0.85038 0.85038,0.85038 h 6.23612 c 0.46947,0 0.85037,-0.3809 0.85037,-0.85038 v -6.23611 c 0,-0.46948 -0.3809,-0.85038 -0.85037,-0.85038 z m -0.86633,2.81334 c 0.004,0.0496 0.004,0.10098 0.004,0.15058 0,1.536 -1.16927,3.30585 -3.30584,3.30585 -0.65905,0 -1.27026,-0.19133 -1.78403,-0.52086 0.0939,0.0106 0.18425,0.0142 0.27992,0.0142 0.54389,0 1.04348,-0.18424 1.4421,-0.49605 -0.51023,-0.0106 -0.93896,-0.34547 -1.08601,-0.80609 0.17894,0.0266 0.34016,0.0266 0.5244,-0.0212 -0.53148,-0.10807 -0.9301,-0.57577 -0.9301,-1.14092 v -0.0142 c 0.15413,0.0868 0.33484,0.13996 0.5244,0.14704 a 1.1594736,1.1594736 0 0 1 -0.51731,-0.9673 c 0,-0.21614 0.0567,-0.41456 0.15767,-0.58641 0.57223,0.7051 1.43147,1.16573 2.39524,1.21533 -0.16477,-0.78837 0.42518,-1.42792 1.13383,-1.42792 0.33484,0 0.63601,0.13995 0.84861,0.36672 0.2622,-0.0496 0.51377,-0.14704 0.737,-0.27991 -0.0868,0.26928 -0.26929,0.49605 -0.51023,0.63955 0.23385,-0.0248 0.46062,-0.0904 0.66967,-0.1807 -0.15767,0.23208 -0.3561,0.43758 -0.58286,0.60235 z"
       id="path10626-8"
       style="fill:#272935;fill-opacity:1;stroke-width:0.0177162"
       inkscape:export-filename="anthony-martin-portfolio\images\twitter.svg"
       inkscape:export-xdpi="96"
       inkscape:export-ydpi="96" /></g><style
     type="text/css"
     id="style56646">.st0{fill:#0acf83}.st1{fill:#a259ff}.st2{fill:#f24e1e}.st3{fill:#ff7262}.st4{fill:#1abcfe}</style></svg>
