<?xml version="1.0" encoding="UTF-8" standalone="no"?>
<!-- Created with Inkscape (http://www.inkscape.org/) -->

<svg
   width="268.18201mm"
   height="45.650002mm"
   viewBox="0 0 268.18201 45.649999"
   version="1.1"
   id="svg5"
   xml:space="preserve"
   inkscape:version="1.2.1 (9c6d41e410, 2022-07-14)"
   sodipodi:docname="logo.svg"
   inkscape:export-filename="logo.svg"
   inkscape:export-xdpi="96"
   inkscape:export-ydpi="96"
   xmlns:inkscape="http://www.inkscape.org/namespaces/inkscape"
   xmlns:sodipodi="http://sodipodi.sourceforge.net/DTD/sodipodi-0.dtd"
   xmlns="http://www.w3.org/2000/svg"
   xmlns:svg="http://www.w3.org/2000/svg"><sodipodi:namedview
     id="namedview7"
     pagecolor="#ffffff"
     bordercolor="#000000"
     borderopacity="0.25"
     inkscape:showpageshadow="2"
     inkscape:pageopacity="0.0"
     inkscape:pagecheckerboard="0"
     inkscape:deskcolor="#d1d1d1"
     inkscape:document-units="mm"
     showgrid="false"
     inkscape:zoom="0.1767767"
     inkscape:cx="718.42049"
     inkscape:cy="-452.54834"
     inkscape:window-width="1920"
     inkscape:window-height="1017"
     inkscape:window-x="-8"
     inkscape:window-y="-8"
     inkscape:window-maximized="1"
     inkscape:current-layer="layer1" /><defs
     id="defs2" /><g
     inkscape:label="Capa 1"
     inkscape:groupmode="layer"
     id="layer1"
     transform="translate(427.72166,1142.9409)"><text
       xml:space="preserve"
       style="font-style:normal;font-variant:normal;font-weight:bold;font-stretch:normal;font-size:4.9389px;font-family:Cocogoose;-inkscape-font-specification:'Cocogoose Bold';text-align:center;text-anchor:middle;fill:#ffffff;fill-opacity:1;stroke:#d3d3d3;stroke-width:0.396875;stroke-linecap:round;stroke-linejoin:round;stroke-opacity:1;paint-order:markers fill stroke"
       x="-261.21274"
       y="-1322.9202"
       id="text19289"><tspan
         sodipodi:role="line"
         id="tspan19287"
         style="stroke-width:0.396875"
         x="-261.21274"
         y="-1322.9202" /></text><g
       id="g260"
       transform="translate(-44.434082,231.35904)"><g
         style="display:inline;stroke:#cd2811;stroke-opacity:1"
         id="g3879"
         transform="matrix(0.83628368,0,0,0.83628368,-162.67927,-672.94622)"
         inkscape:export-filename="/home/paulormm/usp/softwarelivre/OSI/OSI_member_card_model_final-300dpi.png"
         inkscape:export-xdpi="300.05554"
         inkscape:export-ydpi="300.05554"><path
           inkscape:export-ydpi="48.18"
           inkscape:export-xdpi="48.18"
           inkscape:export-filename="/home/rafael/workspace/logo-osi/3/png/logo396x412.png"
           id="path3773"
           d="m -235.59761,-810.46814 m 3.36857,8.77482 a 9.3989072,9.3989072 0 1 0 -6.73714,0 l -6.3311,16.49696 a 27.068853,27.068853 0 1 1 19.39934,0 z"
           inkscape:connector-curvature="0"
           style="text-anchor:middle;fill:#ee523c;fill-opacity:1;stroke:#cd2811;stroke-width:2.25574;stroke-linejoin:round;stroke-opacity:1" /><g
           id="g3797"
           transform="translate(-21.225811,-1.0146812)"
           inkscape:export-filename="/home/rafael/workspace/logo-osi/3/png/logo396x412.png"
           inkscape:export-xdpi="48.18"
           inkscape:export-ydpi="48.18"
           style="stroke:#cd2811;stroke-opacity:1" /></g><g
         id="g24357"
         transform="matrix(1.2906739,0,0,1.2906739,41.627906,397.89633)"><g
           aria-label="OS Software  "
           id="text14325"
           style="font-weight:bold;font-size:19.0931px;font-family:Cocogoose;-inkscape-font-specification:'Cocogoose Bold';text-align:center;text-anchor:middle;fill:#272a31;stroke-width:1.53426;stroke-linecap:round;stroke-linejoin:round;paint-order:markers fill stroke"><path
             d="m -285.09604,-1363.6327 q 0,0.7923 0.26731,1.4797 0.2673,0.6873 0.74463,1.2028 0.48687,0.506 1.14558,0.802 0.65872,0.2864 1.45108,0.2864 0.79236,0 1.45107,-0.2864 0.66826,-0.296 1.14559,-0.802 0.48687,-0.5155 0.75418,-1.2028 0.2673,-0.6874 0.2673,-1.4797 0,-0.7829 -0.2673,-1.4702 -0.26731,-0.6969 -0.75418,-1.2124 -0.47733,-0.5155 -1.14559,-0.8115 -0.65871,-0.2959 -1.45107,-0.2959 -0.79236,0 -1.45108,0.2959 -0.65871,0.296 -1.14558,0.8115 -0.47733,0.5155 -0.74463,1.2124 -0.26731,0.6873 -0.26731,1.4702 z m -3.68496,0.01 q 0,-1.0119 0.25775,-1.9379 0.25776,-0.9356 0.73509,-1.7471 0.47732,-0.821 1.13604,-1.4892 0.66825,-0.6683 1.47971,-1.1361 0.81146,-0.4773 1.73747,-0.735 0.93557,-0.2673 1.9475,-0.2673 1.00239,0 1.93795,0.2673 0.93556,0.2577 1.74702,0.735 0.81145,0.4678 1.47971,1.1361 0.66826,0.6682 1.13604,1.4892 0.47733,0.8115 0.73509,1.7471 0.2673,0.926 0.2673,1.9379 0,1.0119 -0.2673,1.9475 -0.25776,0.926 -0.73509,1.7375 -0.46778,0.8019 -1.13604,1.4701 -0.66826,0.6588 -1.47971,1.1361 -0.81146,0.4773 -1.74702,0.7351 -0.93556,0.2577 -1.93795,0.2577 -1.01193,0 -1.9475,-0.2577 -0.92601,-0.2578 -1.73747,-0.7351 -0.81146,-0.4773 -1.47971,-1.1361 -0.65872,-0.6682 -1.13604,-1.4701 -0.47733,-0.8115 -0.73509,-1.7375 -0.25775,-0.9356 -0.25775,-1.9475 z"
             style="font-weight:normal;-inkscape-font-specification:Cocogoose"
             id="path430" /><path
             d="m -270.65209,-1361.122 q 0.16229,0.1337 0.4105,0.3628 0.25776,0.2195 0.58234,0.4391 0.48687,0.3246 0.9642,0.506 0.47733,0.1814 1.00239,0.1814 0.48687,0 0.81146,-0.105 0.33413,-0.1146 0.52506,-0.296 0.19093,-0.1814 0.2673,-0.42 0.0859,-0.2387 0.0859,-0.506 0,-0.2959 -0.22912,-0.5251 -0.21957,-0.2386 -0.54415,-0.42 -0.32458,-0.1814 -0.67781,-0.3055 -0.35322,-0.1337 -0.61098,-0.2196 -1.14558,-0.4009 -2.00477,-0.8592 -0.85919,-0.4677 -1.43198,-1.031 -0.5728,-0.5728 -0.85919,-1.2506 -0.2864,-0.6873 -0.2864,-1.5274 0,-0.8879 0.35322,-1.6134 0.36277,-0.7255 1.02148,-1.2411 0.66826,-0.5155 1.60382,-0.7923 0.93557,-0.2864 2.0907,-0.2864 0.86873,0 1.6611,0.2005 0.80191,0.1909 1.57518,0.6205 0.32458,0.1909 0.61098,0.4009 0.29594,0.2005 0.51551,0.3915 0.21957,0.1909 0.34368,0.3627 0.13365,0.1719 0.13365,0.296 0,0.1241 -0.0668,0.2291 -0.0573,0.105 -0.18138,0.2386 l -1.46062,1.5561 q -0.1623,0.1623 -0.32459,0.1623 -0.13365,0 -0.24821,-0.076 -0.10501,-0.076 -0.23866,-0.191 l -0.0859,-0.076 q -0.19093,-0.1623 -0.42959,-0.3342 -0.22912,-0.1718 -0.49643,-0.3055 -0.2673,-0.1432 -0.56324,-0.2291 -0.29594,-0.095 -0.60143,-0.095 -0.31504,0 -0.59189,0.057 -0.27685,0.048 -0.48687,0.1623 -0.21003,0.1146 -0.33413,0.3055 -0.12411,0.1814 -0.12411,0.4487 0,0.2673 0.13365,0.4678 0.13365,0.1909 0.40096,0.3627 0.2673,0.1623 0.65871,0.3151 0.40096,0.1432 0.92602,0.315 1.01193,0.3342 1.86157,0.7065 0.85919,0.3627 1.47972,0.8687 0.62052,0.4964 0.9642,1.1933 0.35322,0.6969 0.35322,1.6898 0,1.0501 -0.42959,1.9093 -0.4296,0.8496 -1.18378,1.451 -0.74463,0.6015 -1.75656,0.9356 -1.01193,0.3246 -2.17661,0.3246 -1.09786,0 -2.15752,-0.3914 -1.05967,-0.3914 -1.97614,-1.0501 -0.38186,-0.2769 -0.64917,-0.5442 -0.25775,-0.2673 -0.4105,-0.4296 l -0.0286,-0.029 q -0.01,-0.019 -0.0191,-0.019 -0.01,-0.01 -0.0191,-0.019 -0.01,-0.019 -0.0191,-0.019 -0.01,-0.01 -0.0191,-0.019 -0.21957,-0.2387 -0.21957,-0.3819 0,-0.1623 0.21957,-0.3627 l 1.65155,-1.5752 q 0.20048,-0.1432 0.32459,-0.1432 0.0859,0 0.18138,0.057 0.0955,0.057 0.22912,0.1718 z"
             style="font-weight:normal;-inkscape-font-specification:Cocogoose"
             id="path432" /><path
             d="m -245.85016,-1366.9454 q -0.12411,0 -0.22912,-0.057 -0.10501,-0.067 -0.23867,-0.1718 l -0.0191,-0.01 q -0.18138,-0.1813 -0.46778,-0.4009 -0.2864,-0.2196 -0.63962,-0.4105 -0.35322,-0.1909 -0.76372,-0.3246 -0.40096,-0.1336 -0.82101,-0.1336 -0.5346,0 -0.9451,0.1241 -0.41051,0.1145 -0.68736,0.3245 -0.27685,0.2005 -0.42004,0.4774 -0.1432,0.2768 -0.1432,0.5919 0,0.3436 0.21002,0.6014 0.21957,0.2577 0.58234,0.4582 0.37232,0.2005 0.84964,0.3723 0.47733,0.1623 1.00239,0.3246 0.60144,0.1814 1.19332,0.3914 0.59189,0.2101 1.12649,0.4774 0.54416,0.2577 1.01194,0.5823 0.46778,0.315 0.80191,0.7351 0.34367,0.4105 0.53461,0.926 0.20047,0.506 0.20047,1.1456 0,1.0406 -0.42005,1.8807 -0.42004,0.8401 -1.16467,1.4415 -0.73509,0.5919 -1.73748,0.9165 -0.99284,0.315 -2.13842,0.315 -0.73509,0 -1.46063,-0.1718 -0.72553,-0.1719 -1.39379,-0.4869 -0.66826,-0.3151 -1.26969,-0.7542 -0.59189,-0.4487 -1.05967,-1.0024 v 0.01 l -0.0191,-0.038 q -0.21003,-0.2387 -0.21003,-0.4392 0,-0.105 0.0573,-0.2004 0.0573,-0.096 0.17184,-0.2101 l 0.31504,-0.315 q 0.14319,-0.1241 0.30549,-0.2769 0.16229,-0.1527 0.32458,-0.2768 0.16229,-0.1241 0.29594,-0.21 0.1432,-0.086 0.22912,-0.086 0.13365,0 0.24821,0.086 0.11456,0.086 0.19093,0.1623 l 0.0382,0.038 h -0.01 q 0.33413,0.3151 0.74463,0.6015 0.42005,0.2864 0.85919,0.5155 0.43914,0.2196 0.86874,0.3532 0.43914,0.1241 0.821,0.1241 0.52506,0 0.98329,-0.1336 0.45824,-0.1337 0.79237,-0.3723 0.33413,-0.2483 0.52506,-0.5919 0.19093,-0.3437 0.19093,-0.7638 0,-0.42 -0.24821,-0.7159 -0.24821,-0.3055 -0.64917,-0.5251 -0.40095,-0.2291 -0.90692,-0.3914 -0.49642,-0.1623 -1.00239,-0.3055 -1.16468,-0.3532 -2.04296,-0.7637 -0.86873,-0.4105 -1.45107,-0.9165 -0.58234,-0.5155 -0.87829,-1.1456 -0.28639,-0.6396 -0.28639,-1.432 0,-0.8878 0.35322,-1.6133 0.36277,-0.7351 1.02148,-1.2506 0.65871,-0.5251 1.58473,-0.8115 0.92601,-0.2959 2.0716,-0.2959 0.86873,0 1.76611,0.2768 0.89738,0.2673 1.6611,0.7446 0.22912,0.1432 0.46778,0.3246 0.23866,0.1814 0.43914,0.3723 0.20048,0.1814 0.32458,0.3628 0.13366,0.1719 0.13366,0.296 0,0.1145 -0.0573,0.2386 -0.0573,0.1146 -0.1432,0.21 l -0.2864,0.3055 v -0.01 q -0.1432,0.1527 -0.29594,0.315 -0.15275,0.1623 -0.30549,0.296 -0.15275,0.1241 -0.27685,0.21 -0.12411,0.086 -0.21002,0.086 z"
             id="path434" /><path
             d="m -241.96473,-1362.5922 q 0,-0.8687 0.21957,-1.6706 0.22912,-0.8115 0.63962,-1.5084 0.41051,-0.6969 0.9833,-1.2601 0.57279,-0.5728 1.26969,-0.9738 0.6969,-0.4105 1.48926,-0.63 0.80191,-0.2291 1.67065,-0.2291 0.85919,0 1.6611,0.2291 0.80191,0.2195 1.48926,0.63 0.6969,0.401 1.26969,0.9738 0.57279,0.5632 0.98329,1.2601 0.41051,0.6969 0.63008,1.5084 0.22911,0.8019 0.22911,1.6706 0,0.8688 -0.22911,1.6707 -0.21957,0.8019 -0.63008,1.4988 -0.4105,0.6873 -0.98329,1.2601 -0.57279,0.5728 -1.26969,0.9833 -0.68735,0.401 -1.48926,0.6301 -0.80191,0.2196 -1.6611,0.2196 -0.86874,0 -1.67065,-0.2196 -0.79236,-0.2291 -1.48926,-0.6301 -0.6969,-0.4105 -1.26969,-0.9833 -0.57279,-0.5728 -0.9833,-1.2601 -0.4105,-0.6969 -0.63962,-1.4988 -0.21957,-0.8019 -0.21957,-1.6707 z m 2.69213,0 q 0,0.7638 0.2673,1.4511 0.26731,0.6778 0.74464,1.1838 0.47732,0.506 1.12649,0.8019 0.65871,0.2959 1.43198,0.2959 0.75418,0 1.3938,-0.2959 0.64916,-0.2959 1.11694,-0.8019 0.46778,-0.506 0.72554,-1.1838 0.2673,-0.6873 0.2673,-1.4511 0,-0.7541 -0.2673,-1.4415 -0.25776,-0.6873 -0.72554,-1.2029 -0.46778,-0.525 -1.11694,-0.8305 -0.63962,-0.315 -1.3938,-0.315 -0.77327,0 -1.43198,0.315 -0.64917,0.3055 -1.12649,0.8305 -0.47733,0.5156 -0.74464,1.2029 -0.2673,0.6874 -0.2673,1.4415 z"
             id="path436" /><path
             d="m -226.4325,-1368.6351 q 0,-0.8497 0.25776,-1.6325 0.25776,-0.7924 0.75418,-1.3938 0.49642,-0.6014 1.21241,-0.9546 0.72554,-0.3628 1.642,-0.3628 h 0.0955 q 0.27685,0 0.42959,0.1718 0.15275,0.1623 0.15275,0.4487 v 1.3174 q 0,0.2769 -0.15275,0.4678 -0.14319,0.191 -0.40095,0.191 -0.1432,0 -0.36277,0.076 -0.21957,0.067 -0.42005,0.2196 -0.20047,0.1527 -0.34367,0.3914 -0.1432,0.2387 -0.1432,0.5633 v 1.5465 h 1.38425 q 0.27685,0 0.42959,0.1432 0.15275,0.1432 0.15275,0.4773 v 1.1742 q 0,0.3342 -0.15275,0.506 -0.15274,0.1623 -0.42959,0.1623 h -1.38425 v 7.9523 q 0,0.3055 -0.20048,0.4678 -0.20048,0.1527 -0.43914,0.1527 h -1.47972 q -0.28639,0 -0.44868,-0.1718 -0.15275,-0.1814 -0.15275,-0.4487 v -7.9523 h -0.94511 q -0.27685,0 -0.44868,-0.1623 -0.17184,-0.1718 -0.17184,-0.506 v -1.1742 q 0,-0.3341 0.17184,-0.4773 0.17183,-0.1432 0.44868,-0.1432 h 0.94511 z"
             id="path438" /><path
             d="m -215.65445,-1356.5492 q -0.75418,-0.01 -1.42244,-0.2291 -0.65871,-0.2196 -1.15513,-0.6301 -0.48687,-0.42 -0.77327,-1.0215 -0.2864,-0.6109 -0.2864,-1.3842 v -1.5752 -4.8687 h -1.09785 q -0.27685,0 -0.42005,-0.1241 -0.13365,-0.1241 -0.13365,-0.4105 v -1.3747 q 0,-0.2769 0.13365,-0.3915 0.1432,-0.1145 0.42005,-0.1145 h 1.09785 q 0,-0.506 0,-1.0024 0.01,-0.506 0.01,-1.0119 0,-0.191 0.11456,-0.296 0.12411,-0.1145 0.37232,-0.2005 0.16229,-0.057 0.3914,-0.1336 0.22912,-0.086 0.46778,-0.1623 0.24822,-0.076 0.47733,-0.1241 0.22912,-0.057 0.38186,-0.057 0.29595,0 0.38187,0.1623 0.0955,0.1623 0.0955,0.4296 0,0.6014 -0.01,1.2029 0,0.5919 0,1.1933 h 1.3747 q 0.24821,0 0.38186,0.1336 0.13365,0.1241 0.13365,0.401 v 1.3079 q 0,0.3055 -0.13365,0.4391 -0.13365,0.1337 -0.38186,0.1337 h -1.3747 q 0,0.6205 0,1.0501 0,0.4296 0,0.7637 0,0.3246 0,0.611 0.01,0.2864 0.01,0.6205 0,0.3341 0,0.7637 0,0.4296 0,1.0502 0,0.019 -0.01,0.038 0,0.019 0,0.038 v 1.2506 q 0,0.6301 0.24821,0.907 0.24821,0.2768 0.80191,0.2768 0.20047,0 0.31503,0.1432 0.11456,0.1432 0.11456,0.3437 v 1.3269 q 0,0.2483 -0.1432,0.3915 -0.13365,0.1336 -0.38186,0.1336 z"
             id="path440" /><path
             d="m -213.77377,-1367.9 q 0,0 -0.01,-0.038 -0.01,-0.038 -0.0286,-0.095 -0.01,-0.057 -0.0191,-0.1241 -0.01,-0.067 -0.01,-0.1146 0,-0.1813 0.1241,-0.2864 0.13366,-0.1145 0.39141,-0.1145 h 1.71838 q 0.44869,0 0.60143,0.4391 0.17184,0.4964 0.41051,1.1743 0.24821,0.6778 0.51551,1.4319 0.27685,0.7542 0.56325,1.5275 0.28639,0.7637 0.5346,1.4511 0.25776,0.6778 0.45824,1.2219 0.21002,0.5346 0.32458,0.8115 0.42959,-1.2124 1.09785,-3.1027 0.66826,-1.8902 1.63246,-4.525 0.0859,-0.2291 0.22912,-0.3246 0.15274,-0.105 0.38186,-0.105 h 1.6611 q 0.29594,0 0.40096,0.095 0.11456,0.095 0.11456,0.2482 0,0.076 -0.0286,0.1909 -0.0191,0.1146 -0.0382,0.1718 l -0.99284,2.4153 q 0.19093,0.4773 0.43914,1.0692 0.25776,0.5824 0.53461,1.2315 0.28639,0.6396 0.56324,1.3079 0.2864,0.6683 0.53461,1.2983 0.17184,-0.4582 0.40095,-1.0596 0.23867,-0.6015 0.48688,-1.2793 0.25776,-0.6778 0.52506,-1.3938 0.27685,-0.716 0.53461,-1.4033 0.2673,-0.6969 0.50596,-1.327 0.23867,-0.6301 0.4296,-1.136 0.0859,-0.2291 0.21957,-0.3246 0.13365,-0.105 0.35322,-0.105 h 1.58473 q 0.27685,0 0.42005,0.086 0.14319,0.076 0.14319,0.2769 0,0.067 -0.0191,0.1813 -0.0191,0.1146 -0.0382,0.1623 l -4.50598,11.0358 q -0.0382,0.067 -0.0859,0.1337 -0.0382,0.067 -0.11455,0.1241 -0.0668,0.057 -0.18139,0.095 -0.10501,0.029 -0.25776,0.029 h -0.821 q -0.33413,0 -0.45823,-0.1241 -0.12411,-0.1241 -0.20048,-0.2673 -0.56325,-1.3652 -1.11695,-2.7017 -0.5537,-1.346 -1.1074,-2.7112 l -2.1957,5.4224 q -0.0764,0.1337 -0.19093,0.2578 -0.10502,0.1241 -0.40096,0.1241 h -0.87828 q -0.34368,0 -0.46778,-0.1146 -0.11456,-0.1241 -0.17184,-0.2673 z"
             id="path442" /><path
             d="m -182.25104,-1357.1124 q 0,0.1718 -0.0764,0.2864 -0.0668,0.105 -0.18138,0.1718 -0.11456,0.057 -0.2673,0.086 -0.1432,0.019 -0.30549,0.019 h -1.19332 q -0.30549,0 -0.4296,-0.1623 -0.11456,-0.1623 -0.17184,-0.4105 l -0.0573,-0.8114 q -0.33413,0.3341 -0.74464,0.63 -0.40095,0.2864 -0.86873,0.506 -0.46778,0.21 -0.99284,0.3246 -0.52506,0.1241 -1.07876,0.1241 -0.85919,0 -1.6611,-0.2196 -0.79237,-0.2291 -1.48926,-0.6301 -0.6969,-0.4105 -1.2697,-0.9833 -0.56324,-0.5727 -0.97374,-1.2696 -0.40096,-0.6969 -0.63008,-1.4989 -0.21957,-0.8019 -0.21957,-1.6706 0,-0.8687 0.21957,-1.6706 0.22912,-0.802 0.63008,-1.4989 0.4105,-0.6969 0.97374,-1.2601 0.5728,-0.5728 1.2697,-0.9737 0.69689,-0.4105 1.48926,-0.6301 0.80191,-0.2291 1.6611,-0.2291 0.61098,0 1.16468,0.1336 0.5537,0.1241 1.03102,0.3628 0.48688,0.2291 0.89738,0.5632 0.4105,0.3246 0.74463,0.716 l 0.13365,-1.0215 q 0.0477,-0.1718 0.0859,-0.2768 0.0477,-0.1146 0.10501,-0.1814 0.0668,-0.067 0.16229,-0.086 0.0955,-0.029 0.23867,-0.029 h 0.95465 q 0.15275,0 0.30549,0.029 0.15275,0.029 0.27685,0.095 0.12411,0.057 0.19093,0.1718 0.0764,0.105 0.0764,0.2673 z m -9.92842,-5.5084 q 0,0.7637 0.26731,1.4511 0.2673,0.6778 0.74463,1.1933 0.47733,0.5155 1.11694,0.821 0.64917,0.2959 1.41289,0.2959 0.77327,0 1.44153,-0.2959 0.67781,-0.3055 1.17423,-0.821 0.49642,-0.5155 0.78282,-1.1933 0.28639,-0.6874 0.28639,-1.4511 0,-0.7542 -0.28639,-1.432 -0.2864,-0.6873 -0.78282,-1.2028 -0.49642,-0.5156 -1.17423,-0.8211 -0.66826,-0.3054 -1.44153,-0.3054 -0.76372,0 -1.41289,0.3054 -0.63961,0.3055 -1.11694,0.8211 -0.47733,0.5155 -0.74463,1.2028 -0.26731,0.6778 -0.26731,1.432 z"
             id="path444" /><path
             d="m -179.76894,-1368.1101 q 0,-0.2768 0.18138,-0.42 0.19093,-0.1432 0.4105,-0.1432 h 1.21242 q 0.23866,0 0.36277,0.1432 0.1241,0.1432 0.19093,0.3532 0.0668,0.21 0.0955,0.4582 0.0286,0.2387 0.0668,0.4392 0.21002,-0.296 0.46778,-0.5728 0.2673,-0.2864 0.60143,-0.506 0.33413,-0.2195 0.75418,-0.3532 0.42005,-0.1337 0.95465,-0.1337 0.47733,0 0.85919,0.067 0.38186,0.057 0.72554,0.1909 0.35322,0.1241 0.68735,0.3341 0.33413,0.2005 0.71599,0.4774 0.16229,0.105 0.27685,0.2386 0.12411,0.1337 0.12411,0.3151 -0.01,0.076 -0.0286,0.1623 -0.0191,0.086 -0.0764,0.1718 l -0.78282,1.241 q -0.0764,0.095 -0.18138,0.1432 -0.0955,0.038 -0.17184,0.038 -0.15275,0 -0.29595,-0.076 -0.31503,-0.1719 -0.57279,-0.3246 -0.25776,-0.1528 -0.50597,-0.2578 -0.24821,-0.1145 -0.51551,-0.1718 -0.25776,-0.067 -0.58234,-0.067 -0.84964,0 -1.44153,0.5441 -0.58234,0.5442 -0.78282,1.4988 v 7.1981 q 0,0.5728 -0.59188,0.5728 h -1.56564 q -0.59188,0 -0.59188,-0.5728 z"
             id="path446" /><path
             d="m -159.41571,-1357.8857 q -0.8401,0.716 -1.84248,1.1265 -0.99285,0.4105 -2.18616,0.4105 -1.28879,0 -2.44392,-0.4869 -1.15513,-0.4869 -2.02387,-1.3365 -0.86874,-0.8497 -1.38425,-1.9857 -0.50597,-1.1456 -0.50597,-2.463 0,-0.8496 0.21003,-1.642 0.21002,-0.7924 0.59188,-1.4797 0.39141,-0.6969 0.94511,-1.2697 0.5537,-0.5824 1.23151,-0.9929 0.68735,-0.4105 1.47971,-0.63 0.80191,-0.2291 1.68974,-0.2291 0.72554,0 1.43198,0.1813 0.70645,0.1719 1.33652,0.4965 0.63962,0.3245 1.19332,0.7923 0.5537,0.4583 0.97375,1.0406 0.57279,0.8019 0.84009,1.7279 0.26731,0.926 0.26731,2.0525 0,0.2769 -0.0286,0.4678 -0.0191,0.1814 -0.11456,0.296 -0.0955,0.1145 -0.2864,0.1718 -0.19093,0.048 -0.5346,0.048 h -8.46779 q 0.1241,0.6874 0.46778,1.222 0.35322,0.525 0.83055,0.8974 0.47733,0.3627 1.04057,0.5537 0.56325,0.1813 1.12649,0.1813 0.4296,0 0.82101,-0.086 0.40095,-0.086 0.74463,-0.2291 0.34367,-0.1432 0.63007,-0.3246 0.29594,-0.1909 0.51551,-0.3914 0,-0.01 0.01,-0.01 0.11456,-0.105 0.21957,-0.1623 0.10501,-0.067 0.21957,-0.067 0.0859,0 0.19093,0.057 0.11456,0.057 0.21957,0.191 0.25776,0.315 0.43915,0.525 0.18138,0.21 0.29594,0.3532 0.11456,0.1432 0.16229,0.2483 0.0573,0.105 0.0573,0.21 0,0.2673 -0.36277,0.5346 z m -4.23867,-8.611 q -0.56324,0 -1.09785,0.21 -0.53461,0.2005 -0.9833,0.5537 -0.43914,0.3532 -0.77327,0.8306 -0.32458,0.4773 -0.47732,1.031 h 6.75895 q -0.15274,-0.5823 -0.46778,-1.0597 -0.30549,-0.4868 -0.74463,-0.8305 -0.43914,-0.3532 -1.00239,-0.5442 -0.56324,-0.1909 -1.21241,-0.1909 z"
             id="path448" /></g><g
           aria-label="Conference"
           id="text20747"
           style="font-weight:bold;font-size:19.0931px;font-family:Cocogoose;-inkscape-font-specification:'Cocogoose Bold';text-align:center;text-anchor:middle;fill:#d3d3d3;stroke-width:1.134;stroke-linecap:round;stroke-linejoin:round;paint-order:markers fill stroke"><path
             d="m -277.41107,-1351.1738 q 0.11456,0.067 0.19093,0.1623 0.0764,0.096 0.0764,0.2291 0,0.105 -0.0573,0.2196 l -0.92601,1.5752 q -0.16229,0.2195 -0.34368,0.2195 -0.0573,0 -0.13365,-0.019 -0.0764,-0.029 -0.15274,-0.076 -0.60144,-0.4296 -1.28879,-0.6683 -0.68735,-0.2387 -1.46062,-0.2387 -0.97375,0 -1.7852,0.3724 -0.81146,0.3627 -1.40335,0.9928 -0.59188,0.6301 -0.92601,1.4797 -0.32458,0.8497 -0.32458,1.8234 0,0.9642 0.32458,1.8139 0.33413,0.84 0.92601,1.4701 0.59189,0.6301 1.40335,0.9929 0.81145,0.3627 1.7852,0.3627 0.77327,0 1.47017,-0.2386 0.70644,-0.2387 1.29833,-0.6683 0.0764,-0.057 0.15275,-0.076 0.0859,-0.019 0.14319,-0.029 0.16229,0 0.33413,0.21 l 0.94511,1.5943 q 0.0573,0.1146 0.0573,0.21 0,0.1337 -0.0859,0.2196 -0.0764,0.086 -0.18138,0.1623 -0.89738,0.6014 -1.93795,0.9355 -1.03103,0.3246 -2.17662,0.3246 -1.01193,0 -1.94749,-0.2577 -0.92602,-0.2578 -1.73747,-0.7351 -0.81146,-0.4773 -1.47972,-1.1361 -0.65871,-0.6682 -1.13604,-1.4701 -0.47733,-0.8115 -0.73508,-1.7375 -0.25776,-0.9356 -0.25776,-1.9475 0,-1.0119 0.25776,-1.9379 0.25775,-0.9356 0.73508,-1.7471 0.47733,-0.821 1.13604,-1.4892 0.66826,-0.6683 1.47972,-1.1361 0.81145,-0.4773 1.73747,-0.735 0.93556,-0.2673 1.94749,-0.2673 1.13604,0 2.15752,0.3245 1.02148,0.3151 1.91886,0.9165 z"
             id="path505" /><path
             d="m -275.21536,-1344.0712 q 0,-0.8687 0.21957,-1.6706 0.22912,-0.8115 0.63962,-1.5084 0.4105,-0.6969 0.98329,-1.2601 0.5728,-0.5728 1.2697,-0.9738 0.69689,-0.4105 1.48926,-0.63 0.80191,-0.2291 1.67064,-0.2291 0.85919,0 1.6611,0.2291 0.80191,0.2195 1.48926,0.63 0.6969,0.401 1.2697,0.9738 0.57279,0.5632 0.98329,1.2601 0.4105,0.6969 0.63007,1.5084 0.22912,0.8019 0.22912,1.6706 0,0.8688 -0.22912,1.6707 -0.21957,0.8019 -0.63007,1.4988 -0.4105,0.6873 -0.98329,1.2601 -0.5728,0.5728 -1.2697,0.9833 -0.68735,0.401 -1.48926,0.6301 -0.80191,0.2196 -1.6611,0.2196 -0.86873,0 -1.67064,-0.2196 -0.79237,-0.2291 -1.48926,-0.6301 -0.6969,-0.4105 -1.2697,-0.9833 -0.57279,-0.5728 -0.98329,-1.2601 -0.4105,-0.6969 -0.63962,-1.4988 -0.21957,-0.8019 -0.21957,-1.6707 z m 2.69213,0 q 0,0.7638 0.2673,1.4511 0.2673,0.6778 0.74463,1.1838 0.47733,0.506 1.12649,0.8019 0.65872,0.2959 1.43199,0.2959 0.75417,0 1.39379,-0.2959 0.64917,-0.2959 1.11695,-0.8019 0.46778,-0.506 0.72554,-1.1838 0.2673,-0.6873 0.2673,-1.4511 0,-0.7541 -0.2673,-1.4415 -0.25776,-0.6873 -0.72554,-1.2029 -0.46778,-0.525 -1.11695,-0.8305 -0.63962,-0.315 -1.39379,-0.315 -0.77327,0 -1.43199,0.315 -0.64916,0.3055 -1.12649,0.8305 -0.47733,0.5156 -0.74463,1.2029 -0.2673,0.6874 -0.2673,1.4415 z"
             id="path507" /><path
             d="m -260.49459,-1349.5891 q 0,-0.1336 0.11456,-0.2864 0.11456,-0.1527 0.21957,-0.1909 0.0764,-0.076 0.22912,-0.076 0.15274,-0.01 0.28639,-0.01 h 0.9642 q 0.27685,0 0.41051,0.1814 0.13365,0.1814 0.18138,0.4009 l 0.10501,1.012 q 0.21957,-0.3246 0.53461,-0.6397 0.32458,-0.315 0.76372,-0.5632 0.43914,-0.2482 1.00239,-0.401 0.56325,-0.1527 1.26969,-0.1527 1.12649,0 2.00478,0.4105 0.87828,0.4009 1.47971,1.1074 0.60143,0.7064 0.90692,1.6611 0.31504,0.9546 0.31504,2.0525 v 6.3676 q 0,0.3436 -0.16229,0.5155 -0.16229,0.1718 -0.46778,0.1718 h -1.45108 q -0.38186,0 -0.51551,-0.1432 -0.12411,-0.1432 -0.12411,-0.506 v -6.358 q 0,-0.5059 -0.17183,-0.9833 -0.17184,-0.4868 -0.50597,-0.8687 -0.32458,-0.3819 -0.81146,-0.611 -0.48687,-0.2291 -1.12649,-0.2291 -0.43914,0 -0.91647,0.1814 -0.46778,0.1718 -0.85919,0.4964 -0.39141,0.3246 -0.64916,0.7924 -0.25776,0.4582 -0.26731,1.0405 v 6.1862 q 0,0.1814 -0.0191,0.3628 -0.0191,0.1814 -0.0859,0.3246 -0.0573,0.1432 -0.17184,0.2291 -0.11456,0.086 -0.29594,0.086 h -1.57518 q -0.31504,0 -0.46778,-0.1432 -0.1432,-0.1527 -0.1432,-0.4296 v -10.9881 z"
             id="path509" /><path
             d="m -246.69982,-1350.1141 q 0,-0.8497 0.25776,-1.6325 0.25775,-0.7924 0.75417,-1.3938 0.49642,-0.6014 1.21241,-0.9546 0.72554,-0.3628 1.64201,-0.3628 h 0.0955 q 0.27685,0 0.42959,0.1718 0.15275,0.1623 0.15275,0.4487 v 1.3174 q 0,0.2769 -0.15275,0.4678 -0.1432,0.191 -0.40095,0.191 -0.1432,0 -0.36277,0.076 -0.21957,0.067 -0.42005,0.2196 -0.20048,0.1527 -0.34368,0.3914 -0.14319,0.2387 -0.14319,0.5632 v 1.5466 h 1.38425 q 0.27685,0 0.42959,0.1432 0.15274,0.1432 0.15274,0.4773 v 1.1742 q 0,0.3342 -0.15274,0.506 -0.15274,0.1623 -0.42959,0.1623 h -1.38425 v 7.9523 q 0,0.3055 -0.20048,0.4678 -0.20048,0.1527 -0.43914,0.1527 h -1.47972 q -0.2864,0 -0.44869,-0.1718 -0.15274,-0.1814 -0.15274,-0.4487 v -7.9523 h -0.94511 q -0.27685,0 -0.44869,-0.1623 -0.17184,-0.1718 -0.17184,-0.506 v -1.1742 q 0,-0.3341 0.17184,-0.4773 0.17184,-0.1432 0.44869,-0.1432 h 0.94511 z"
             id="path511" /><path
             d="m -230.36568,-1339.3647 q -0.8401,0.716 -1.84248,1.1265 -0.99285,0.4105 -2.18616,0.4105 -1.28879,0 -2.44392,-0.4869 -1.15513,-0.4869 -2.02387,-1.3365 -0.86874,-0.8497 -1.38425,-1.9857 -0.50597,-1.1456 -0.50597,-2.463 0,-0.8496 0.21003,-1.642 0.21002,-0.7924 0.59188,-1.4797 0.39141,-0.6969 0.94511,-1.2697 0.5537,-0.5824 1.23151,-0.9929 0.68735,-0.4105 1.47971,-0.63 0.80191,-0.2291 1.68974,-0.2291 0.72554,0 1.43198,0.1813 0.70645,0.1719 1.33652,0.4965 0.63962,0.3245 1.19332,0.7923 0.5537,0.4583 0.97375,1.0406 0.57279,0.8019 0.84009,1.7279 0.26731,0.926 0.26731,2.0525 0,0.2769 -0.0286,0.4678 -0.0191,0.1814 -0.11456,0.296 -0.0955,0.1145 -0.2864,0.1718 -0.19093,0.048 -0.5346,0.048 h -8.46779 q 0.1241,0.6874 0.46778,1.222 0.35322,0.525 0.83055,0.8974 0.47732,0.3627 1.04057,0.5537 0.56325,0.1813 1.12649,0.1813 0.4296,0 0.82101,-0.086 0.40095,-0.086 0.74463,-0.2291 0.34367,-0.1432 0.63007,-0.3246 0.29594,-0.1909 0.51551,-0.3914 0,-0.01 0.01,-0.01 0.11456,-0.105 0.21957,-0.1623 0.10501,-0.067 0.21957,-0.067 0.0859,0 0.19093,0.057 0.11456,0.057 0.21957,0.191 0.25776,0.315 0.43914,0.525 0.18139,0.21 0.29595,0.3532 0.11456,0.1432 0.16229,0.2483 0.0573,0.105 0.0573,0.21 0,0.2673 -0.36277,0.5346 z m -4.23867,-8.611 q -0.56325,0 -1.09785,0.21 -0.53461,0.2005 -0.9833,0.5537 -0.43914,0.3532 -0.77327,0.8306 -0.32458,0.4773 -0.47732,1.031 h 6.75895 q -0.15274,-0.5823 -0.46778,-1.0597 -0.30549,-0.4868 -0.74463,-0.8305 -0.43914,-0.3532 -1.00239,-0.5442 -0.56324,-0.1909 -1.21241,-0.1909 z"
             id="path513" /><path
             d="m -226.30839,-1349.5891 q 0,-0.2768 0.18138,-0.42 0.19093,-0.1432 0.4105,-0.1432 h 1.21241 q 0.23867,0 0.36277,0.1432 0.12411,0.1432 0.19093,0.3532 0.0668,0.21 0.0955,0.4582 0.0286,0.2387 0.0668,0.4392 0.21002,-0.296 0.46778,-0.5728 0.2673,-0.2864 0.60143,-0.506 0.33413,-0.2196 0.75418,-0.3532 0.42004,-0.1337 0.95465,-0.1337 0.47733,0 0.85919,0.067 0.38186,0.057 0.72554,0.1909 0.35322,0.1241 0.68735,0.3341 0.33413,0.2005 0.71599,0.4774 0.16229,0.105 0.27685,0.2386 0.12411,0.1337 0.12411,0.3151 -0.01,0.076 -0.0286,0.1623 -0.0191,0.086 -0.0764,0.1718 l -0.78281,1.241 q -0.0764,0.095 -0.18139,0.1432 -0.0955,0.038 -0.17183,0.038 -0.15275,0 -0.29595,-0.076 -0.31503,-0.1719 -0.57279,-0.3246 -0.25776,-0.1528 -0.50597,-0.2578 -0.24821,-0.1145 -0.51551,-0.1718 -0.25776,-0.067 -0.58234,-0.067 -0.84964,0 -1.44153,0.5442 -0.58234,0.5442 -0.78282,1.4988 v 7.1981 q 0,0.5728 -0.59188,0.5728 h -1.56564 q -0.59188,0 -0.59188,-0.5728 z"
             id="path515" /><path
             d="m -205.95516,-1339.3647 q -0.84009,0.716 -1.84248,1.1265 -0.99284,0.4105 -2.18616,0.4105 -1.28879,0 -2.44392,-0.4869 -1.15513,-0.4869 -2.02387,-1.3365 -0.86873,-0.8497 -1.38425,-1.9857 -0.50596,-1.1456 -0.50596,-2.463 0,-0.8496 0.21002,-1.642 0.21002,-0.7924 0.59189,-1.4797 0.3914,-0.6969 0.9451,-1.2697 0.5537,-0.5824 1.23151,-0.9929 0.68735,-0.4105 1.47971,-0.63 0.80191,-0.2291 1.68974,-0.2291 0.72554,0 1.43199,0.1813 0.70644,0.1719 1.33651,0.4965 0.63962,0.3245 1.19332,0.7923 0.5537,0.4583 0.97375,1.0406 0.57279,0.8019 0.8401,1.7279 0.2673,0.926 0.2673,2.0525 0,0.2769 -0.0286,0.4678 -0.0191,0.1814 -0.11456,0.296 -0.0955,0.1145 -0.2864,0.1718 -0.19093,0.048 -0.5346,0.048 h -8.46779 q 0.1241,0.6874 0.46778,1.222 0.35322,0.525 0.83055,0.8974 0.47733,0.3627 1.04057,0.5537 0.56325,0.1813 1.1265,0.1813 0.42959,0 0.821,-0.086 0.40095,-0.086 0.74463,-0.2291 0.34368,-0.1432 0.63007,-0.3246 0.29595,-0.1909 0.51552,-0.3914 0,-0.01 0.01,-0.01 0.11456,-0.105 0.21957,-0.1623 0.10502,-0.067 0.21957,-0.067 0.0859,0 0.19094,0.057 0.11455,0.057 0.21957,0.191 0.25775,0.315 0.43914,0.525 0.18138,0.21 0.29594,0.3532 0.11456,0.1432 0.16229,0.2483 0.0573,0.105 0.0573,0.21 0,0.2673 -0.36277,0.5346 z m -4.23867,-8.611 q -0.56324,0 -1.09785,0.21 -0.53461,0.2005 -0.98329,0.5537 -0.43915,0.3532 -0.77327,0.8306 -0.32459,0.4773 -0.47733,1.031 h 6.75896 q -0.15275,-0.5823 -0.46779,-1.0597 -0.30549,-0.4868 -0.74463,-0.8305 -0.43914,-0.3532 -1.00238,-0.5442 -0.56325,-0.1909 -1.21242,-0.1909 z"
             id="path517" /><path
             d="m -201.87878,-1349.5891 q 0,-0.1336 0.11456,-0.2864 0.11456,-0.1527 0.21957,-0.1909 0.0764,-0.076 0.22911,-0.076 0.15275,-0.01 0.2864,-0.01 h 0.9642 q 0.27685,0 0.4105,0.1814 0.13366,0.1814 0.18139,0.4009 l 0.10501,1.012 q 0.21957,-0.3246 0.53461,-0.6397 0.32458,-0.315 0.76372,-0.5632 0.43914,-0.2482 1.00239,-0.401 0.56325,-0.1527 1.26969,-0.1527 1.12649,0 2.00478,0.4105 0.87828,0.4009 1.47971,1.1074 0.60143,0.7064 0.90692,1.6611 0.31504,0.9546 0.31504,2.0525 v 6.3676 q 0,0.3436 -0.16229,0.5155 -0.16229,0.1718 -0.46778,0.1718 h -1.45108 q -0.38186,0 -0.51551,-0.1432 -0.12411,-0.1432 -0.12411,-0.506 v -6.358 q 0,-0.5059 -0.17184,-0.9833 -0.17183,-0.4868 -0.50596,-0.8687 -0.32459,-0.3819 -0.81146,-0.611 -0.48687,-0.2291 -1.12649,-0.2291 -0.43914,0 -0.91647,0.1814 -0.46778,0.1718 -0.85919,0.4964 -0.39141,0.3246 -0.64917,0.7924 -0.25775,0.4582 -0.2673,1.0405 v 6.1862 q 0,0.1814 -0.0191,0.3628 -0.0191,0.1814 -0.0859,0.3246 -0.0573,0.1432 -0.17184,0.2291 -0.11456,0.086 -0.29594,0.086 h -1.57518 q -0.31504,0 -0.46778,-0.1432 -0.1432,-0.1527 -0.1432,-0.4296 v -10.9881 z"
             id="path519" /><path
             d="m -180.75226,-1341.2072 q 0.16229,-0.105 0.2673,-0.1241 0.11456,-0.029 0.19093,-0.029 0.1623,0.01 0.27685,0.1718 l 0.22912,0.315 0.67781,0.9642 q 0.0477,0.067 0.0764,0.1432 0.0286,0.067 0.0286,0.1241 0,0.1528 -0.10501,0.2769 -0.10502,0.1145 -0.27685,0.2386 -0.81146,0.5919 -1.75657,0.9547 -0.93556,0.3628 -2.06205,0.3628 -0.84965,0 -1.65156,-0.2196 -0.79236,-0.2291 -1.48926,-0.6301 -0.68735,-0.4105 -1.26014,-0.9737 -0.5728,-0.5728 -0.99284,-1.2697 -0.41051,-0.6969 -0.63962,-1.4988 -0.21957,-0.8019 -0.21957,-1.6707 0,-0.8687 0.21957,-1.6706 0.22911,-0.8019 0.63962,-1.4988 0.42004,-0.6969 0.99284,-1.2602 0.57279,-0.5728 1.26014,-0.9737 0.6969,-0.4105 1.48926,-0.6301 0.80191,-0.2291 1.65156,-0.2291 1.05966,0 2.00477,0.3246 0.94511,0.3246 1.68019,0.8783 l -0.01,-0.01 q 0.13365,0.1337 0.25775,0.2387 0.13366,0.095 0.13366,0.3055 0,0.057 -0.01,0.1336 0,0.076 -0.0477,0.1432 l -0.78282,1.1933 q -0.19093,0.2864 -0.42005,0.2864 -0.16229,0 -0.36277,-0.1623 -0.48687,-0.4105 -1.13604,-0.6682 -0.64916,-0.2578 -1.33651,-0.2578 -0.74463,0 -1.40335,0.3151 -0.64916,0.3055 -1.14558,0.8401 -0.49642,0.525 -0.78282,1.2315 -0.2864,0.6969 -0.2864,1.4701 0,0.7924 0.2864,1.4893 0.2864,0.6969 0.77327,1.2124 0.49642,0.5155 1.15513,0.821 0.65872,0.296 1.40335,0.296 0.81145,0 1.40334,-0.2769 0.59189,-0.2864 1.07876,-0.6778 z"
             id="path521" /><path
             d="m -167.08158,-1339.3647 q -0.8401,0.716 -1.84249,1.1265 -0.99284,0.4105 -2.18616,0.4105 -1.28878,0 -2.44392,-0.4869 -1.15513,-0.4869 -2.02386,-1.3365 -0.86874,-0.8497 -1.38425,-1.9857 -0.50597,-1.1456 -0.50597,-2.463 0,-0.8496 0.21002,-1.642 0.21003,-0.7924 0.59189,-1.4797 0.39141,-0.6969 0.94511,-1.2697 0.5537,-0.5824 1.2315,-0.9929 0.68735,-0.4105 1.47972,-0.63 0.80191,-0.2291 1.68974,-0.2291 0.72553,0 1.43198,0.1813 0.70644,0.1719 1.33652,0.4965 0.63962,0.3245 1.19332,0.7923 0.55369,0.4583 0.97374,1.0406 0.5728,0.8019 0.8401,1.7279 0.2673,0.926 0.2673,2.0525 0,0.2769 -0.0286,0.4678 -0.0191,0.1814 -0.11456,0.296 -0.0955,0.1145 -0.28639,0.1718 -0.19093,0.048 -0.53461,0.048 h -8.46779 q 0.12411,0.6874 0.46778,1.222 0.35323,0.525 0.83055,0.8974 0.47733,0.3627 1.04058,0.5537 0.56324,0.1813 1.12649,0.1813 0.42959,0 0.821,-0.086 0.40096,-0.086 0.74463,-0.2291 0.34368,-0.1432 0.63008,-0.3246 0.29594,-0.1909 0.51551,-0.3914 0,-0.01 0.01,-0.01 0.11455,-0.105 0.21957,-0.1623 0.10501,-0.067 0.21957,-0.067 0.0859,0 0.19093,0.057 0.11456,0.057 0.21957,0.191 0.25776,0.315 0.43914,0.525 0.18138,0.21 0.29594,0.3532 0.11456,0.1432 0.16229,0.2483 0.0573,0.105 0.0573,0.21 0,0.2673 -0.36276,0.5346 z m -4.23867,-8.611 q -0.56325,0 -1.09786,0.21 -0.5346,0.2005 -0.98329,0.5537 -0.43914,0.3532 -0.77327,0.8306 -0.32458,0.4773 -0.47733,1.031 h 6.75896 q -0.15275,-0.5823 -0.46778,-1.0597 -0.30549,-0.4868 -0.74463,-0.8305 -0.43914,-0.3532 -1.00239,-0.5442 -0.56325,-0.1909 -1.21241,-0.1909 z"
             id="path523" /></g><g
           aria-label="2025"
           id="text20757"
           style="font-weight:bold;font-size:18.581px;font-family:Arial;-inkscape-font-specification:'Arial Bold';text-align:center;text-anchor:middle;fill:#ee523c;stroke:#d3d3d3;stroke-width:1.49312;stroke-linecap:round;stroke-linejoin:round;paint-order:markers fill stroke"><path
             d="m -152.8088,-1340.4034 v 2.368 h -8.93666 q 0.14517,-1.3428 0.87099,-2.5404 0.72582,-1.2066 2.86699,-3.1936 1.72382,-1.6059 2.11395,-2.1774 0.52622,-0.7894 0.52622,-1.5606 0,-0.8528 -0.46271,-1.3064 -0.45364,-0.4627 -1.26112,-0.4627 -0.7984,0 -1.27018,0.4808 -0.47178,0.4809 -0.54437,1.5968 l -2.54037,-0.254 q 0.22682,-2.1049 1.42443,-3.0212 1.1976,-0.9164 2.994,-0.9164 1.96879,0 3.09381,1.0615 1.12502,1.0615 1.12502,2.6402 0,0.8982 -0.32661,1.7147 -0.31755,0.8075 -1.01615,1.6966 -0.46271,0.5898 -1.66939,1.6967 -1.20668,1.1068 -1.5333,1.4697 -0.31754,0.3629 -0.51714,0.7077 z"
             style="stroke:none"
             id="path526" /><path
             d="m -146.77541,-1351.3905 q 1.93249,0 3.02122,1.3791 1.29741,1.6331 1.29741,5.4164 0,3.7743 -1.30648,5.4255 -1.07966,1.3609 -3.01215,1.3609 -1.94157,0 -3.1301,-1.4879 -1.18854,-1.497 -1.18854,-5.3257 0,-3.7561 1.30648,-5.4074 1.07966,-1.3609 3.01216,-1.3609 z m 0,2.114 q -0.46272,0 -0.82563,0.2994 -0.36291,0.2903 -0.56251,1.0524 -0.26311,0.9889 -0.26311,3.3297 0,2.3408 0.2359,3.2208 0.23589,0.871 0.58972,1.1613 0.36291,0.2904 0.82563,0.2904 0.46271,0 0.82562,-0.2904 0.36291,-0.2994 0.56251,-1.0615 0.26311,-0.9798 0.26311,-3.3206 0,-2.3408 -0.2359,-3.2118 -0.23589,-0.88 -0.5988,-1.1703 -0.35383,-0.2994 -0.81654,-0.2994 z"
             style="stroke:none"
             id="path528" /><path
             d="m -132.14106,-1340.4034 v 2.368 h -8.93667 q 0.14517,-1.3428 0.87099,-2.5404 0.72582,-1.2066 2.86699,-3.1936 1.72382,-1.6059 2.11395,-2.1774 0.52622,-0.7894 0.52622,-1.5606 0,-0.8528 -0.46271,-1.3064 -0.45364,-0.4627 -1.26111,-0.4627 -0.79841,0 -1.27019,0.4808 -0.47178,0.4809 -0.54436,1.5968 l -2.54037,-0.254 q 0.22681,-2.1049 1.42442,-3.0212 1.1976,-0.9164 2.99401,-0.9164 1.96878,0 3.09381,1.0615 1.12502,1.0615 1.12502,2.6402 0,0.8982 -0.32662,1.7147 -0.31755,0.8075 -1.01615,1.6966 -0.46271,0.5898 -1.66939,1.6967 -1.20667,1.1068 -1.53329,1.4697 -0.31755,0.3629 -0.51715,0.7077 z"
             style="stroke:none"
             id="path530" /><path
             d="m -130.38095,-1341.4558 2.54037,-0.2631 q 0.10887,0.8619 0.64417,1.3699 0.53529,0.499 1.23389,0.499 0.7984,0 1.35184,-0.6441 0.55344,-0.6533 0.55344,-1.9597 0,-1.2249 -0.55344,-1.8327 -0.54436,-0.617 -1.42442,-0.617 -1.0978,0 -1.96879,0.9708 l -2.06859,-0.2994 1.30648,-6.9225 h 6.74106 v 2.3861 h -4.80856 l -0.3992,2.2591 q 0.85283,-0.4264 1.74196,-0.4264 1.69661,0 2.87607,1.2339 1.17946,1.2339 1.17946,3.2027 0,1.6422 -0.95264,2.9305 -1.29741,1.7601 -3.60189,1.7601 -1.84177,0 -3.00308,-0.9889 -1.16131,-0.9889 -1.38813,-2.6583 z"
             style="stroke:none"
             id="path532" /></g></g></g></g></svg>
